<?xml version="1.0" encoding="UTF-8"?><svg xmlns="http://www.w3.org/2000/svg" xmlns:xlink="http://www.w3.org/1999/xlink" height="1085.3" preserveAspectRatio="xMidYMid meet" version="1.0" viewBox="-0.5 -4.0 659.6 1085.3" width="659.6" zoomAndPan="magnify"><g id="change1_1"><path d="M658.8,334.4c-1-18.3-4.2-36-7.3-54c-5.1-29.7-11.9-59.4-25.9-86.3c-5.1-9.8-13-19.1-19.9-27.8l-5.3-2 c-0.8,0.1-0.8-1.5-1.4-2.1c-0.4-0.4-0.9-0.8-1.3-1.1c0-0.1-0.1-0.2-0.1-0.3c-0.2-0.3-0.5-0.4-0.8-0.4c-0.1,0-0.1-0.1-0.2-0.1 c-5.1-6.7-21-21.4-24.5-25.7c-0.1,0.2-0.3-0.4-0.5-0.5c-0.4-0.3-0.8-0.7-1.2-1c-1.4-1-3-1.8-4.5-2.7c-0.6-0.3-1.5-0.6-2.4-1 c-0.3-0.1-0.6-0.2-0.9-0.3c-0.1,0-0.1,0-0.2-0.1c-0.3-0.1-0.6-0.3-0.9-0.4c-0.5-0.2-1-0.5-1.3-0.8c-0.7-0.6,0.1-1.7-0.4-2.3 c-1.1-1.4-3.4-2.2-5-3.1c-2.8-1.7-5.3-3.8-8.2-5.2l-0.2,0.6c-0.5,0.5-1,0.9-1.6,1.4c-1-1.3-1.9-2.5-2.8-3.5 c-1.4-1.7-2.8-4.5-4.9-5.5c-1-0.5-5.3,2-7.6,3.4c-0.2-0.3-0.3-0.6-0.3-0.7c-0.7-1.3-2.2-3.2-3.1-4.9c0.2-0.2,0.4-0.4,0.5-0.6 c7.2-7,12.1-15.5,15.4-25c4.2-12,9.9-27.6,4.6-40.1c-1.7-4.1-4.8-9-8.3-11.7c-0.4-0.3-4-2.4-4.2-2.1c0-13.6-11.3-22.3-22.8-26.4 c-17.1-6.1-34.9,1.4-50.7,8.5c-8.2,3.7-15.9,7.8-22.3,14.2c-1.8,1.8-7.3,1.1-9.3,0.6c-1.1-0.3-1.9-2.6-2.7-1.8 c-1.1,1.1-0.9,4.8-0.9,6.3c0,6.2,0,11.9,3.5,17.3c0.7,1.1,1.4,2,2.3,2.9c-0.2,1.1-0.3,2.1-0.5,3c-1.3,7-2.1,13.7-1.8,20.8 c0.2,3.7,0.4,7.4,2.1,10.7c-1.9,3.1-1.9,7.6-3,11c-2.1,7.2-6.4,20,5.1,21c1.9,0.2,3.8-0.1,5.7-0.3c-0.4-0.1-0.1,2-0.1,2.2 c0.5,2.2,1.3,4.3,2,6.4c0.2,0.6,0.4,1.2,0.5,1.8c0.2,0.6,0.4,1.3,0.6,1.9c1.3,4.5,2.5,9,4.5,13.2c1.2,2.6,3.2,7.5,5.7,9.3 c6.3,4.4,13.3,1,19.3-1.7c2.4-1.1,4.9-2,7.2-3.3c0-0.1,0.2,0.4,0.2,0.5c0,0.1,0.1,0.1,0.1,0.2c0.2,0.3,0.4,0.6,0.6,0.9 c0.7,1,1.5,1.9,2.1,2.9c1.7,2.6,4.5,5.1,6.2,7.8c-0.2-0.3-0.4-0.6-0.6-0.9c-1.2,2-2.5,4-3.7,6c-0.5,0.2-1,0.3-1.5,0.5 c-0.2,0.1-1.3,0.4-1.2,0.7l-1.2,3.7c-0.2,0.5-0.4,1-0.6,1.6c0-0.2-0.1-0.2-0.3,0c-2,2-3.4,5.2-4.5,8.9c-0.5,0.3-1,0.6-1.5,0.9 c-2.6,1.7-4.8,3.7-6.9,6c-5.7,6.4-10.3,14.6-14.6,21.9c-10.8,18.4-23.8,35.7-36.6,52.8c-2.3,3.1-4.8,6.2-7.7,8.9 c-0.3,0.3-0.6,0.5-0.9,0.8c-0.5-0.7-1-1.3-1.5-2c-5.7-7.6-14.6-14.5-23.1-18.7c-0.6-0.3-3.6-2.1-5.8-3.1c0,0,0,0,0,0 c-2.1-8.9-5.3-17.3-10.5-25.4c-0.3-0.5-0.6-0.9-0.9-1.4c0,0,0,0,0,0c2.4-9.5,2.2-20.1,1.2-29.7c-0.6-5.9-2-11.7-3.1-17.5 c0,0,0,0,0,0c5.8,1.7,14.1,3.2,17.4-2.9c1.8-3.3,1.8-8.3,1.6-11.8c-0.1-3.1-0.3-6.2-0.5-9.4c0-0.5-0.1-1-0.1-1.5 c-0.2-1.8-0.3-3.7-0.5-5.5c-0.2-1.6-0.3-3.2-0.5-4.8c0-0.3-0.6-2.8-0.4-2.2c2-0.6,4.1-1.5,5.9-2.5c1.6-0.8,5.4-2.2,6.3-3.7 c0.7-1.2,0.1-3.9-0.6-4.9c-2-3.3-5.7-5.7-8.8-7.9c-1.5-1.1-2.8-2.4-4.2-3.5c-0.2-0.2-1.5-0.6-1.5-0.9c-0.1-2.8,0.4-5.6,0.3-8.4 c-0.2-5.7-1.1-12.1-3.2-17.8c1.6-3.7,2.5-7.8,3-11.7c1.1-8.5-10.4-17.6-17.2-21c-18.6-9.2-38.3-7.5-57.8-3.1 c-10.2,2.3-21.7,5.2-28.2,14.2c-6.2,8.5-5.9,20.8-6.4,30.9c-0.3,6.8-1.7,13.8-3,20.4c-6.1,29.6-17.5,58-20.5,88.4 c-1.8,19,0.9,37.1,4.2,55.8c3,16.7,7.8,36,18.5,49.9l-1,2.3c2.4,17.4,5.5,33.8,9.3,51c1.3,5.9,3.1,11.6,5.3,17.2 c0.2,0.5,1.5,4,2.4,6.2c0,0,0,0,0,0c0.1,0.2,0.2,0.4,0.2,0.5c0,0,0,0,0,0c0.3,0.8,0.6,1.3,0.7,1.2c-12.6,14.1-17.9,33.4-24.9,50.5 c-15.1,37.1-27.4,75.2-41.8,112.6c-38.2,98.7-82.6,192.2-145.4,277.7c-18.7,25.5-38.7,49.3-54.6,76.8c-5.2,8.9-10.4,19-14.2,28.7 c-1.3,3.3-1.8,6.6-2.3,10.1c-0.1,0.9-0.1,4-0.2,3.9c0.9,19.8,24.6,35.8,41,42.4c5.5,2.2,11.7,3,17.2,5.4c11.1,5,19.2,14.2,29.7,19.9 c6.2,3.4,11.2,1.1,17.1,3c8.6,2.8,14,10,23.3,10.9c7,0.7,18.7-4.1,24.8-1.2c14.7,7,26.1,18.8,41.6,25.2c10.2,4.2,21.8,4.6,32.4,7 c0.2,0,0.4,0.1,0.5,0.1c2.7,0.6,5.3,1.4,7.8,2.4c1.5,0.6,1.5,4.5,3.1,5.8c4.1,3.4,8.8,4.3,14,5.4c15.9,3.4,39.5,7.2,56,2 c0,0,0,0,0,0c0.7-0.2,1.4-0.5,2.1-0.7c9.1-3.5-3.4-13.3,4-14c14.5-1.3,31.5,7.1,45.2,10.9c10,2.7,21.9,0.9,32.1,0.2 c26.2-1.8,51.7-7.3,77.9-9.3c14.6-1.1,29.7,1.9,44.2-0.6c14.8-2.6,27.1-14.9,36.2-26.4c2.5-3.2,5.3-6.9,6.7-10.8 c0.5-1.3,2.7-3.9,1.2-4.1c0-0.6,0.1-1.1,0.1-1.7c0,0,0,0,0,0c0.4,0,0.8,0,1.2,0c9.9-0.2,19.8-0.5,29.6-1.7c4.8-0.6,12-0.1,16.3-2.5 c2-1.1,1.1-7.9,0.9-9.5c-1.2-9.8-4.1-18.2-7-27.6c-1.2-3.7-1.7-7.6-2.5-11.4c2.6-0.4,5.2-1,6.4-2.2c1.8-1.8-2.3-15.7-2.5-17.4 c-2.2-16.5-4.7-33-6.8-49.5c-4.4-35.1-4.4-70.4-8.5-105.5c-3.9-33.4-13.3-65.1-14.3-98.8c-0.8-27,12.5-55.9,19.7-82.1 c0.1-0.3,0.1-0.5,0.2-0.8c0.3-1.2,0.6-2.4,0.9-3.5c4.7-18.7,6.3-40.8,6.6-60.8c2-0.5,3.9-1.1,5.8-1.8c2.3-0.9,4.5-2.1,6.6-3.4 c4.7-2.9,9.9-8.5,13.3-13c0.7-0.9,3.3-2.9,3.3-4.1c0.5,0.8-0.2-2-0.3-2.9c-0.3-2.5-0.6-5-1-7.5c-1-7.1-1.9-14.2-2.6-21.2 c-2-21.7-2.6-43.5-4.8-65.2c-0.1-0.8-0.1-1.6-0.2-2.4c0,0,0,0,0,0c-1.5-15.2,2.2-10.7,1.9-26l-0.3-0.2c1.6,0.2,3.3,0.3,5,0.3 c24.8-0.9,32.5-31.6,33.3-51.8C658.8,342.5,659.1,338.5,658.8,334.4z M350.5,194.9c0.9-3.3,1.9-6.6,3.1-9.7 C352.3,188.3,351.4,191.6,350.5,194.9z M360.2,172.1C360.2,172.1,360.2,172.1,360.2,172.1c0,0,0.1-0.1,0.1-0.1 C360.2,172,360.2,172.1,360.2,172.1z M415.4,295.5C415.4,295.5,415.4,295.5,415.4,295.5c0-0.1,0-0.3,0-0.4 C415.4,295.2,415.4,295.4,415.4,295.5z M415,301.7C415,301.7,415,301.7,415,301.7c0,0,0,0.1,0,0.1C415,301.7,415,301.7,415,301.7z M414.9,289c0,0,0,0.1,0,0.1c0,0,0,0,0,0C414.9,289.1,414.9,289.1,414.9,289C414.9,289,414.9,289,414.9,289z M414.5,286.6 c0,0.2,0.1,0.3,0.1,0.5c0,0,0,0,0,0C414.5,286.9,414.5,286.7,414.5,286.6C414.5,286.6,414.5,286.6,414.5,286.6z M414.4,306 c0,0,0,0.1,0,0.1c0,0,0,0,0,0C414.4,306.1,414.4,306,414.4,306z M414,284.5c0,0.2,0.1,0.4,0.1,0.6C414.1,284.9,414,284.7,414,284.5 C414,284.5,414,284.5,414,284.5z M413.4,282.6c0,0,0,0.1,0,0.1C413.5,282.7,413.4,282.6,413.4,282.6 C413.4,282.6,413.4,282.6,413.4,282.6z M410.6,276.3c0.2,0.3,0.3,0.6,0.5,0.9c0,0,0,0,0,0C411,276.9,410.8,276.6,410.6,276.3 C410.6,276.3,410.6,276.3,410.6,276.3z M409.5,274.6C409.5,274.6,409.5,274.6,409.5,274.6c-0.3-0.4-0.5-0.7-0.8-1.1 C409,273.9,409.3,274.2,409.5,274.6z M407.8,272.2c0.2,0.2,0.4,0.5,0.5,0.7C408.1,272.6,407.9,272.4,407.8,272.2 C407.8,272.1,407.8,272.2,407.8,272.2z M406.8,270.9c0.2,0.3,0.5,0.6,0.7,0.9c0,0,0,0,0,0C407.3,271.5,407,271.2,406.8,270.9 C406.8,270.9,406.8,270.9,406.8,270.9z M406.2,333.5c2.5-6.5,5.1-13.7,6.9-21.1c0,0,0,0,0,0c1.9,0.5,3.8,0.8,5.2,1 c4.7,0.8,10.8,1.7,15.5,0.4c2.2-0.6,4.2-1.5,6-2.6c-1.7,1.4-3.3,2.8-4.9,4.1c-10.6,8.6-20.8,18-31.7,26.2 C404.4,338.7,405.3,335.8,406.2,333.5z M452.2,365.7c-2.7,34.9-6.4,69.5-6.4,104.6c0,7.8-0.4,15.6-1.3,23.4 c-0.5,4.6-1.9,11.5-0.8,16.1c0.2,0.6,0.6,1.2,1.1,1.6c0,0,0,0,0,0c0.1,0.1,0.2,0.2,0.3,0.2c0,0,0.1,0.1,0.1,0.1 c0.1,0.1,0.2,0.1,0.3,0.2c0.1,0,0.1,0.1,0.2,0.1c0.1,0,0.2,0.1,0.3,0.1c0.1,0,0.2,0.1,0.3,0.1c0.1,0,0.1,0.1,0.2,0.1 c0.2,0.1,0.3,0.1,0.5,0.2c-0.3,2.2-0.6,4.4-0.9,6.7c-0.4,2.8-0.8,5.6-1.2,8.3c0,0,0,0,0,0c-0.4,3.2-0.9,6.4-1.3,9.6 c-2.5,20.2-4.6,40.5-5.8,60.8c-6-24.2-12-48.4-16.6-72.9c-2.4-12.7-5.9-25.9-9.8-38.2c-0.8-2.5-0.9-8.4-1.2-10.5 c-4.1-25.1-8.5-50-12-75.1c2.6-2.3,4.9-4.6,6.9-6.5c2-2,4-4,6-6.1c2.5-2.8,4.9-5.6,7.4-8.3c2.7-2.9,7.1-7.7,9.9-10.5 c8-8,16.1-15.9,24.3-23.7C452.6,352.5,452.7,359.1,452.2,365.7z M452.6,301.6c-1.2,0.8-2.4,1.6-3.6,2.4c0.8-0.7,1.6-1.4,2.4-2.1 c0.4-0.3,0.9-0.7,1.3-1L452.6,301.6z M455.9,300c-0.2,0-0.4-0.1-0.5-0.1C455.5,299.9,455.7,300,455.9,300 C455.9,300,455.9,300,455.9,300z M478.3,173.2C478.3,173.2,478.3,173.3,478.3,173.2c0,0,0-0.1,0-0.1 C478.3,173.1,478.3,173.2,478.3,173.2z M478.4,172.9C478.4,172.9,478.4,173,478.4,172.9C478.4,172.9,478.4,172.9,478.4,172.9 C478.4,172.9,478.4,172.9,478.4,172.9z M478.5,172.5C478.5,172.5,478.5,172.6,478.5,172.5C478.5,172.5,478.5,172.5,478.5,172.5 C478.5,172.4,478.5,172.5,478.5,172.5z M479.7,249.7C479.7,249.7,479.7,249.7,479.7,249.7c0.5-1.9,1-3.7,1.6-5.6 C480.8,245.9,480.3,247.8,479.7,249.7z" fill="#f6d4c8"/></g><g id="change2_1"><path d="M658.8,334.4c-1-18.3-4.2-36-7.3-54c-5.1-29.7-11.9-59.4-25.9-86.3c-5.1-9.8-13-19.1-19.9-27.8l-5.3-2 c-0.8,0.1-0.8-1.5-1.4-2.1c-0.8-0.7-1.6-1.4-2.5-1.9c-5.1-6.7-21-21.4-24.5-25.7c-0.1,0.2-0.3-0.4-0.5-0.5c-0.4-0.3-0.8-0.7-1.2-1 c-1.4-1-3-1.8-4.5-2.7c-1.4-0.8-4.5-1.4-5.7-2.6c-0.7-0.6,0.1-1.7-0.4-2.3c-1.1-1.4-3.4-2.2-5-3.1c-2.8-1.7-5.3-3.8-8.2-5.2 l-0.2,0.6c-3.9,3.5-7.6,7.1-11,11.1c-8.9,10.7-17.2,24.3-23.5,36.7c-12.5,24.6-22.9,51.8-30.6,78.3c-2.6,9.1-5.1,18.2-7.6,27.3 c-0.8,2.9-1.5,5.9-2,9c-0.3,1.7-0.2,5.1-0.2,5.1s-0.1-1.8-0.2-2.7c-0.1-2.2-0.1-4.4-0.2-6.6c-0.4-6.1-0.2-12.2-0.2-18.2 c0-18.8,0.8-37.4,2.9-56.1c0.8-7.1,2-14.1,3.2-21.1c0.4-2.3,0.8-4.6,1.2-6.9c0.2-1.3,1.6-4.6,0.7-3.7c-2,2-3.4,5.2-4.5,8.9 c-0.5,0.3-1,0.6-1.5,0.9c-2.6,1.7-4.8,3.7-6.9,6c-5.7,6.4-10.3,14.6-14.6,21.9c-10.8,18.4-23.8,35.7-36.6,52.8 c-2.3,3.1-4.8,6.2-7.7,8.9c-0.3,0.3-0.6,0.5-0.9,0.8c0.2,0.2,0.3,0.4,0.5,0.6c0.2,0.3,0.5,0.6,0.7,0.9c0.1,0.1,0.2,0.2,0.3,0.4 c0.3,0.4,0.6,0.8,0.9,1.2c0,0,0,0,0,0c0.3,0.4,0.6,0.8,0.8,1.2c0.1,0.1,0.2,0.3,0.3,0.4c0.2,0.3,0.4,0.6,0.6,0.9 c0.1,0.1,0.2,0.3,0.3,0.4c0.2,0.3,0.3,0.6,0.5,0.9c0.1,0.1,0.2,0.3,0.2,0.4c0.2,0.4,0.4,0.9,0.6,1.3c0.3,0.6,0.5,1.2,0.8,1.8 c0.1,0.2,0.1,0.4,0.2,0.6c0.2,0.4,0.3,0.8,0.4,1.3c0.1,0.2,0.1,0.4,0.2,0.7c0.1,0.4,0.2,0.8,0.4,1.2c0.1,0.2,0.1,0.4,0.2,0.7 c0.1,0.5,0.2,0.9,0.3,1.4c0,0.2,0.1,0.3,0.1,0.5c0.1,0.6,0.2,1.3,0.3,1.9c0,0,0,0.1,0,0.1c0.1,0.6,0.2,1.2,0.2,1.8 c0,0.2,0,0.4,0,0.5c0,0.5,0.1,1,0.1,1.4c0,0.2,0,0.4,0,0.6c0,0.5,0,1,0,1.5c0,0.2,0,0.3,0,0.5c0,0.6,0,1.2,0,1.8c0,0.1,0,0.1,0,0.2 c0,1.4-0.2,2.8-0.3,4.1c0,0.1,0,0.2,0,0.3c-0.1,0.6-0.1,1.2-0.2,1.8c0,0.1,0,0.2,0,0.3c-0.1,0.6-0.2,1.2-0.3,1.9c0,0.1,0,0.1,0,0.2 c-0.4,2.1-0.8,4.2-1.3,6.3c0,0,0,0,0,0c1.9,0.5,3.8,0.8,5.2,1c4.7,0.8,10.8,1.7,15.5,0.4c7.3-1.9,12.1-7.4,17.6-12 c1.2-1,3-2.1,4.6-3.2c-0.7,10.6-1,21.1-2.4,31.8c-1.5,11.6-0.5,23.4-1.4,35c-2.7,34.9-6.4,69.5-6.4,104.6c0,7.8-0.4,15.6-1.3,23.4 c-0.5,4.6-1.9,11.5-0.8,16.1c0.3,1.4,1.8,2.3,3.2,2.8c-1.1,8.2-2.3,16.4-3.3,24.6c-2.5,20.2-4.6,40.5-5.8,60.8 c2.3,9.3,4.6,18.6,6.9,27.9c8,33,17.6,65.5,25,98.6c6.5,29,11.1,58.6,22.2,86.3c11.9,29.9,29.6,57.5,42.6,87 c10.6,24.2,16.6,50.1,20.4,76.2c0.1,1,0.3,2,0.4,3c2,14.1,3.8,28.1,3,42.4c0.4,0,0.8,0,1.2,0c9.9-0.2,19.8-0.5,29.6-1.7 c4.8-0.6,12-0.1,16.3-2.5c2-1.1,1.1-7.9,0.9-9.5c-1.2-9.8-4.1-18.2-7-27.6c-1.2-3.7-1.7-7.6-2.5-11.4c0,0,0,0,0,0 c2.6-0.4,5.2-1,6.4-2.2c1.8-1.8-2.3-15.7-2.5-17.4c-2.2-16.5-4.7-33-6.8-49.5c-4.4-35.1-4.4-70.4-8.5-105.5 c-3.9-33.4-13.3-65.1-14.3-98.8c-0.8-28.5,14-59.1,20.8-86.4c4.7-18.7,6.3-40.8,6.6-60.8c2-0.5,3.9-1.1,5.8-1.8 c2.3-0.9,4.5-2.1,6.6-3.4c4.7-2.9,9.9-8.5,13.3-13c0.7-0.9,3.3-2.9,3.3-4.1c0.5,0.8-0.2-2-0.3-2.9c-0.3-2.5-0.6-5-1-7.5 c-1-7.1-1.9-14.2-2.6-21.2c-2-21.7-2.6-43.5-4.8-65.2c-1-9.7-1.6-19.5-2.1-29.2c2.7,0.6,5.5,1,8.3,0.9c24.8-0.9,32.5-31.6,33.3-51.8 C658.8,342.5,659.1,338.5,658.8,334.4z M592.9,967.1c0,0-0.1,0-0.1,0C592.8,967.1,592.9,967.1,592.9,967.1z M592.2,967.2 c-0.1,0-0.1,0-0.2,0C592.1,967.3,592.1,967.2,592.2,967.2z M591.5,967.4c-0.1,0-0.1,0-0.2,0C591.4,967.4,591.4,967.4,591.5,967.4z" fill="#509fc0"/></g><g id="change1_2"><path clip-rule="evenodd" d="M474.7,267.9l-3.8-3.1c0-2.3,0-4.6,0-7c0-18.8,0.8-37.4,2.9-56.1c0.8-7.1,2-14.1,3.2-21.1 c0.4-2.3,0.8-4.6,1.2-6.9c0.1-0.4,0.2-1,0.4-1.5c2.6-5,5.7-9.8,8.7-14.7c0.4,0.6,0.9,1.3,1.2,2c0-0.1,0.3-0.7,0.3-0.7 c0.2-0.4,0.5-0.8,0.7-1.2c0.7-1.4,1.4-2.7,2.1-4.1c2.1-4.1,4.6-8.1,7.4-11.6c7.6-9.6,16.5-17.8,27.2-24c1.5-0.9,2.7-2.3,4.3-3 c-0.3,0-0.7-0.6-1-1.1c2.3-1.4,6.6-3.9,7.6-3.4c2.1,1,3.4,3.8,4.9,5.5c0.9,1,1.8,2.3,2.8,3.5c-3.4,3-6.5,6.2-9.4,9.7 c-8.9,10.7-17.2,24.3-23.5,36.7c-12.5,24.6-22.9,51.8-30.6,78.3C479,252,476.8,260,474.7,267.9z M558.2,1021 c1.1-15.8-1-31.4-3.3-47.1c-3.7-26-9.7-52-20.4-76.2c-13-29.5-30.6-57.1-42.6-87c-11.1-27.8-15.7-57.3-22.2-86.3 c-7.4-33.1-17.1-65.6-25-98.6c-8.1-33.6-17.1-66.9-23.5-100.8c-2.4-12.7-5.9-25.9-9.8-38.2c-0.8-2.5-0.9-8.4-1.2-10.5 c-4.4-27-9.2-53.9-12.8-81c-1.3-9.8-3-19.1-3.3-29c0-1.4-0.2-11.2,1-10.3c5.5-4.6,8.6-15.8,11-22.3c6.2-16.4,13.6-37.4,5.8-54.6 c-1.7-3.8-4.8-7.3-7.2-10.6c-5.7-7.6-14.6-14.5-23.1-18.7c-0.6-0.3-3.6-2.1-5.8-3.1c0.9,3.6,1.6,7.3,2.2,11.1 c0.5,3.4,2.8,10.4,1.7,13.7c0.3,0.6-1.3-0.4-2-0.4c-1.6,0.1-3.2-0.1-4.9-0.1c-4.5-0.1-9.1,0.1-13.6,0.5c-9.6,0.6-18.5,4.3-27.2,8.1 c-4.1,1.8-9.8,4-12.6,7.7c-2.1,2.8-5.1,8-4.7,11.2c0.1,0,0.1,0.1,0,0.1c0,0,0-0.1,0-0.1c-0.2-0.1-0.9-0.2-1.2-0.3 c-1-0.1-2.1,0-3.1,0.1c-3,0.3-5.9,1-8.9,1.3c-6.6,0.8-13.2,2-19.8,2.7c-2.5,0.3-5.2,2.2-7.8,1.4c-0.1,0.1-0.3-0.2-0.5-0.7 c-2.4,0.8-4.9,1.4-5,1l-3.1,7c2.4,17.4,5.5,33.8,9.3,51c1.3,5.9,3.1,11.6,5.3,17.2c0.3,0.8,3.1,8.2,3.4,7.9 c-12.6,14.1-17.9,33.4-24.9,50.5c-15.1,37.1-27.4,75.2-41.8,112.6c-38.2,98.7-82.6,192.2-145.4,277.7 c-18.7,25.5-38.7,49.3-54.6,76.8c-5.2,8.9-10.4,19-14.2,28.7c-1.3,3.3-1.8,6.6-2.3,10.1c-0.1,0.9-0.1,4-0.2,3.9 c0.9,19.8,24.6,35.8,41,42.4c5.5,2.2,11.7,3,17.2,5.4c11.1,5,19.2,14.2,29.7,19.9c6.2,3.4,11.2,1.1,17.1,3c8.6,2.8,14,10,23.3,10.9 c7,0.7,18.7-4.1,24.8-1.2c14.7,7,26.1,18.8,41.6,25.2c12.9,5.3,28.1,4.5,40.7,9.6c1.5,0.6,1.5,4.5,3.1,5.8c4.1,3.4,8.8,4.3,14,5.4 c16.6,3.6,41.6,7.5,58.1,1.2c9.1-3.5-3.4-13.3,4-14c14.5-1.3,31.5,7.1,45.2,10.9c10,2.7,21.9,0.9,32.1,0.2 c26.2-1.8,51.7-7.3,77.9-9.3c14.6-1.1,29.7,1.9,44.2-0.6c14.8-2.6,27.1-14.9,36.2-26.4c2.5-3.2,5.3-6.9,6.7-10.8 C557.5,1023.7,559.6,1021.2,558.2,1021z M513.3,313.6c-0.4,0.7-1.2,1.5-1.6,2.1c-0.2,0.2-1.9-0.2-2.2-0.3c-1.6-0.3-3.3-0.9-4.9-0.5 c0,3.4,0.5,6.7,1.8,9.8l17,8.3c0.5-0.9,1-1.9,1.5-2.9c4.9-10.3,4.7-24.6,3.9-35.6c-0.3-3.3-0.8-6.6-1.9-9.8c-0.1-0.3-1.5-2.4-1.6-3 c-1-0.3-2.4-0.4-3.2-0.5c-1.7-0.3-3.5-0.5-5.2-0.7c-0.2,0-0.4-0.1-0.7-0.2c1.1,1,2,2,2.6,3.2c3.8,7.5-0.2,18.5-3.1,25.7 C514.9,310.7,514.2,312.2,513.3,313.6z" fill="#f6d4c8" fill-rule="evenodd"/></g><g id="change3_1"><path clip-rule="evenodd" d="M530.5,114.8c-1.6,0.7-2.8,2.1-4.3,3c-10.7,6.2-19.6,14.4-27.2,24c-2.8,3.6-5.3,7.6-7.4,11.6 c-0.7,1.4-1.4,2.7-2.1,4.1c-0.2,0.4-0.4,0.8-0.7,1.2c0,0.1-0.3,0.6-0.3,0.7c-1.5-3.2-4.8-5.9-6.7-8.9c-0.7-1-1.4-2-2.1-2.9 c-0.3-0.3-0.5-0.7-0.8-1c0,0-0.3-0.5-0.2-0.5c-2.3,1.3-4.8,2.2-7.2,3.3c-6.1,2.7-13,6.1-19.3,1.7c-2.5-1.8-4.5-6.7-5.7-9.3 c-2.6-5.3-3.9-11.3-5.6-16.9c-0.7-2.1-1.5-4.2-2-6.4c0-0.2-0.4-2.4,0.1-2.2c-1.9,0.2-3.7,0.5-5.7,0.3c-11.5-0.9-7.2-13.7-5.1-21 c1-3.4,1.1-7.9,3-11c-1.7-3.3-1.9-7.1-2.1-10.7c-0.3-7.1,0.5-13.8,1.8-20.8c0.6-3.2,0.8-8.3,3.1-10.8l3.5-0.6 c3.5-0.3,6.9,0.4,10.4,0.5c1.9,0,4.8-0.3,6.5,0.7c1,0.5,0.9,4.3,1,5.3c0.1,2,0.2,4.1,0,6.2c-0.1,0.6-0.1,1.2-0.3,1.8 c0,0.1-0.5,0.7-0.4,0.8c0.3,0.3,1.8,0.2,2.2,0.2c2.2,0.2,4.4,0.1,6.6,0.4c0.4,0.1,1.9,0.1,2.1,0.4c-0.1,0.4,0.6,0.5,0.8,0.8 c0.7,1,1.6,1.9,2.3,3c1.7,2.7,2.5,6.3,2.9,9.4c0.5,3.9,0.5,8,0.9,11.9c0.1,0.8,0.3,1.7,0.1,2.5c-0.1,0.2-1,0.9-0.9,1 c0.8,0.7,2.5,0.7,3.4,0.8c2.2,0.3,4.4,0.5,6.5,1.3c0.3,0.1,2.3,0.6,2.4,0.8c1-3.4,0.7-7,1-10.5c0.6-8.6,3.8-21.6,13.6-24.1 c5.1-1.3,7.8,7.2,8.4,10.7c0.3,1.6,0.6,3.2,0.4,4.8c0,0.5-0.1,1-0.3,1.4c0,0.1-0.4,0.5-0.3,0.4c0.4,1,1.4,1.8,2,2.7 c1.6,2.4,3.1,5,4.7,7.4c2.6,4.2,5,8.5,7.5,12.7c1.4,2.4,2.4,4.7,3.5,7.3c0.6,1.5,1.3,2.1,1.3,3.7c-0.1,2.1,2.7,5.2,3.7,7.1 C529.4,113.3,530,114.9,530.5,114.8z M514.6,279.2c-0.3-0.3-0.5-0.7-0.8-1c-2.5-3.1-5.1-6.1-7.8-9c-1.3-1.5-3-2.5-4.6-3.7 c-2.5-2-4.6-4.4-7.4-6.2c-3.4-2.2-6.9-4.1-10.3-6.3c-3.1-2.1-6.3-6-10.2-6.3c-3.4-0.2-4.1,4-3,6.3c2,4.5,7.7,8.8,11.7,11.4 c1.2,0.8,2.3,1.5,3.5,2.3c-2.5-0.3-5-0.7-7.3-1.3c-8.3-2-16.8-2.9-25.2-4.6c-2.6-0.5-7.8-1.9-10.1-0.2c-1,0.7-2,1.5-2.5,2.7 c-0.4,1.1-1.1,2.9-0.9,4.1c0.6,4.2,8,5.3,11,6.2c1.2,0.4,2.4,0.8,3.6,1.1c1.6,0.4,3.3,0.8,4.9,1.2c2.3,0.6,4.6,0.9,6.9,1.6 c1.8,0.5,3.7,0.8,5.6,1.1c0.6,0.1,1.9,0.1,2.4,0.5c0.3,0.2-0.8,0-1.2,0c-0.8,0-1.5,0-2.3-0.1c-2.4-0.1-4.8-0.4-7.2-0.6 c-5.7-0.5-11.3-1.5-17-1.7c-3.6-0.1-7.6-0.2-8.6,4.4c-0.4,1.9,0.1,4.7,1,6.4c0.4,0.7,1.6,1.1,1.8,1.6c0.6,1.2-0.4,3.2,0.5,4.7 c0.9,1.4,2.6,2.3,4,3.1c3.7,1.9,8.2,2.7,12.2,3.6c3,0.7,6.1,0.7,9.1,1.8c1.1,0.4,2.2,0.8,2.8,1.9c1.5,3-4.2,3.4-5.8,3.6 c-1.4,0.1-2.7,0.1-4.1,0c-4.4-0.1-12.3-3-13.2,3.5c-0.1,0.9,0,1.7,0.4,2.5c2.1,4,8,3.5,11.7,3.6c1.2,0,2.4,0.2,3.6,0.3 c13.6,0.2,29.2,5.1,41.6-2.3c1.8-1.1,3.9-0.2,5.8,0.1c0.3,0,2,0.5,2.2,0.3c0.4-0.6,1.2-1.4,1.6-2.1c0.9-1.4,1.6-2.9,2.2-4.5 c2.9-7.1,6.9-18.1,3.1-25.7C517.9,281.9,516.3,280.4,514.6,279.2z" fill="#dc9178" fill-rule="evenodd"/></g><g id="change4_1"><path clip-rule="evenodd" d="M365.9,73.2c8.1,6.6,10.8,19.2,11.1,29.4c0.1,2.8-0.4,5.6-0.3,8.4c0,0.3,1.3,0.7,1.5,0.9 c1.5,1.1,2.7,2.4,4.2,3.5c3,2.2,6.7,4.6,8.8,7.9c0.6,1,1.3,3.7,0.6,4.9c-0.9,1.6-4.7,2.9-6.3,3.7c-1.8,0.9-4,1.8-5.9,2.5 c-0.2-0.6,0.4,1.8,0.4,2.2c0.2,1.6,0.3,3.2,0.5,4.8c0.6,5.5,1,10.9,1.2,16.4c0.1,3.6,0.1,8.5-1.6,11.8c-3.8,7-13.8,4.1-19.5,2.3 c-0.1-0.2-0.5,0.7-0.7,0.9c-0.5,0.8-1,1.6-1.5,2.4c-1.2,2.1-2.1,4.4-3.2,6.5c-2.5,5.2-4.1,11.1-5.5,16.6c-0.4,1.6-0.3,4.5-0.9,5.9 c-0.7-0.5,1.6,0.8,2.4,1.1c1.6,0.8,3.2,1.8,4.4,3.1c3.6,3.8,7,8.2,9.9,12.6c7.4,11.3,10.6,23.3,12.7,36.5c0.5,3.4,2.8,10.4,1.7,13.7 c0.3,0.6-1.3-0.4-2-0.4c-1.6,0.1-3.2-0.1-4.9-0.1c-4.5-0.1-9.1,0.1-13.6,0.5c-9.6,0.6-18.5,4.3-27.2,8.1c-4.1,1.8-9.8,4-12.6,7.7 c-2.1,2.9-5.2,8.2-4.7,11.4c0.4-0.1-0.8-0.4-1.2-0.4c-1-0.1-2.1,0-3.1,0.1c-3,0.3-5.9,1-8.9,1.3c-6.6,0.8-13.2,2-19.8,2.7 c-2.5,0.3-5.2,2.2-7.8,1.4c-0.4,0.3-2.5-6-2.7-6.7c-3.1-8.8-3.4-13.4-2.1-22.9c2.2-15.9,5.2-30.9,12.9-45.1 c2.4-4.3,4.7-8.8,8.3-12.3c-0.5-1.6,4-5.3,4.9-6.1c5.8-5,13.7-8.6,18.5-14.5c13.4-16.2,17.5-38,13.7-58.7c-1.6,0.5-4.3-3.8-5.4-5.3 c-4.1-5.5-7.7-15.3-2.6-21.2c8.5-9.7,17.9,6,26.9,1.7c4.2-2,5.3-6.2,6.7-10.2c2.1-6.5,3.8-14.4,7.2-20.3 M463.7,278.3 c-3.3-0.3-6.6-0.8-9.9-1.1c-0.1-1-0.3-1.9-0.4-2.9c0.4,0.1,0.7,0.2,1.1,0.3c1.6,0.4,3.3,0.8,4.9,1.2c2.3,0.6,4.6,0.9,6.9,1.6 c1.8,0.5,3.7,0.8,5.6,1.1c0.6,0.1,1.9,0.1,2.4,0.5c0.3,0.2-0.8,0-1.2,0c-0.8,0-1.5,0-2.3-0.1C468.5,278.7,466.1,278.5,463.7,278.3z M453.3,260.8c8.4,1.7,16.9,2.6,25.2,4.6c2.6,0.6,5.3,1.1,7.9,1.4c0.1-0.1,0.3-0.3,0.4-0.4c0.8,0.2,3.7-1,4.5-1.3 c3.6-1,10.6-1,11.5-5.5c0.4-1.9-0.1-4.1-1.2-5.6c-0.3-0.4-0.9-1-1.4-1.2c-0.3-0.1-1.1-0.1-0.9-0.3c-1.5-0.4-2.3-2.7-4.2-3.1 c-6.6-1.4-14,0.2-20.6,1c-2,0.3-4.1,0.4-6.2,0.6l0.1-0.3c1.2-0.6,2.2-2.1,3-3.1c1.6-1.7,10.8-8.2,4.6-10.1c-3-0.9-6.2,1.5-8.5,3 c-5.8,4-12.3,9.5-14.3,16.7c-0.3,1.1-0.5,2.2-0.7,3.4C452.9,260.7,453.1,260.7,453.3,260.8z M462.2,317.6c-1.2,0-2.4-0.2-3.6-0.3 c-3.7-0.1-9.6,0.4-11.7-3.6c-0.4-0.8-0.5-1.6-0.4-2.5c0.9-6.4,8.8-3.6,13.2-3.5c1.4,0,2.7,0.1,4.1,0c1.6-0.2,7.3-0.6,5.8-3.6 c-0.6-1.1-1.7-1.5-2.8-1.9c-3-1.1-6-1.1-9.1-1.8c-1.5-0.3-3.1-0.7-4.6-1l-0.6,2.3c-6.2,3.9-12.1,9.3-17.6,13.7 c-12.3,10-24.1,21-37,30.1c-7.4,5.2-14.6,7.1-22.8,10.5c-5.6,2.3-12.2,3.9-17.1,7.4c-2.1,1.5-4.2,3.1-6.3,4.7 c-0.1,0-1.4,1.2-1.5,1.1l0.2,7c3.7,9.1,9,17.7,14.1,26.1c1.1,1.8,3.8,5,5,5.9c12.4,8.9,27.6-5.6,35.5-13.6c2-2,4-4,6-6.1 c2.5-2.8,4.9-5.6,7.4-8.3c2.7-2.9,7.1-7.7,9.9-10.5c10.6-10.6,21.4-21,32.3-31.3c5.4-5.1,10.4-10.1,15.2-15.8c1-1.2,2.3-2.4,3.5-3.6 C473.5,318.5,467.7,317.7,462.2,317.6z" fill="#f8ba95" fill-rule="evenodd"/></g><g id="change5_1"><path clip-rule="evenodd" d="M442.3,86.4c-0.2-1.4,0.1-3.3,1.9-2.6l1.2,1.4c0.3,0.7,0.5,1.4,0.8,2.2c0.3,0.9,0.4,4.7-1.7,3.3 C443.3,89.8,442.5,87.7,442.3,86.4z M451,74.2c0.6,0.1,1.1-0.3,1.2-0.9c0.1-0.6-0.3-1.1-0.9-1.2c-6-0.9-10.5,0.8-16,2.8 c-0.5,0.2-0.8,0.8-0.6,1.3c0.2,0.5,0.8,0.8,1.3,0.6C441.2,75,445.3,73.3,451,74.2z M498.2,65.7c-1.4,2.4-3.2,5.8-3.2,8.7 c0,0,0,0.1,0,0.1c0.2,0,0.4-0.1,0.5-0.2c0.1,0,0.2-0.1,0.3-0.1c0.3-0.1,0.6-0.3,0.9-0.5c0.9-0.4,1.7-0.8,2.3-0.9 c0.6-0.1,1,0.1,1.3,0.4c0.5,0.5,0.8,1.4,0.8,2.4c0,1.7-0.6,4-0.7,5.1c-0.1,0.6-0.5,1-1.1,0.9c-0.6,0-1-0.5-0.9-1.1 c0.1-1,0.6-2.8,0.7-4.3c0-0.4,0-0.8,0-1.2c0-0.1,0-0.2,0-0.2c-0.2,0.1-0.4,0.2-0.6,0.2c-0.8,0.4-1.6,0.9-2.4,1.2 c-1,0.4-1.9,0.3-2.4-0.2c-0.4-0.3-0.7-0.9-0.7-1.8c0-3.3,1.8-7.1,3.5-9.8c0.3-0.5,1-1.5,1.4-2c0.3-0.3,0.8-0.5,1.3-0.5 c0.5,0,0.9,0.1,1.1,0.2c0.4,0.2,0.6,0.6,0.6,0.8c0,0.3,0,0.6-0.3,0.9c-0.3,0.3-0.8,0.4-1.2,0.2h0C499,64.6,498.5,65.3,498.2,65.7z M498.8,63.2c0-0.3,0.1-0.5,0.3-0.7C498.9,62.8,498.8,63,498.8,63.2z M481.2,93.3c-2.7-0.7-5.4-1.4-8.2-1.8c-0.2,0-1.5-0.4-2.2-0.4 c-0.5,0-0.8,0.1-1,0.3c-0.4,0.3-0.5,1-0.2,1.4c0.3,0.4,0.8,0.5,1.2,0.3c0.1,0,0.4,0,0.6,0.1c0.6,0.1,1.2,0.2,1.4,0.3 c2.7,0.4,5.3,1,7.9,1.8c0.5,0.1,1.1-0.2,1.3-0.7C482.1,94,481.8,93.5,481.2,93.3z M481.9,99.6c-2.3-0.3-4.5-0.5-6.8-1 c-0.5-0.1-1.2-0.4-1.8-0.6c-0.6-0.2-1.1-0.3-1.6-0.3c-0.6,0-1,0.5-1,1c0,0.6,0.5,1,1,1c0.4,0,0.8,0.2,1.3,0.3 c0.6,0.2,1.3,0.5,1.8,0.6c2.3,0.4,4.6,0.7,6.9,1c0.6,0.1,1.1-0.3,1.1-0.9C482.8,100.2,482.4,99.7,481.9,99.6z M372.3,94.2 c-0.2-0.5-0.7-0.8-1.3-0.7c-4.9,1.5-8.4,3.4-12.1,7.3c-0.4,0.4-0.4,1.1,0,1.4c0.4,0.4,1.1,0.4,1.4,0c3.4-3.6,6.6-5.4,11.2-6.8 C372.2,95.3,372.5,94.8,372.3,94.2z M329,123.9c-0.2,1.2,0.1,2.6,0.4,3.5c0.2,0.5-0.1,1.1-0.6,1.3c-0.5,0.2-1.1-0.1-1.3-0.6 c-0.5-1.2-0.8-3-0.5-4.5c0.2-1.2,0.7-2.3,1.6-3c0.6-0.4,1.2-0.5,1.9-0.3c0.1,0,0.2,0,0.2,0.1c-0.7-1.5-1.9-3.1-2.3-3.8 c-0.3-0.4-0.6-0.9-1-1.2l-0.5-0.1c-0.3,0.1-0.6,0-0.9-0.2c-0.4-0.4-0.4-0.8-0.3-1c0.1-0.2,0.2-0.5,0.5-0.7c0.1,0,0.3-0.1,0.7-0.1 c0.4,0,1.3,0.2,1.5,0.3c0.7,0.4,1.2,1.1,1.7,1.8c0.6,0.8,2.2,3.1,2.9,5c0.4,1,0.5,2,0.3,2.6c-0.1,0.4-0.4,0.6-0.6,0.7 c-0.2,0.1-0.5,0.1-0.8,0.1c-0.1,0-0.4-0.2-0.5-0.4c-0.1-0.1-0.4-0.5-0.4-0.5c-0.2-0.2-0.5-0.4-0.8-0.5c-0.1,0-0.1,0-0.2-0.1 c0,0-0.1,0-0.1,0C329.3,122.6,329.1,123.2,329,123.9z M327.7,114.3c0-0.2-0.1-0.5-0.3-0.7C327.5,113.7,327.6,114,327.7,114.3z M371.2,108.3c-0.3-0.2-0.6-0.6-0.9-0.6c-0.6,0-0.8,1.2-0.9,1.6c-0.3,1.4-0.2,3.5,0.4,4.8c0.9,1.7,1.9,0.3,2-0.9c0-0.5,0-1,0-1.5 v-2.2L371.2,108.3z M570.4,240.2c0.5-0.1,0.9-0.7,0.7-1.2c-5.8-22.8-7.6-53.1,11.4-70.4c3-2.7,7.4-4.6,11.1-6c0.1-0.1,0.4,0,0.7,0 c0.7,0,1.6,0.1,2,0.1c0.5,0,0.9-0.2,1-0.2c0.4-0.3,0.5-1,0.2-1.4c-0.3-0.3-0.7-0.5-1.1-0.4c-0.2,0-1.6-0.1-2.4,0 c-0.5,0-1,0.1-1.2,0.2c-4,1.5-8.6,3.6-11.8,6.4c-19.6,17.9-18,49-12,72.4C569.3,240,569.8,240.3,570.4,240.2z M573.4,244.6 c-0.1-0.6-0.7-0.9-1.2-0.8c-0.4,0.1-0.6,0.3-0.8,0.5c-0.3,0.3-0.4,0.7-0.4,1.2c0,0.4,0.2,0.9,0.4,1.4c0.2,0.6,0.6,1.2,0.7,1.7 c1.6,4.4,3.4,8.7,4.7,13.2c3,10.6,6.2,21.2,9,31.9c0.1,0.5,0.7,0.9,1.2,0.7c0.5-0.1,0.9-0.7,0.7-1.2c-2.8-10.7-6-21.3-9-32 c-1.3-4.6-3.2-8.9-4.7-13.3c-0.1-0.4-0.4-0.9-0.6-1.5c-0.1-0.2-0.2-0.6-0.3-0.8C573.3,245.4,573.4,245,573.4,244.6z M594.8,295.9 c-0.3,0.5-0.1,1.1,0.3,1.4c0.5,0.3,1.1,0.1,1.4-0.3c0.9-1.4,2.8-2.5,5-3.4c3.6-1.4,7.9-2.3,10.4-2.6c0.6-0.1,0.9-0.6,0.9-1.1 c-0.1-0.6-0.6-1-1.1-0.9c-2.7,0.4-7.2,1.3-10.9,2.8C598.1,292.8,595.9,294.2,594.8,295.9z M387.9,295.4c4.6,16.5,8.3,34,8.3,51.2 c0,0.5-0.3,0.9-0.8,1c0,0-0.1,0.1-0.1,0.1c-0.7,0.8-1.6,1.4-2.4,2.1c-3.6,3.2-8,5.5-11.8,8.5c-3.6,2.9-7.4,5.6-10.8,8.8 c-4.2,4-8.6,7.7-12.5,12.1c-1,1.1-1.9,2.1-2.9,3.2c-0.1,0.1-0.2,0.3-0.4,0.5c-0.1,0.1-0.1,0.2-0.2,0.3c-0.2,0.2-0.4,0.4-0.5,0.4 c0,0,0,0,0,0.1c-13.2-0.2-26.4,0.4-39.5,1c-9.9,0.5-19.8,0.5-29.6,1.7c-0.5,0.1-1.1,0.2-1.7,0.3c-0.2-0.4-0.5-1.1-0.9-1.9 c0.8-0.2,1.6-0.3,2.3-0.4c9.9-1.2,19.8-1.3,29.8-1.7c12.7-0.6,25.5-1.2,38.3-1c-0.1-0.4-0.3-0.9-0.6-1.4c-0.7-1.4-1.7-2.9-2.1-3.9 c-0.4-1-0.8-2-1.1-3.1c0-0.2,0-0.6,0-0.8c0,0,0-0.1,0-0.1c-4.4-2.8-7.3-7.3-9.4-12.3c-2.1-5.1-3.5-10.7-4.8-15.4 c-3.5-12-11.1-22.4-15-34.2c-1.6-4.7-3.3-9.7-3.8-14.6c-0.2-2.2,0.2-4.9-0.4-7c-0.1-0.4,0.1-0.9,0.4-1.1c-2.4-4.9-4.8-9.7-7-14.7 c-2.4-0.5-6.6-2.5-8-4.4c-0.3-0.5-0.2-1.1,0.2-1.4s1.1-0.2,1.4,0.2c0.9,1.2,3.2,2.4,5.2,3.1c-1-2.2-2.1-4.4-3.2-6.6 c-0.4-0.8-0.8-1.6-1.2-2.4c-0.1-0.1-0.4-0.9-0.5-1.2l0,0c-0.4-0.4-0.4-1.1,0-1.4c0.2-0.2,0.5-0.3,0.7-0.3c0.2,0,0.4,0.1,0.7,0.3 c0.1,0.1,0.2,0.2,0.3,0.5c0.2,0.4,0.4,1.1,0.5,1.3c0.4,0.8,0.8,1.6,1.2,2.4c1.3,2.7,2.7,5.4,3.9,8.1c2.6,5.9,5.5,11.6,8.3,17.4 c-0.3,0.4-0.6,0.9-0.9,1.4c0.2,1.9,0,3.9,0.1,5.7c0.4,4.8,2.2,9.6,3.7,14.2c3.9,11.8,11.5,22.3,15,34.3c1.4,4.6,2.7,10.2,4.8,15.2 c2,4.7,4.7,9,9,11.6l0-1.5c0.1,0.1,1.4-1,1.5-1.1c2.1-1.6,4.2-3.2,6.3-4.7c4.9-3.5,11.6-5.1,17.1-7.4c6.9-2.8,13.1-4.6,19.3-8.2 c0.1-0.1,0.3-0.1,0.4-0.2c-0.4-0.1-0.7-0.5-0.7-0.9c0-17.1-3.7-34.3-8.2-50.7c-1.5-5.4-2.3-11-4.2-16.3c-0.2-0.5-3.1-7.1-3.2-8.5 c-0.1-0.9,0.5-1.3,0.8-1.4c0.5-0.2,1.1,0.2,1.3,0.7c0,0.2,0.1,0.3,0,0.5c0.3,0.8,2.9,7.5,3.1,8C385.6,284.4,386.4,290,387.9,295.4z M304.3,260.2c-0.2,0.2-0.5,0.3-0.7,0.2C303.8,260.5,304.1,260.4,304.3,260.2z M350.4,372.8L350.4,372.8L350.4,372.8L350.4,372.8z M268.8,311.3c2.1,2.4,7.3,9.7,10.7,10.3c0.9,0.1-0.7-1.6-1-2.4c-0.5-1.5-0.8-3-1.1-4.5c-0.9-3.8-1.1-7.3-0.8-11.1 c-0.8,0.2-1.7,0.2-2.5-0.1c-0.4,0.3-2.5-6-2.7-6.7c-3.1-8.8-3.4-13.4-2.1-22.9c2.2-15.9,5.2-30.9,12.9-45.1 c2.4-4.3,4.7-8.8,8.3-12.3c-0.5-1.6,4-5.3,4.9-6.1c5.8-5,13.7-8.6,18.5-14.5c13.4-16.2,17.5-38,13.7-58.7c-1.6,0.5-4.3-3.8-5.4-5.3 c-4.1-5.5-7.7-15.3-2.6-21.2c8.5-9.7,17.9,6,26.9,1.7c4.2-2,5.3-6.2,6.7-10.2c2.1-6.5,3.8-14.4,7.2-20.3l5.5-8.6 c3.6,2.9,6.1,7.1,7.9,11.6c1.6-3.7,2.5-7.8,3-11.7c1.1-8.5-10.4-17.6-17.2-21c-18.6-9.2-38.3-7.5-57.8-3.1 c-10.2,2.3-21.7,5.2-28.2,14.2c-6.2,8.5-5.9,20.8-6.4,30.9c-0.3,6.8-1.7,13.8-3,20.4c-6.1,29.6-17.5,58-20.5,88.4 c-1.8,19,0.9,37.1,4.2,55.8C251.2,276.4,256.5,297.3,268.8,311.3z M348.7,204.2C348.7,204.2,348.7,204.2,348.7,204.2 C348.6,204.1,348.5,204.1,348.7,204.2z M349.6,198.3c1.1-4.4,2.3-8.9,4-13.2c-3.6-2.9-6.1-6.8-7.6-12.5c-0.6-2.2-2.3-7.1-1-9.2 c0.1-0.1,1.1,0.9,1.2,0.9c0.8,0.6,1.6,1.2,2.5,1.6c3,1.6,5.9,3.7,8.9,5.2c0.8,0.4,1.6,0.7,2.5,0.9c0,0,0,0,0,0 c0.1-0.2,0.2-0.3,0.3-0.2c0.6,0.2,1.4,0.4,2.1,0.6c1.1,5.8,2.5,11.6,3.1,17.5c1,9.6,1.3,20.1-1.2,29.7c-2.7-3.9-5.7-7.8-8.9-11.2 c-1.2-1.3-2.8-2.3-4.4-3.1c-0.6-0.3-2-1-2.4-1.2C349.3,202.7,349.2,199.9,349.6,198.3z M359.8,172.8 C359.8,172.7,359.8,172.7,359.8,172.8C359.8,172.7,359.8,172.7,359.8,172.8z M354.3,183.4c0.3-0.6,0.5-1.2,0.8-1.7 C354.8,182.3,354.6,182.9,354.3,183.4z M368.9,145c0,0-0.2-0.2-0.4-0.3c-0.2-0.2-0.4-0.4-0.6-0.5c-0.6-0.3-1.1-0.2-1.6,0.2 c-0.4,0.4-0.4,1,0,1.4c0.2,0.2,0.5,0.3,0.8,0.3c0.2,0.2,0.7,0.6,1,0.7c1.2,0.5,2.5,1,3.8,1.3c3,0.7,6.2,0.9,9.3,0.8 c-0.1-0.7-0.1-1.4-0.2-2c-2.9,0.1-5.8-0.1-8.7-0.8C371.1,145.9,370,145.5,368.9,145z M233.1,634.3c0.5,0.2,1.1-0.1,1.3-0.6 c8.9-22.9,13.9-45.7,19.7-69.4c0.1-0.5-0.2-1.1-0.8-1.2c-0.5-0.1-1.1,0.2-1.2,0.8c-5.7,23.6-10.7,46.3-19.6,69.2 C232.3,633.6,232.5,634.1,233.1,634.3z M342,883.2c-0.5-0.1-1.1,0.2-1.2,0.7c-6.8,27.1-14.1,54.1-21,81.3 c-2.9,11.4-5.6,22.8-7.7,34.4c-0.8,4.3-1.3,6.9-1.7,11c-0.1,0.6,0.1,1.7,0.2,2.6c0.1,0.6,0.2,1.1,0.2,1.6c-0.2,0.1-0.4,0.2-0.5,0.4 c-0.3,0.5-0.2,1.1,0.3,1.4c0.7,0.5,1.3,0.3,1.6,0.1c0.3-0.2,0.6-0.6,0.6-1.2c0.1-0.6-0.1-1.6-0.2-2.6c-0.1-0.8-0.2-1.7-0.2-2.2 c0.3-4.1,0.8-6.6,1.6-10.8c2.2-11.5,4.8-22.9,7.7-34.3c6.9-27.1,14.3-54.1,21-81.3C342.8,883.9,342.5,883.3,342,883.2z M163.4,824.5 c0.1,0.1,0.3,0.5,0.2,0.9c-0.1,0.6-1.8,3.4-1.8,3.5c-1.9,3.5-3.6,7-5.4,10.5c-5.6,10.9-11,21.9-16.6,32.8 c-14,27.4-29.5,54.1-43.6,81.4c-0.3,0.5-0.9,0.7-1.4,0.4c-0.5-0.3-0.7-0.9-0.4-1.4c14.1-27.3,29.6-54,43.6-81.4 c5.6-10.9,11-21.9,16.6-32.8c1.8-3.5,3.6-7.1,5.5-10.5l1.6-2.9c0-0.5,0.5-1,1-1C162.9,824.1,163.2,824.2,163.4,824.5z M162.5,826.1 c-0.2,0-0.4-0.1-0.5-0.2C162.1,826,162.2,826.1,162.5,826.1z M303.9,950.1c-0.1-0.6-0.6-1-1.1-0.9c-0.6,0.1-1,0.6-0.9,1.1 c1.6,15.3-2.8,33.7-2.4,49.5c0.7,24.5,3.5,50.8,9,75.9c0.7-0.2,1.3-0.4,1.9-0.7c-5.5-24.9-8.3-51-8.9-75.3 C301.1,983.9,305.4,965.5,303.9,950.1z M324.9,619.1c0.2-0.5-0.1-1.1-0.6-1.3c-0.5-0.2-1.1,0.1-1.3,0.6 c-17.8,48.2-13.8,102.5-22,152.6c-16.2,99.9-36.8,195.6-75.4,288.6c0.7,0.1,1.3,0.3,2,0.5c38.6-93,59.2-188.8,75.4-288.7 C311.1,721.4,307.2,667.2,324.9,619.1z M447.7,42.2c1.9,0,4.8-0.3,6.5,0.7c1,0.5,0.9,4.3,1,5.3c0.1,2,0.2,4.1,0,6.2 c-0.1,0.6-0.1,1.2-0.3,1.8c0,0.1-0.5,0.7-0.4,0.8c0.3,0.3,1.8,0.2,2.2,0.2c2.2,0.2,4.4,0.1,6.6,0.4c0.4,0.1,1.9,0.1,2.1,0.4 c-0.1,0.4,0.6,0.5,0.8,0.8c0.7,1,1.6,1.9,2.3,3c1.7,2.7,2.5,6.3,2.9,9.4c0.5,3.9,0.5,8,0.9,11.9c0.1,0.8,0.3,1.7,0.1,2.5 c-0.1,0.2-1,0.9-0.9,1c0.8,0.7,2.5,0.7,3.4,0.8c2.2,0.3,4.4,0.5,6.5,1.3c0.3,0.1,2.3,0.6,2.4,0.8c1-3.4,0.7-7,1-10.5 c0.6-8.6,3.8-21.6,13.6-24.1c5.1-1.3,7.8,7.2,8.4,10.7c0.3,1.6,0.6,3.2,0.4,4.8c0,0.5-0.1,1-0.3,1.4c0,0.1-0.4,0.5-0.3,0.4 c0.4,1,1.4,1.8,2,2.7c1.6,2.4,3.1,5,4.7,7.4c2.6,4.2,5,8.5,7.5,12.7c1.4,2.4,2.4,4.7,3.5,7.3c0.6,1.5,1.3,2.1,1.3,3.7 c0,0.6,0.2,1.4,0.6,2.2c0.2-0.2,0.4-0.4,0.5-0.6c7.2-7,12.1-15.5,15.4-25c4.2-12,9.9-27.6,4.6-40.1c-1.7-4.1-4.8-9-8.3-11.7 c-0.4-0.3-4-2.4-4.2-2.1c0-13.6-11.3-22.3-22.8-26.4c-17.1-6.1-34.9,1.4-50.7,8.5c-8.2,3.7-15.9,7.8-22.3,14.2 c-1.8,1.8-7.3,1.1-9.3,0.6c-1.1-0.3-1.9-2.6-2.7-1.8c-1.1,1.1-0.9,4.8-0.9,6.3c0,6.2,0,11.9,3.5,17.3c0.7,1.1,1.4,2,2.3,2.9 c0.4-2.8,1-6,2.6-7.8l3.5-0.6C440.8,41.5,444.2,42.2,447.7,42.2z M479,146.8c0.2,0.3,0.4,0.6,0.6,0.9c0.7,1,1.5,1.9,2.1,2.9 c1.9,2.9,5.3,5.7,6.7,8.9c0-0.1,0.3-0.7,0.3-0.7c0.2-0.4,0.5-0.8,0.7-1.2c0.7-1.4,1.4-2.7,2.1-4.1c1.8-3.5,3.9-7,6.3-10.1 c0,0,0-0.1,0-0.1c1.7-6.4,2.5-13,3.9-19.5c0.4-2,1.1-4,1.4-6c0.2-1.1,0.2-3.4,0.2-3.4s-0.8,1.1-1.2,1.7c-1,1.3-2,2.5-2.9,3.8 c-2.4,3.5-4.6,7.2-6.9,10.8C489.1,135.8,484.4,141.7,479,146.8z M467.5,259.4c0.1,0.6,0.6,0.9,1.2,0.8c0.4-0.1,0.7-0.3,0.8-0.7 c0.2-0.2,1.1-0.7,1.3-0.8c0.9-0.4,1.8-0.4,2.7-0.4c1.1,0,2.3-0.1,3.4-0.4c7.3-2.3,14.7-4.2,22.2-5.6c-0.7-0.3-1.3-1-2-1.7 c-7.1,1.4-14,3.2-20.9,5.4c-0.9,0.3-1.9,0.3-2.9,0.3c-1.2,0-2.3,0.1-3.4,0.6c-0.3,0.1-1.6,0.8-2.1,1.3 C467.5,258.6,467.4,259,467.5,259.4z M540.6,161.6c-0.6,1.6-1.2,3.1-2.1,4c-0.1,0-0.8,0.2-1.4,0.2c-2.2,0.2-5.4-0.1-6.2-0.1h-2.8 c-0.6,0-1,0.5-1,1c0,0.2,0.1,0.6,0.4,1.1c0.6,0.8,2,2.1,2.3,2.4c1.8,2.4,4.2,4.9,5.6,7.6c-0.1,0.2-0.3,0.4-0.4,0.6 c-0.3,0.4-0.6,0.7-0.7,0.9c-1.4,2.4-2.9,4.7-4.4,7c-5.6,8.6-10,17.9-16.2,26.1c-9.6,12.6-20.2,24.2-29.8,36.7 c0.9-0.1,1.9-0.2,2.8-0.2c9.3-11.9,19.4-23.2,28.6-35.3c6.3-8.2,10.7-17.6,16.3-26.3c1.5-2.3,3-4.7,4.4-7.1c0.2-0.3,0.9-1,1.2-1.6 c0.3-0.6,0.3-1.2,0.2-1.6c-1.5-2.9-4-5.6-6-8.2c-0.1-0.2-0.6-0.7-1.1-1.2h0.6c0.8,0,4.2,0.2,6.4,0.1c0.8-0.1,1.4-0.2,1.9-0.3 c0.3-0.1,0.6-0.3,0.7-0.4c0.9-0.9,1.6-2.2,2.2-3.7c0.8-2,1.5-4.2,2.3-5.6c4.3-7.5,9.1-14.7,14.1-21.7c1.6-2.2,3.3-4.4,5-6.6 c-0.7-0.2-1.4-0.5-2-0.8c-1.6,2-3.2,4.1-4.7,6.2c-5.1,7-9.9,14.3-14.2,21.8C541.9,157.9,541.3,159.8,540.6,161.6z M576.5,966.1 c0,0.6,0.4,1,1,1.1c0.6,0,1-0.4,1.1-1c2.6-63.4-15.4-128-30.3-189.1c-4-16.4-8.7-32.1-11.7-48.8c-0.4-2.1-2.3-8.1-2.6-12.5 c-0.1-0.8,0-1.6,0.1-2.3c0.1-0.5,0.2-0.9,0.5-1.2c0.4-0.4,0.4-1.1,0-1.4c-0.4-0.4-1.1-0.4-1.4,0c-0.9,1-1.2,2.8-1.1,5 c0.3,4.4,2.2,10.6,2.6,12.7c3.1,16.8,7.7,32.5,11.7,48.9C561.1,838.5,579.1,902.9,576.5,966.1z M479.4,292.6 c0.6,0.1,1.1-0.3,1.2-0.8c0.1-0.6-0.3-1.1-0.8-1.2c-6-0.9-11.9-0.8-17.8-1.4c-7.6-0.8-15.3-2-23-2.4c0.1,0.2,0.2,0.5,0.3,0.7 c0.3,0.6,1.4,1,1.7,1.5c6.9,0.5,13.9,1.6,20.7,2.3C467.5,291.8,473.4,291.6,479.4,292.6z M509.5,315.4c-1.8-0.3-4-1.2-5.8-0.1 c-0.4,0.2-0.8,0.5-1.2,0.7c0.1,2.4,1,4.7,3.2,5.4c2.3,0.8,5-3.6,5.8-5.2c0.1-0.2,0.2-0.5,0.3-0.8c-0.1,0.1-0.1,0.2-0.2,0.2 C511.5,315.9,509.8,315.4,509.5,315.4z M620.7,398.4L529.4,345c0.5-0.6,1.2-1.4,1.3-1.5c2.2-2.4,3.5-5.6,4.8-8.6 c4.9-11.6,6.5-25,6-37.4c-0.1-3.8-0.8-7.3-2-10.9c-0.3-1-0.6-2.1-1-3.1c0-0.1-0.1-0.2-0.1-0.2c13.9,3.1,27.3,9.4,40.7,13.7 c3.7,1.2,7.4,2.6,11,4.1c0.2,0.2,0.4,0.3,0.7,0.3c0.8,0.3,1.5,0.7,2.3,1c0.2,0.1,2.8,1.4,4,1.8c0.5,0.1,0.9,0.1,1.1,0 c0.2-0.1,0.4-0.2,0.5-0.4c0.3-0.5,0.2-1.1-0.2-1.4c-0.2-0.2-0.5-0.2-0.8-0.2c-0.2-0.1-0.5-0.2-0.8-0.3c-0.9-0.4-1.9-0.9-2.5-1.2 c2.6-0.3,5.3-0.1,7.9,0.4c1.1,0.2,2,0.6,3,1.1c0.4,0.2,0.9,0.9,1.2,1.2c0.3,0.2,0.5,0.3,0.7,0.4c0.4,0.1,0.8,0,1-0.3 c0.2-0.2,0.4-0.4,0.3-1c0-0.5-0.4-0.9-0.9-0.9c-0.4-0.4-0.9-0.9-1.2-1.1c-1.2-0.7-2.3-1.1-3.6-1.4c-3.9-0.8-7.7-0.8-11.6,0.1 c-3.7-1.6-7.6-3-11.4-4.3c-18-5.8-35.9-14.9-55-15.7c-0.6,0-1,0.4-1.1,1c0,0.6,0.4,1,1,1.1c3.9,0.2,7.7,0.7,11.5,1.4 c0.1,0.4,0.2,0.9,0.4,1.3c0.3,1,0.6,2.1,1,3.1c1.1,3.4,1.7,6.7,1.9,10.3c0.5,12.2-1.1,25.3-5.8,36.6c-1.2,2.8-2.3,5.8-4.4,8 c-0.1,0.1-1.3,1.5-1.5,1.8c-0.1,0-0.1,0.1-0.2,0.1c-1.8-1-5.8-4.1-4.2-11.7c-7.5-2.7-17.1-7.7-17.1-7.7c0,2.5,3,4.6,4.8,6.8 c4.8,5.5,10,10.6,15,15.9c20.4,21.3,45.3,38.4,68,57.1c7.1,5.9,14.7,11.1,21.6,17.3c0.2,0.2,1.7,1.5,3.2,2.7 C617.3,409.2,621,413.7,620.7,398.4z M589.9,614.7c0.8-2.7,1.5-5.3,2.1-7.9c4.7-18.7,6.3-40.8,6.6-60.8 c-77.8,9.9-124.5-21-135.4-29.3c-0.4-11.9,0.1-23.7,0-35.8c-0.4-32.5-0.7-64.7-0.3-97.2c0.1-12.8,0.9-25.6,1.5-38.4 c0.2-3.6,0.1-7.1,0.1-10.6c-0.7,0.7-1.4,1.3-2,2c0,2.9,0,5.7-0.1,8.6c-0.7,12.8-1.4,25.6-1.5,38.5c-0.4,32.5-0.1,64.7,0.3,97.2 c0.1,11.5-0.3,22.8,0,34.1c-0.3-0.2-0.4-0.3-0.4-0.3l-16.8-4.3c0.6,1,1.7,1.8,3,2.2c-0.7,5-1.4,10-2.1,15L589.9,614.7z M599.4,978 c-1.2-3.7-1.7-7.6-2.5-11.4c-2.3,0.4-4.7,0.6-6.2,1c-1.4,0.4-2.8,0.8-4.2,1.2c-0.7,0.2-1.4,0.4-2.1,0.6c-0.7,0.2-1.4,0.4-2.1,0.6 c-1.1,0.3-2.3,0.6-3.4,0.9c-0.2,0-0.4,0.1-0.6,0.1c-6.8,1.7-13.8,3.4-20.6,5.3c0,0,0,0,0.1,0c-0.8,0.2-1.6,0.4-2.5,0.7 c2,14.1,3.8,28.1,3,42.4c0.4,0,0.8,0,1.2,0c9.9-0.2,19.8-0.5,29.6-1.7c4.8-0.6,12-0.1,16.3-2.5c2-1.1,1.1-7.9,0.9-9.5 C605.2,995.8,602.3,987.4,599.4,978z M441.9,128.6c1.2-0.4,2.4-1,3.6-1.6c3.8-1.9,7.2-4.6,10.6-7.1c0.5-0.3,0.5-1,0.2-1.4 c-0.3-0.5-1-0.5-1.4-0.2c-3.3,2.5-6.6,5-10.3,6.9c-1.1,0.5-2.1,1.2-3.2,1.5C441.5,127.3,441.7,128,441.9,128.6z M487.9,196 c0.4-3.7,0-8.2,1.4-11.6c0.1-0.3,1.5-0.5,1.8-0.6c1.6-0.6,3.7-0.7,5.2-1.5c0.8-0.4,1.4-2.7,1.7-3.4c1.1-3.2,3-6.8,3.1-10.2 c0.2-6.1-10.2-6.3-14.4-5.9c-1.5,0.2-3.1,0.6-4.5,1.2c-0.2,0.1-1.3,0.4-1.2,0.7l-1.2,3.7c-0.2,0.5-0.4,1-0.6,1.6 c0,0.5-0.8,2.8-1,3.8c-0.2,1.1-0.4,2.1-0.5,3.2c-0.1,0.9-0.1,1.9,0,2.9c0.1,1.3,0.6,2.4,0.8,3.7c0,0.3,0.6,0.8,0.4,1.1 c-1.8,3.6-1.7,8.5-2.6,12.4c-2,9.3-2.7,18.9-2.9,28.4c-0.1,4.1-0.4,8.2-0.1,12.2c0.9-0.2,1.9-0.3,2.8,0c4.6,1.4,0.5,5.5-2.4,8.1 c0,0.3,0,0.7,0,1c2.2,0.2,4.2,1.5,6,2.9c0.5-1.9,1.1-3.7,1.6-5.6c1.5-5.1,3-10.2,4.7-15.3c0-2,0-4.1,0-6.1 C486.3,213.7,487.1,204.9,487.9,196z" fill="inherit" fill-rule="evenodd"/></g></svg>