<svg width="45" height="49" viewBox="0 0 45 49" fill="none" xmlns="http://www.w3.org/2000/svg">
<path d="M41.3116 14.4899H40.0955V1.06159C40.0955 0.475137 39.6203 0 39.0339 0H6.18983C5.60338 0 5.12824 0.475157 5.12824 1.06159V14.4899H3.68917C1.65505 14.4899 0.000389157 16.145 0.000389157 18.1787L0 44.7684C0 46.8025 1.65505 48.4572 3.68878 48.4572H41.3108C43.3449 48.4572 44.9996 46.8021 44.9996 44.7684L45 18.1787C45 16.1446 43.3449 14.4899 41.3112 14.4899H41.3116ZM27.4938 30.9438L39.5483 23.0463C39.5942 23.0207 39.6382 22.9923 39.6798 22.9603L42.8767 20.8659V44.6263L27.4938 30.9438ZM41.3116 16.6129C42.1748 16.6129 42.8772 17.3153 42.8772 18.1785V18.3264L40.0955 20.1488V16.613L41.3116 16.6129ZM37.9715 2.12259V21.5393L25.8493 29.4817L23.2049 27.13C22.8029 26.7724 22.1962 26.772 21.7939 27.13L19.1495 29.4817L7.25143 21.6857V2.12249L37.9715 2.12259ZM2.12278 44.6262V20.8659L17.5057 30.9438L2.12278 44.6262ZM3.68837 16.6129H5.12744V20.2943L2.12278 18.3256V18.1777C2.12278 17.3157 2.8256 16.6129 3.68837 16.6129ZM3.68837 46.3338C3.59887 46.3338 3.51287 46.3217 3.42803 46.3077L19.9587 31.6052C19.9598 31.6048 19.9602 31.6036 19.9614 31.6028L22.5002 29.345L41.5712 46.307C41.486 46.3214 41.4 46.333 41.3109 46.333L3.68837 46.3338ZM19.7826 21.3909C20.5672 22.0746 21.3081 22.7203 21.8725 23.2674C22.0787 23.467 22.3449 23.5667 22.6119 23.5667C22.8788 23.5667 23.1454 23.467 23.3513 23.2674C23.9155 22.7203 24.6561 22.0746 25.4411 21.3917C28.8306 18.4387 33.0483 14.764 33.2129 10.8614C33.2772 9.32621 32.7035 7.92171 31.5057 6.68617C30.0301 5.16461 28.2624 4.52054 26.3938 4.82559C25.1383 5.0299 23.8456 5.6685 22.6119 6.68737C21.3783 5.66931 20.0848 5.03072 18.8301 4.82559C16.963 4.52049 15.1942 5.16416 13.7182 6.68617C12.5211 7.92131 11.9468 9.32581 12.011 10.8614C12.1748 14.7627 16.3932 18.4375 19.7828 21.3907L19.7826 21.3909ZM15.2424 8.1638C16.2409 7.13448 17.3014 6.72821 18.4879 6.92119C19.5663 7.09708 20.736 7.77227 21.8725 8.87402C22.2846 9.27368 22.9387 9.27368 23.3509 8.87402C24.4872 7.77227 25.657 7.09712 26.7354 6.92119C27.9211 6.72661 28.9824 7.13483 29.981 8.1638C30.7678 8.97519 31.1309 9.82822 31.0913 10.7712C30.9656 13.7615 26.9662 17.2455 24.0464 19.7898C23.5412 20.2292 23.0548 20.6542 22.6123 21.0539C22.1698 20.6542 21.6834 20.2296 21.1782 19.7898C18.2583 17.2455 14.259 13.7622 14.1333 10.7712C14.0928 9.82784 14.4559 8.97484 15.2424 8.1638Z" fill="black"/>
</svg>
