<svg width="49" height="35" viewBox="0 0 49 35" fill="none" xmlns="http://www.w3.org/2000/svg">
<path d="M48.6101 4.6069C48.6109 3.66015 48.3185 2.73659 47.7727 1.96263C47.6941 1.72604 47.5297 1.52742 47.3117 1.40589C46.4458 0.50699 45.2511 -0.000388655 44.0032 2.23376e-07H4.60694C3.38567 0.00151918 2.21447 0.487236 1.35087 1.35116C0.487284 2.21474 0.00155551 3.38557 0 4.60684V30.3924C0.00113932 31.614 0.486856 32.7849 1.35087 33.6488C2.21445 34.5124 3.38528 34.9985 4.60694 35H44.0032C45.2511 35.0004 46.4451 34.493 47.3113 33.5949C47.5293 33.473 47.6941 33.274 47.7727 33.0366C48.3188 32.2631 48.6112 31.3391 48.6101 30.3924L48.6101 4.6069ZM31.9457 17.5002L46.5179 3.9322C46.5772 4.15246 46.6072 4.37919 46.6072 4.60704V30.3926C46.6072 30.6208 46.5772 30.8479 46.5179 31.0682L31.9457 17.5002ZM44.0038 2.00239C44.4539 2.00239 44.8967 2.11936 45.2878 2.34228L26.4292 19.9021C25.8656 20.3859 25.1448 20.6472 24.4023 20.6373C23.6595 20.6274 22.9463 20.3464 22.396 19.8478L3.49558 2.25298C3.84306 2.0874 4.22321 2.00195 4.60787 2.00233L44.0038 2.00239ZM2.15278 31.2616C2.05404 30.9825 2.00353 30.6889 2.00392 30.3931V4.60753C2.00354 4.31207 2.05405 4.01851 2.15278 3.73976L16.9311 17.5012L2.15278 31.2616ZM4.60835 32.9982C4.22365 32.9986 3.84351 32.9131 3.49606 32.7476L18.3998 18.8685L21.0289 21.3183C21.9647 22.1785 23.1909 22.6529 24.4617 22.6468C25.6928 22.6566 26.8822 22.1998 27.7903 21.3685L30.4759 18.8685L45.2883 32.6581C44.8972 32.8811 44.4544 32.998 44.0043 32.998L4.60835 32.9982Z" fill="black"/>
</svg>
