<?xml version="1.0" encoding="UTF-8"?>
<svg id="Layer_3" data-name="Layer 3" xmlns="http://www.w3.org/2000/svg" viewBox="0 0 367 164">
  <defs>
    <style>
      .cls-1 {
        fill: #000;
      }

      .cls-2 {
        fill: #ca981f;
      }

      .cls-3 {
        fill: none;
      }

      .cls-4 {
        fill: #231f20;
      }
    </style>
  </defs>
  <g>
    <path class="cls-1" d="m153.48,89.69c-.57.83-1.26,1.61-2.06,2.34s-1.68,1.35-2.63,1.88c-.95.53-1.95.94-2.99,1.25-1.04.31-2.09.46-3.14.46-1.49,0-2.88-.19-4.18-.58-1.29-.38-2.42-.97-3.39-1.76-.97-.79-1.72-1.78-2.27-2.98-.55-1.2-.82-2.59-.82-4.19s.29-3.05.87-4.42c.58-1.37,1.38-2.57,2.4-3.59,1.02-1.02,2.22-1.83,3.6-2.42s2.86-.89,4.44-.89c.75,0,1.44.1,2.09.31.65.21,1.21.52,1.69.92.48.41.86.9,1.14,1.5.27.59.41,1.27.41,2.04,0,.92-.19,1.73-.56,2.43-.37.7-.87,1.32-1.48,1.84s-1.31.97-2.09,1.32c-.78.35-1.59.64-2.43.86-.84.22-1.68.38-2.5.48-.82.1-1.57.15-2.25.15h-.79c.28,2,1.07,3.52,2.37,4.57,1.29,1.05,3.08,1.58,5.36,1.58,1.62,0,3.21-.28,4.75-.86,1.55-.57,2.94-1.36,4.19-2.37l.26.13Zm-17.04-4.05h.82c.79,0,1.6-.13,2.44-.38.83-.25,1.58-.63,2.25-1.12s1.22-1.1,1.66-1.83c.44-.72.66-1.55.66-2.47s-.19-1.64-.58-2.24c-.38-.59-1.05-.89-1.99-.89s-1.78.29-2.45.87c-.67.58-1.21,1.29-1.63,2.14-.42.84-.72,1.73-.9,2.66-.19.93-.28,1.76-.28,2.48v.76Z"/>
    <path class="cls-1" d="m172.84,74.92c0,1.12-.14,2.4-.41,3.85s-.66,2.94-1.17,4.47c-.5,1.54-1.1,3.04-1.79,4.52-.69,1.48-1.46,2.8-2.3,3.96-.84,1.16-1.75,2.1-2.71,2.81s-1.96,1.07-2.99,1.07c-.64,0-1.23-.3-1.78-.89-.55-.59-1.04-1.29-1.46-2.11-.43-.81-.8-1.63-1.1-2.47-.31-.83-.55-1.48-.72-1.94-.46-1.32-.87-2.63-1.22-3.95-.35-1.32-.68-2.65-.99-4.01-.02-.09-.05-.26-.1-.51-.04-.25-.1-.51-.18-.77-.08-.26-.16-.5-.26-.71-.1-.21-.19-.31-.28-.31-.2,0-.42.03-.67.1s-.5.15-.74.25-.48.2-.71.31c-.23.11-.42.21-.58.3l-.26-.33c.26-.26.62-.57,1.09-.92.46-.35.94-.67,1.45-.97.5-.3,1.02-.55,1.55-.76.53-.21.99-.31,1.38-.31.53,0,.97.23,1.33.67.36.45.68,1.05.95,1.81s.53,1.65.76,2.68c.23,1.03.48,2.12.74,3.26.04.18.13.53.26,1.05s.3,1.13.49,1.83.41,1.42.64,2.19c.23.77.47,1.46.72,2.09s.5,1.15.74,1.56c.24.42.47.63.69.63.61,0,1.19-.22,1.73-.67.54-.45,1.04-1.05,1.51-1.79.47-.75.89-1.58,1.27-2.52.37-.93.69-1.88.95-2.85.26-.96.47-1.9.61-2.8.14-.9.21-1.69.21-2.37,0-1.27-.13-2.54-.39-3.8-.26-1.26-.67-2.38-1.23-3.36-.56-.98-1.27-1.74-2.14-2.29-.87-.55-1.89-.73-3.08-.56l-.1-.3c.68-.28,1.37-.5,2.07-.66.7-.15,1.4-.23,2.11-.23,1.89,0,3.38.47,4.47,1.41,1.1.94,1.64,2.38,1.64,4.31Z"/>
    <path class="cls-1" d="m192.59,89.69c-.5.83-1.1,1.6-1.79,2.29-.69.69-1.45,1.29-2.27,1.81-.82.52-1.7.92-2.63,1.2-.93.28-1.89.43-2.88.43-1.23,0-2.32-.21-3.27-.63-.95-.42-1.75-.99-2.4-1.73-.65-.73-1.14-1.6-1.48-2.6-.34-1-.51-2.09-.51-3.27,0-1.27.19-2.48.56-3.62.37-1.14.89-2.21,1.55-3.21.66-1,1.43-1.91,2.32-2.75.89-.83,1.84-1.58,2.85-2.24l.39.3c-1.08,1.27-1.95,2.7-2.62,4.28s-1,3.22-1,4.93c0,.99.12,1.94.35,2.85.23.91.59,1.72,1.09,2.42.49.7,1.12,1.26,1.89,1.68.77.42,1.7.63,2.8.63,1.29,0,2.53-.27,3.7-.82,1.17-.55,2.23-1.24,3.17-2.07l.2.13Zm-9.21-21.84c0,.44-.1.88-.3,1.32-.2.44-.45.83-.77,1.17-.32.34-.69.62-1.1.84-.42.22-.84.33-1.28.33-.57,0-1.03-.19-1.37-.56-.34-.37-.51-.84-.51-1.41,0-.44.1-.87.3-1.3.2-.43.46-.81.77-1.13.32-.33.68-.6,1.09-.81.41-.21.83-.31,1.27-.31.57,0,1.03.18,1.38.53.35.35.53.8.53,1.35Z"/>
    <path class="cls-1" d="m213.26,89.69c-.48.81-1.05,1.57-1.69,2.27-.65.7-1.36,1.32-2.14,1.84s-1.62.94-2.52,1.23-1.83.44-2.8.44c-1.43,0-2.68-.24-3.77-.72-1.09-.48-2.02-1.13-2.81-1.96s-1.45-1.78-1.97-2.88c-.53-1.1-.94-2.24-1.25-3.44-.31-1.2-.53-2.42-.66-3.67s-.2-2.45-.2-3.59c0-1.05.04-2.13.13-3.24.09-1.11.22-2.24.39-3.4-.68.02-1.34.03-1.99.03h-1.92c-.42,0-.89-.01-1.41-.03-.53-.02-1.02-.11-1.48-.26-.46-.15-.84-.38-1.15-.69-.31-.31-.46-.76-.46-1.35,0-.33.06-.59.18-.79.12-.2.29-.35.49-.44s.45-.16.72-.2.55-.05.84-.05c.33,0,1.11.05,2.34.16,1.23.11,2.71.23,4.44.36.55-2.59,1.26-5.13,2.12-7.63.87-2.5,1.85-4.78,2.94-6.84h.46c-.7,2.39-1.32,4.8-1.86,7.24s-.94,4.9-1.2,7.4c1.6.11,3.25.2,4.95.28,1.7.08,3.36.12,4.98.12,2.39,0,4.33-.02,5.82-.07,1.49-.04,2.66-.1,3.52-.16,1.01-.09,1.76-.18,2.27-.26l.13.56c-1.32.31-2.82.6-4.51.87-1.69.27-3.49.52-5.4.72-1.91.21-3.88.39-5.92.54-2.04.15-4.07.27-6.09.36-.04.44-.07.88-.07,1.33v1.33c0,1.05.05,2.22.15,3.49.1,1.27.28,2.55.54,3.83s.62,2.53,1.07,3.75,1.04,2.29,1.78,3.22c.73.93,1.62,1.68,2.65,2.25,1.03.57,2.25.86,3.65.86,1.29,0,2.46-.28,3.5-.86,1.04-.57,2.03-1.27,2.98-2.11l.2.13Z"/>
    <path class="cls-1" d="m233.01,89.69c-.57.83-1.26,1.61-2.06,2.34s-1.68,1.35-2.63,1.88c-.95.53-1.95.94-2.99,1.25-1.04.31-2.09.46-3.14.46-1.49,0-2.88-.19-4.18-.58-1.29-.38-2.42-.97-3.39-1.76-.97-.79-1.72-1.78-2.27-2.98-.55-1.2-.82-2.59-.82-4.19s.29-3.05.87-4.42c.58-1.37,1.38-2.57,2.4-3.59,1.02-1.02,2.22-1.83,3.6-2.42s2.86-.89,4.44-.89c.75,0,1.44.1,2.09.31.65.21,1.21.52,1.69.92.48.41.86.9,1.14,1.5.27.59.41,1.27.41,2.04,0,.92-.19,1.73-.56,2.43-.37.7-.87,1.32-1.48,1.84s-1.31.97-2.09,1.32c-.78.35-1.59.64-2.43.86-.84.22-1.68.38-2.5.48-.82.1-1.57.15-2.25.15h-.79c.28,2,1.07,3.52,2.37,4.57,1.29,1.05,3.08,1.58,5.36,1.58,1.62,0,3.21-.28,4.75-.86,1.55-.57,2.94-1.36,4.19-2.37l.26.13Zm-17.04-4.05h.82c.79,0,1.6-.13,2.44-.38.83-.25,1.58-.63,2.25-1.12s1.22-1.1,1.66-1.83c.44-.72.66-1.55.66-2.47s-.19-1.64-.58-2.24c-.38-.59-1.05-.89-1.99-.89s-1.78.29-2.45.87c-.67.58-1.21,1.29-1.63,2.14-.42.84-.72,1.73-.9,2.66-.19.93-.28,1.76-.28,2.48v.76Z"/>
    <path class="cls-1" d="m265.77,104.5c0,1.78-.21,3.59-.62,5.44-.42,1.85-1.08,3.56-1.97,5.12-.9,1.56-2.06,2.87-3.47,3.95-1.42,1.07-3.12,1.74-5.12,2.01-.2.04-.38.08-.56.1-.18.02-.37.03-.59.03-1.21,0-2.35-.24-3.42-.72-1.08-.48-2.01-1.13-2.81-1.96s-1.43-1.78-1.89-2.86c-.46-1.09-.69-2.22-.69-3.4,0-1.32.27-2.58.81-3.78.54-1.21,1.24-2.32,2.12-3.34.88-1.02,1.87-1.92,2.98-2.7,1.11-.78,2.24-1.4,3.4-1.86l.2.43c-2.13,1.14-3.77,2.71-4.94,4.7-1.16,2-1.74,4.2-1.74,6.61,0,.99.14,1.95.41,2.88.27.93.68,1.75,1.23,2.45.55.7,1.23,1.27,2.06,1.69.82.43,1.77.64,2.85.64,1.51,0,2.77-.39,3.78-1.18,1.01-.79,1.81-1.78,2.42-2.96s1.03-2.47,1.28-3.87c.25-1.39.38-2.69.38-3.9,0-1.05-.07-2.08-.2-3.09-.13-1.01-.27-2.01-.41-3.01-.14-1-.28-2-.41-3.01-.13-1.01-.2-2.04-.2-3.09,0-.75.03-1.51.08-2.3s.16-1.59.31-2.4c-.97,1.14-2.08,2.11-3.34,2.91s-2.62,1.2-4.06,1.2c-.9,0-1.71-.17-2.42-.51-.71-.34-1.32-.79-1.81-1.37-.49-.57-.87-1.24-1.12-2.02-.25-.78-.38-1.6-.38-2.45,0-.99.16-2.01.48-3.08.32-1.06.76-2.09,1.32-3.09.56-1,1.22-1.94,1.99-2.83s1.61-1.67,2.52-2.34c.91-.67,1.87-1.2,2.88-1.58,1.01-.38,2.04-.58,3.09-.58.53,0,1.06.07,1.59.21.54.14,1.03.36,1.48.64.45.29.81.65,1.09,1.09.27.44.41.97.41,1.58,0,.44-.1.83-.3,1.18-.2.35-.45.66-.76.94-.31.27-.65.52-1.02.74-.37.22-.74.41-1.09.56l-.13-.39c.17-.2.3-.44.36-.72.07-.28.1-.56.1-.82,0-.39-.06-.79-.18-1.2-.12-.41-.3-.78-.53-1.12-.23-.34-.52-.62-.87-.84-.35-.22-.75-.33-1.18-.33-1.12,0-2.13.3-3.03.9-.9.6-1.66,1.37-2.29,2.29-.63.92-1.11,1.92-1.45,3.01-.34,1.09-.51,2.11-.51,3.08,0,.64.06,1.28.18,1.94.12.66.32,1.25.61,1.78.28.53.67.96,1.17,1.3.49.34,1.12.51,1.89.51,1.18,0,2.28-.31,3.29-.94,1.01-.63,1.91-1.37,2.7-2.22.31-.88.71-1.71,1.2-2.48.49-.78,1.1-1.45,1.83-2.02l.56.39c-.51.81-.83,1.73-.99,2.76-.15,1.03-.23,2.04-.23,3.03,0,1.16.09,2.32.26,3.49.17,1.16.37,2.34.58,3.52s.4,2.38.58,3.59c.18,1.21.26,2.43.26,3.68Z"/>
    <path class="cls-1" d="m295.82,89.69c-.37.77-.88,1.5-1.51,2.2-.64.7-1.35,1.33-2.14,1.89s-1.62,1-2.5,1.33c-.88.33-1.74.49-2.6.49-1.18,0-2.17-.36-2.94-1.07-.78-.71-1.36-1.57-1.73-2.58-.86.86-1.8,1.56-2.83,2.12-1.03.56-2.17.84-3.42.84-1.12,0-2.11-.2-2.98-.61s-1.58-.96-2.15-1.66c-.57-.7-1-1.51-1.3-2.43-.3-.92-.44-1.91-.44-2.96,0-1.18.16-2.34.49-3.47.33-1.13.79-2.2,1.38-3.22s1.29-1.97,2.11-2.85c.81-.88,1.69-1.66,2.63-2.34l.39.3c-.92,1.32-1.66,2.77-2.2,4.36-.55,1.59-.82,3.21-.82,4.85,0,.7.08,1.45.23,2.24.15.79.4,1.52.76,2.2.35.68.82,1.24,1.4,1.69.58.45,1.31.67,2.19.67.74,0,1.46-.13,2.14-.38.68-.25,1.34-.6,1.97-1.04-.04-.26-.08-.52-.1-.77-.02-.25-.03-.51-.03-.77,0-1.05.15-2.19.46-3.42.31-1.23.71-2.45,1.22-3.67.5-1.22,1.08-2.38,1.73-3.49.65-1.11,1.31-2.06,1.99-2.85l.39.3c-.5,1.69-.92,3.43-1.25,5.23-.33,1.8-.49,3.58-.49,5.33,0,.79.05,1.55.15,2.29.1.74.31,1.39.63,1.97.32.58.76,1.04,1.33,1.38.57.34,1.33.51,2.27.51,1.05,0,2.04-.27,2.96-.81.92-.54,1.73-1.19,2.43-1.96l.2.13Z"/>
    <path class="cls-1" d="m319.72,89.69c-.39.88-.89,1.67-1.5,2.37-.6.7-1.26,1.3-1.96,1.79s-1.43.88-2.17,1.15c-.75.27-1.46.41-2.14.41-1.27,0-2.35-.22-3.22-.66-.88-.44-1.59-1.03-2.14-1.78-.55-.75-.94-1.62-1.18-2.63-.24-1.01-.36-2.08-.36-3.22,0-.88.07-1.79.2-2.73.13-.94.32-1.85.56-2.73.04-.13.09-.29.13-.48.04-.19.06-.35.06-.48,0-.11-.06-.2-.2-.26-.37-.13-.77-.26-1.18-.38-.42-.12-.83-.26-1.23-.41-.41-.15-.79-.33-1.15-.53-.36-.2-.67-.45-.94-.76-.02,1.32-.24,2.65-.66,4-.42,1.35-.97,2.64-1.66,3.88-.69,1.24-1.5,2.4-2.42,3.47-.92,1.07-1.9,2.01-2.93,2.8l-.33-.33c.64-.7,1.22-1.53,1.74-2.5.53-.96.98-1.97,1.35-3.03s.66-2.12.87-3.19c.21-1.07.31-2.08.31-3.03,0-.48-.04-.94-.13-1.37s-.18-.84-.28-1.23c-.1-.39-.19-.77-.28-1.13-.09-.36-.13-.73-.13-1.1,0-.61.2-1.1.59-1.45.39-.35.9-.53,1.51-.53.33,0,.58.09.76.28.17.19.33.41.46.67s.28.54.46.82c.17.29.43.53.76.72.42.24.94.42,1.58.53.64.11,1.3.21,2.01.3.7.09,1.4.18,2.11.26.7.09,1.33.24,1.89.44.56.21,1.01.49,1.37.86.35.36.53.85.53,1.46,0,.31-.03.61-.08.9s-.14.58-.25.84c-.26.92-.49,1.86-.67,2.81s-.28,1.9-.28,2.85c0,.81.06,1.55.18,2.22.12.67.35,1.24.67,1.73.33.48.77.86,1.32,1.12s1.25.39,2.11.39c1.23,0,2.3-.3,3.22-.9.92-.6,1.73-1.4,2.43-2.39l.3.13Z"/>
    <path class="cls-1" d="m345,89.69c-.37.77-.88,1.5-1.51,2.2-.64.7-1.35,1.33-2.14,1.89s-1.62,1-2.5,1.33c-.88.33-1.74.49-2.6.49-1.18,0-2.17-.36-2.94-1.07-.78-.71-1.36-1.57-1.73-2.58-.86.86-1.8,1.56-2.83,2.12-1.03.56-2.17.84-3.42.84-1.12,0-2.11-.2-2.98-.61s-1.58-.96-2.15-1.66c-.57-.7-1-1.51-1.3-2.43-.3-.92-.44-1.91-.44-2.96,0-1.18.16-2.34.49-3.47.33-1.13.79-2.2,1.38-3.22s1.29-1.97,2.11-2.85c.81-.88,1.69-1.66,2.63-2.34l.39.3c-.92,1.32-1.66,2.77-2.2,4.36-.55,1.59-.82,3.21-.82,4.85,0,.7.08,1.45.23,2.24.15.79.4,1.52.76,2.2.35.68.82,1.24,1.4,1.69.58.45,1.31.67,2.19.67.74,0,1.46-.13,2.14-.38.68-.25,1.34-.6,1.97-1.04-.04-.26-.08-.52-.1-.77-.02-.25-.03-.51-.03-.77,0-1.05.15-2.19.46-3.42.31-1.23.71-2.45,1.22-3.67.5-1.22,1.08-2.38,1.73-3.49.65-1.11,1.31-2.06,1.99-2.85l.39.3c-.5,1.69-.92,3.43-1.25,5.23-.33,1.8-.49,3.58-.49,5.33,0,.79.05,1.55.15,2.29.1.74.31,1.39.63,1.97.32.58.76,1.04,1.33,1.38.57.34,1.33.51,2.27.51,1.05,0,2.04-.27,2.96-.81.92-.54,1.73-1.19,2.43-1.96l.2.13Z"/>
  </g>
  <g>
    <g>
      <path class="cls-1" d="m82.44,52.58c2.89,1.86,6.03,2.29,9.35,1.52,1.02-.28,2.08-.77,3.3-1.52.26,2.84-3.23,5.15-6.35,4.94-3.02.06-6.59-2.09-6.3-4.94h0Z"/>
      <path class="cls-1" d="m58.43,52.58c2.89,1.86,6.03,2.29,9.35,1.52,1.02-.28,2.08-.77,3.3-1.52.26,2.84-3.23,5.15-6.35,4.94-3.02.06-6.59-2.09-6.3-4.94h0Z"/>
    </g>
    <polygon class="cls-4" points="60.6 131.42 60.6 131.42 60.6 131.42 60.6 131.42"/>
    <path class="cls-1" d="m89.08,87.73c-1.97.93-3.85,1.97-5.7,3.06-1.27.74-2.5,1.53-3.73,2.33-1.47,1.07-2.76,1.81-4.43,1.05-3.55-2.24-7.23-4.59-11.13-6.41-.27.15-.51.34-.72.56,2.62,2.69,5.44,5.08,8.4,7.37.64.46,1.23,1,2.01,1.4,2.13,1.13,5,.78,6.81-.76,1.45-1.1,2.91-2.25,4.3-3.43,1.71-1.45,3.38-2.96,4.96-4.6-.22-.23-.48-.43-.76-.58Z"/>
    <polygon class="cls-2" points="59.21 98.23 59.21 98.23 59.21 98.22 59.21 98.23"/>
    <path class="cls-1" d="m94.02,90.46c0-3.55-2.89-6.44-6.44-6.44h-21.94c-3.55,0-6.44,2.89-6.44,6.44v2.22c1.01,1.62,2.1,3.07,3.31,4.35v-6.57c0-.83.33-1.58.86-2.14.21-.22.45-.41.72-.56.46-.27.99-.43,1.55-.43h21.94c.55,0,1.05.15,1.5.4.28.16.54.35.76.58.53.56.87,1.32.87,2.17l.08,7.29c1.2-1.18,2.28-2.5,3.26-3.92l-.04-3.39Z"/>
    <path class="cls-1" d="m58.13,90.86c-1.2-2.12-2.28-4.36-3.37-6.73-.47,4.97,1.28,10.21,4.44,14.1,0,0,0,0,0,0,3.61,4.44,9.07,7.1,15.18,5.53-5.01-1.21-8.81-3.44-11.88-6.72-1.2-1.29-2.3-2.74-3.31-4.35-.37-.59-.73-1.19-1.07-1.82Z"/>
    <path class="cls-1" d="m99.28,84.13c-1.62,3.59-3.25,6.88-5.23,9.73-.99,1.42-2.06,2.73-3.26,3.92-2.82,2.78-6.35,4.85-11.14,5.98,11.43,2.97,20.62-8.97,19.63-19.63Z"/>
    <path class="cls-3" d="m77.76,73.84c7.34,0,14.16-3.13,18.93-8.43h0s0,0,0,0c1.44-1.6,2.7-3.38,3.72-5.35l.79-1.52,1.49.84c.41.23.84.35,1.27.35,1.74,0,3.15-1.77,3.15-3.95,0-1.89-1.12-3.56-2.62-3.89l-1.4-.3.1-1.43c.05-.69.07-1.27.07-1.81,0-14.06-11.44-25.5-25.5-25.5s-25.5,11.44-25.5,25.5c0,.56.02,1.15.07,1.85l.1,1.38-1.34.34c-1.46.38-2.52,2-2.52,3.87,0,2.18,1.41,3.95,3.15,3.95.41,0,.81-.1,1.19-.3l1.46-.76.77,1.47c4.42,8.46,13.08,13.72,22.61,13.72Z"/>
    <path class="cls-3" d="m80.03,116.01h-4.13c-9.44,0-16.23-1.49-21.13-3.86-2.93-1.42-5.17-3.15-6.9-5.07-6.34,2.13-10.8,7.1-10.8,12.88,0,7.7,7.91,13.96,17.64,13.98-.05,0-.08,0-.1,0,0,0-.01,0-.02,0,.06,0,.11-.01.17-.01.83-.04,1.87,0,2.68-.1.48-.05,1.6-.18,2.06-.24.32-.05.64-.12.96-.18,11.21-2.07,21.77-6.78,32.81-9.59,1.56-.38,3.19-.69,4.8-.79.3-.02.61-.04.91-.05-3.64.34-7.09,1.71-10.49,2.99-.18.07-.35.13-.53.2-5.3,2.07-10.51,4.35-15.82,6.39,1.49-.08,2.8-.12,3.8-.12,2.43,0,5.3.27,8.63.59,4.25.4,9.04.85,14.41.89.06,0,.12,0,.19,0,9.67-.08,17.51-6.32,17.51-13.98,0-5.28-3.73-9.89-9.21-12.27-2.07,2.11-4.82,3.96-8.48,5.39-4.68,1.82-10.84,2.93-18.97,2.93Z"/>
    <path class="cls-3" d="m51.65,106.21c.9.8,1.94,1.54,3.12,2.22,4.51,2.6,11.18,4.27,21.13,4.27h4.13c8.46,0,14.56-1.21,18.97-3.17,1.94-.87,3.56-1.88,4.9-3,1.01-.85,1.87-1.75,2.59-2.71,3.95-5.22,3.96-11.79,3.96-17.02,0-8.45-9.04-15.76-12.29-18.11-5.32,5.34-12.59,8.45-20.39,8.45s-15.01-3.09-20.33-8.39c-3.31,2.44-11.96,9.63-11.96,18.06,0,5.06,0,11.39,3.6,16.52.71,1.01,1.55,1.98,2.57,2.88Z"/>
    <path class="cls-1" d="m109.64,105.08c-.62.9-1.34,1.78-2.16,2.61,5.49,2.38,9.21,6.98,9.21,12.27,0,7.66-7.84,13.9-17.51,13.98-.06,0-.12,0-.19,0-5.37-.05-10.16-.49-14.41-.89-3.33-.31-6.2-.59-8.63-.59-1,0-2.32.05-3.8.12,5.31-2.05,10.52-4.32,15.82-6.39.18-.07.35-.13.53-.2,3.4-1.28,6.85-2.65,10.49-2.99-.3,0-.61.03-.91.05-1.62.1-3.24.41-4.8.79-11.04,2.81-21.6,7.52-32.81,9.59-.32.06-.64.12-.96.18-.46.05-1.57.18-2.06.24-.82.11-1.85.06-2.68.1-.06,0-.12,0-.17.01,0,0,.01,0,.02,0,.02,0,.05,0,.1,0-9.73-.02-17.64-6.29-17.64-13.98,0-5.78,4.46-10.75,10.8-12.88-.79-.88-1.48-1.79-2.06-2.74-7.11,2.77-12.05,8.72-12.05,15.62,0,9.53,9.42,17.29,20.99,17.29l.81-.07c.27-.02.54-.04.81-.07,4-.36,15.17-1.35,19.58-1.35,2.27,0,5.07.26,8.32.57,4.3.41,9.14.86,14.62.91.09,0,.19,0,.28,0,.25,0,.49,0,.74,0,.14,0,.27-.02.4-.06,10.96-.57,19.68-8.07,19.68-17.24,0-6.34-4.17-11.87-10.36-14.88Z"/>
    <path class="cls-1" d="m54.76,112.15c4.9,2.37,11.69,3.86,21.13,3.86h4.13c8.13,0,14.29-1.11,18.97-2.93,3.66-1.42,6.42-3.28,8.48-5.39.82-.84,1.54-1.71,2.16-2.61,4.11-5.99,4.11-13.21,4.11-18.27,0-9.8-9.46-17.73-13.39-20.6.83-1.05,1.59-2.15,2.27-3.33.43.1.88.15,1.33.15,3.56,0,6.46-3.26,6.46-7.26,0-2.92-1.56-5.51-3.86-6.64,0-.27.01-.54.01-.79,0-15.88-12.92-28.81-28.81-28.81s-28.8,12.92-28.8,28.81c0,.28,0,.57.02.87-2.23,1.17-3.7,3.69-3.7,6.57,0,4,2.9,7.26,6.46,7.26.4,0,.8-.04,1.19-.12.7,1.19,1.47,2.31,2.32,3.37-3.83,2.89-13.06,10.84-13.06,20.53,0,4.85,0,11.69,3.64,17.53.59.94,1.27,1.86,2.06,2.74,1.73,1.92,3.97,3.65,6.9,5.07Zm.39-52.02l-.77-1.47-1.46.76c-.38.2-.78.3-1.19.3-1.74,0-3.15-1.77-3.15-3.95,0-1.86,1.06-3.49,2.52-3.87l1.34-.34-.1-1.38c-.05-.7-.07-1.29-.07-1.85,0-14.06,11.44-25.5,25.5-25.5s25.5,11.44,25.5,25.5c0,.54-.02,1.12-.07,1.81l-.1,1.43,1.4.3c1.49.32,2.62,2,2.62,3.89,0,2.18-1.41,3.95-3.15,3.95-.43,0-.86-.12-1.27-.35l-1.49-.84-.79,1.52c-1.02,1.97-2.28,3.76-3.72,5.35,0,0,0,0,0,0h0c-4.77,5.3-11.58,8.43-18.93,8.43-9.53,0-18.19-5.26-22.61-13.72Zm-9.67,26.68c0-8.42,8.65-15.61,11.96-18.06,5.31,5.3,12.56,8.39,20.33,8.39s15.07-3.11,20.39-8.45c3.25,2.35,12.29,9.66,12.29,18.11,0,5.22,0,11.8-3.96,17.02-.72.95-1.58,1.86-2.59,2.71-1.34,1.12-2.95,2.13-4.9,3-4.41,1.96-10.51,3.17-18.97,3.17h-4.13c-9.95,0-16.62-1.67-21.13-4.27-1.18-.68-2.22-1.42-3.12-2.22-1.01-.9-1.86-1.86-2.57-2.88-3.59-5.13-3.6-11.46-3.6-16.52Z"/>
  </g>
</svg>