<svg width="46" height="41" viewBox="0 0 46 41" fill="none" xmlns="http://www.w3.org/2000/svg">
<path d="M34.1824 40.25H11.8172C8.36857 40.25 5.49357 37.3384 4.98083 33.3285L3.96655 25.3784C3.95439 25.2772 3.91128 25.2268 3.9012 25.2185L1.9167 25.2358C0.859972 25.2358 0 24.2879 0 23.1227V21.2801C0 20.1149 0.859981 19.167 1.9167 19.167H44.0833C45.14 19.167 46 20.1149 46 21.2801V23.1227C46 24.2879 45.14 25.2358 44.0833 25.2358H42.0516C42.0769 25.2442 42.0449 25.2928 42.0349 25.378L41.0195 33.3281C40.5071 37.3384 37.6321 40.25 34.1825 40.25L34.1824 40.25ZM3.97029 23.3193C4.93527 23.3193 5.7333 24.083 5.86821 25.1348L6.88249 33.0849C7.26416 36.0768 9.38596 38.3331 11.8175 38.3331H34.1826C36.6148 38.3331 38.7356 36.0768 39.1176 33.0849L40.1329 25.1348C40.2678 24.083 41.0659 23.3193 42.0308 23.3193H44.0703C44.0379 23.3127 44.0828 23.2425 44.0828 23.1225V21.2799C44.0828 21.1478 44.0275 21.0758 44.0136 21.0654L1.92975 21.0835C1.96277 21.0897 1.91689 21.16 1.91689 21.2799V23.1225C1.91689 23.2546 1.97215 23.3266 1.98606 23.337L3.97029 23.3193Z" fill="black"/>
<path d="M21.5123 12.9432C21.3187 12.9432 21.124 12.8852 20.9544 12.7635C20.5248 12.4548 20.4257 11.8567 20.7344 11.4263L22.39 9.11852C22.8203 8.51786 22.7643 7.66411 22.2579 7.13366C21.1066 5.92922 20.9787 4.06885 21.9537 2.70895L23.6093 0.400172C23.918 -0.029467 24.5152 -0.129578 24.9465 0.180133C25.3762 0.488109 25.4753 1.087 25.1666 1.51735L23.5112 3.82576C23.0809 4.42643 23.1369 5.2791 23.6433 5.80991C24.7947 7.01329 24.9218 8.87472 23.9485 10.2346L22.2922 12.5434C22.1045 12.8045 21.8108 12.9431 21.5122 12.9431L21.5123 12.9432Z" fill="black"/>
<path d="M29.6564 14.9491C29.4485 14.9491 29.2399 14.8816 29.0641 14.7433C28.6487 14.4158 28.5774 13.8131 28.9049 13.3973L30.5605 11.2981C30.9536 10.7993 30.9001 10.1163 30.4343 9.67234C29.2541 8.54923 29.1203 6.74306 30.1246 5.47116L31.7802 3.37196C32.1076 2.95726 32.7104 2.8853 33.1261 3.21275C33.5415 3.54019 33.6128 4.14293 33.2853 4.55868L31.6297 6.65789C31.2366 7.15671 31.2901 7.83973 31.7559 8.28369C32.935 9.40573 33.0688 11.2119 32.0656 12.4849L30.41 14.5841C30.2206 14.8236 29.9397 14.9491 29.6564 14.9491Z" fill="black"/>
<path d="M13.3634 14.9491C13.1555 14.9491 12.947 14.8816 12.7711 14.7433C12.3557 14.4158 12.2844 13.8131 12.6119 13.3973L14.2675 11.2981C14.6606 10.7993 14.6071 10.1163 14.1413 9.67234C12.9612 8.54923 12.8273 6.74306 13.8316 5.47116L15.4872 3.37196C15.8157 2.95726 16.4174 2.8853 16.8331 3.21275C17.2485 3.54019 17.3198 4.14293 16.9923 4.55868L15.3367 6.65789C14.9436 7.15671 14.9971 7.83973 15.4629 8.28369C16.642 9.40573 16.7758 11.2119 15.7726 12.4849L14.117 14.5841C13.9276 14.8236 13.6471 14.9491 13.3634 14.9491Z" fill="black"/>
<path d="M32.5823 21.0831C32.3783 21.0831 32.1725 21.0185 31.9984 20.884C31.5792 20.561 31.5013 19.9593 31.8242 19.5401L44.2824 3.36576C44.6043 2.94655 45.206 2.8659 45.6263 3.19161C46.0455 3.51454 46.1234 4.11628 45.8005 4.5355L33.3422 20.7098C33.1542 20.9549 32.8695 21.0831 32.5823 21.0831Z" fill="black"/>
</svg>
