<svg width="37" height="37" viewBox="0 0 37 37" fill="none" xmlns="http://www.w3.org/2000/svg">
<circle cx="18.5" cy="18.5" r="18" stroke="#3B285B"/>
<g clip-path="url(#clip0_468_5148)">
<path d="M22.332 11.3335H15.6654C13.8244 11.3335 12.332 12.8259 12.332 14.6668V21.3335C12.332 23.1744 13.8244 24.6668 15.6654 24.6668H22.332C24.173 24.6668 25.6654 23.1744 25.6654 21.3335V14.6668C25.6654 12.8259 24.173 11.3335 22.332 11.3335Z" stroke="#3B285B" stroke-linecap="round" stroke-linejoin="round"/>
<path d="M21.6678 17.5802C21.75 18.135 21.6553 18.7017 21.3969 19.1995C21.1386 19.6974 20.7299 20.1011 20.2289 20.3533C19.7278 20.6055 19.1601 20.6933 18.6063 20.6042C18.0525 20.515 17.5409 20.2536 17.1443 19.857C16.7477 19.4604 16.4863 18.9488 16.3972 18.395C16.308 17.8412 16.3958 17.2735 16.648 16.7725C16.9002 16.2714 17.3039 15.8627 17.8018 15.6044C18.2996 15.346 18.8663 15.2513 19.4211 15.3335C19.9871 15.4175 20.511 15.6812 20.9156 16.0857C21.3201 16.4903 21.5839 17.0143 21.6678 17.5802Z" stroke="#3B285B" stroke-linecap="round" stroke-linejoin="round"/>
</g>
<defs>
<clipPath id="clip0_468_5148">
<rect width="16" height="16" fill="white" transform="translate(11 10)"/>
</clipPath>
</defs>
</svg>
