<svg width="69" height="52" viewBox="0 0 69 52" fill="none" xmlns="http://www.w3.org/2000/svg">
<path d="M48.513 40.965H20.4843C19.889 40.965 19.4062 40.4823 19.4062 39.8869V5.39004C19.4062 4.79472 19.889 4.31201 20.4843 4.31201H48.513C48.7989 4.31201 49.0732 4.42559 49.2753 4.62772C49.4775 4.82985 49.591 5.10417 49.591 5.39004V39.8869C49.591 40.1728 49.4775 40.4471 49.2753 40.6493C49.0732 40.8514 48.7989 40.965 48.513 40.965ZM21.5623 38.8089H47.435V6.46807H21.5623V38.8089Z" fill="black"/>
<path d="M38.811 18.3266C38.1223 18.3329 37.4394 18.4508 36.7888 18.676C36.2228 18.8637 35.9167 19.4744 36.1044 20.0399C36.2926 20.6058 36.9033 20.9119 37.4688 20.7242C37.9005 20.5717 38.3533 20.4899 38.8111 20.4826C40.3516 20.4826 41.7752 21.3046 42.5456 22.6387C43.3156 23.9727 43.3156 25.6168 42.5456 26.9508C41.7751 28.2849 40.3515 29.1069 38.8111 29.1069C37.7075 29.1016 36.6502 28.6646 35.8648 27.8898C36.708 26.3464 36.8846 24.5252 36.3542 22.8485C35.8239 21.1714 34.6318 19.7834 33.0542 19.0057C33.9349 18.3237 34.4648 17.2837 34.499 16.1705C34.499 15.3129 34.1583 14.4899 33.5519 13.8836C32.9455 13.2774 32.1225 12.9365 31.265 12.9365C30.8973 12.937 30.5325 13.002 30.187 13.1285C29.8414 13.002 29.4766 12.937 29.109 12.9365C28.2514 12.9365 27.4283 13.2773 26.8221 13.8836C26.2158 14.49 25.8749 15.3131 25.8749 16.1705C25.9091 17.2837 26.439 18.3238 27.3197 19.0057C25.6416 19.8315 24.4038 21.3437 23.9259 23.1517C23.4475 24.9599 23.7762 26.8859 24.8268 28.4331C25.8774 29.9804 27.5464 30.9963 29.4035 31.2191C31.2602 31.4419 33.1223 30.849 34.5088 29.5939C35.6836 30.6695 37.2188 31.2648 38.8113 31.2629C41.1224 31.2629 43.2577 30.0299 44.4128 28.0289C45.5683 26.0278 45.5683 23.5618 44.4128 21.5607C43.2577 19.5596 41.1224 18.3266 38.8113 18.3266L38.811 18.3266ZM29.1088 15.0925C29.2989 15.0935 29.4851 15.1464 29.6478 15.2456C29.9837 15.4415 30.3986 15.4415 30.7345 15.2456C31.0661 15.0584 31.4723 15.0598 31.8024 15.2494C32.1326 15.4395 32.3381 15.7894 32.3429 16.1706C32.3429 17.1259 30.9848 17.906 30.1868 18.2491C29.4322 17.9257 28.0307 17.1379 28.0307 16.1706C28.0307 15.5753 28.5135 15.0925 29.1088 15.0925ZM30.1868 29.1069C29.0433 29.1069 27.9465 28.6526 27.1375 27.8441C26.329 27.0351 25.8747 25.9382 25.8747 24.7948C25.8747 23.6513 26.329 22.5545 27.1375 21.7455C27.9465 20.937 29.0434 20.4827 30.1868 20.4827C31.3303 20.4827 32.4271 20.937 33.2361 21.7455C34.0446 22.5545 34.4989 23.6513 34.4989 24.7948C34.4989 25.9382 34.0446 27.0351 33.2361 27.8441C32.4271 28.6526 31.3303 29.1069 30.1868 29.1069Z" fill="black"/>
<path d="M67.1498 14.2299L53.9042 7.94272V3.23402C53.9042 2.37642 53.5635 1.55341 52.9571 0.947125C52.3507 0.340842 51.5277 0 50.6702 0C50.0749 0 49.5922 0.48271 49.5922 1.07803C49.5922 1.67335 50.0749 2.15606 50.6702 2.15606C50.9561 2.15606 51.2304 2.26963 51.4325 2.47176C51.6346 2.67389 51.7482 2.94822 51.7482 3.23408V48.5113C51.7482 48.7971 51.6347 49.0714 51.4325 49.2736C51.2304 49.4757 50.9561 49.5893 50.6702 49.5893H18.3294C17.734 49.5893 17.2513 49.1066 17.2513 48.5113V3.23408C17.2513 2.63877 17.734 2.15606 18.3294 2.15606H47.4361C48.0314 2.15606 48.5141 1.67335 48.5141 1.07803C48.5141 0.48271 48.0314 0 47.4361 0H18.3294C17.4718 0 16.6488 0.340731 16.0425 0.947125C15.4362 1.55352 15.0953 2.37653 15.0953 3.23402V7.94272L1.84977 14.2299C1.07397 14.5976 0.475806 15.2584 0.187511 16.0674C-0.10076 16.8764 -0.055052 17.7667 0.313597 18.542L11.9692 43.089C12.0876 43.3542 12.308 43.5602 12.5804 43.6608C12.8523 43.7613 13.1541 43.7474 13.4159 43.6232C13.6782 43.4986 13.8794 43.2733 13.9732 42.9985C14.0675 42.7242 14.0468 42.423 13.9159 42.164L2.26694 17.6133C2.01187 17.0753 2.24095 16.4328 2.779 16.1773L15.0955 10.3289V12.7213L5.64544 17.2004C5.10787 17.4559 4.87927 18.0989 5.13435 18.6364L11.8615 32.8036C12.117 33.3416 12.76 33.5707 13.298 33.3151C13.5565 33.1924 13.7552 32.972 13.851 32.703C13.9473 32.4335 13.9323 32.137 13.8096 31.8786L7.54942 18.686L15.0956 15.1025V48.5115C15.0956 49.3691 15.4363 50.1921 16.0427 50.7984C16.6491 51.4047 17.4721 51.7455 18.3296 51.7455H50.6705C51.5281 51.7455 52.3511 51.4048 52.9574 50.7984C53.5637 50.192 53.9045 49.369 53.9045 48.5115V39.6264L63.8657 18.6363C64.1208 18.0987 63.8922 17.4558 63.3546 17.2003L56.5231 13.9585V13.959C55.9851 13.7035 55.3421 13.9325 55.0866 14.4701C54.831 15.0082 55.0601 15.6511 55.5982 15.9067L61.4561 18.686L53.9046 34.5989V10.3291L66.2262 16.1775C66.7642 16.433 66.9933 17.0755 66.7382 17.6135L55.0902 42.1642C54.9593 42.4231 54.9391 42.7244 55.033 42.9987C55.1273 43.2735 55.328 43.4987 55.5902 43.6234C55.8525 43.7476 56.1538 43.7615 56.4262 43.6609C56.6986 43.5604 56.9185 43.3544 57.0369 43.0892L68.6864 18.5422C69.055 17.7669 69.1008 16.8765 68.8125 16.0675C68.5242 15.2585 67.926 14.5977 67.1502 14.2301L67.1498 14.2299Z" fill="black"/>
</svg>
