<svg width="76" height="76" viewBox="0 0 76 76" fill="none" xmlns="http://www.w3.org/2000/svg">
<g clip-path="url(#clip0_699_14312)">
<path d="M50.5779 50.5934L38.0001 38.0156L25.4224 50.5934" stroke="white" stroke-width="5" stroke-linecap="round" stroke-linejoin="round"/>
<path d="M38 38.0156V66.3156" stroke="white" stroke-width="5" stroke-linecap="round" stroke-linejoin="round"/>
<path d="M64.3821 58.1084C67.449 56.4364 69.8717 53.7907 71.268 50.5889C72.6643 47.387 72.9545 43.8114 72.0929 40.4262C71.2313 37.0411 69.2669 34.0393 66.5098 31.8946C63.7527 29.7499 60.3599 28.5844 56.8668 28.5821H52.9048C51.9531 24.9007 50.1791 21.483 47.7163 18.5859C45.2536 15.6888 42.1661 13.3877 38.686 11.8555C35.2059 10.3234 31.4237 9.6002 27.6239 9.7402C23.824 9.8802 20.1054 10.8798 16.7474 12.6639C13.3895 14.4479 10.4797 16.97 8.23683 20.0405C5.99393 23.1109 4.47629 26.6499 3.798 30.3914C3.11971 34.1328 3.29843 37.9793 4.32071 41.6418C5.34299 45.3042 7.18225 48.6872 9.70019 51.5365" stroke="white" stroke-width="5" stroke-linecap="round" stroke-linejoin="round"/>
<path d="M50.5779 50.5934L38.0001 38.0156L25.4224 50.5934" stroke="white" stroke-width="5" stroke-linecap="round" stroke-linejoin="round"/>
</g>
<defs>
<clipPath id="clip0_699_14312">
<rect width="75.4667" height="75.4667" fill="white" transform="translate(0.266602 0.282227)"/>
</clipPath>
</defs>
</svg>
