<svg width="263.61237792968745px" height="129.2px" xmlns="http://www.w3.org/2000/svg" viewBox="118.19381103515627 10.400000000000006 263.61237792968745 129.2" style="background: rgba(255, 255, 255, 0);" preserveAspectRatio="xMidYMid"><defs><filter id="editing-metal-beveled"><feGaussianBlur stdDeviation="4" in="SourceAlpha" result="blur"></feGaussianBlur><feSpecularLighting surfaceScale="5" specularConstant="0.8" specularExponent="7.5" lighting-color="#ffffff" in="blur" result="specular"><fePointLight x="-250" y="-50" z="300"></fePointLight></feSpecularLighting><feComposite operator="in" in="specular" in2="SourceAlpha" result="comp"></feComposite><feComposite in="SourceGraphic" in2="comp" operator="arithmetic" k1="0" k2="1" k3="1" k4="0"></feComposite></filter></defs><g filter="url(#editing-metal-beveled)"><g transform="translate(162.00124603509903, 100.15499877929688)"><path d="M60.54-18.30L60.54-18.30L66.75-18.43L66.75-18.43Q69.06-18.43 69.06-18.11L69.06-18.11L69.06-18.11Q69.06-17.28 59.71-16.64L59.71-16.64L59.71-16.64Q53.76-4.99 53.76-0.77L53.76-0.77L53.76-0.77Q53.76 2.18 55.62 2.18L55.62 2.18L55.62 2.18Q56.32 2.18 57.38 1.31L57.38 1.31L57.38 1.31Q58.43 0.45 58.66 0.45L58.66 0.45L58.66 0.45Q58.88 0.45 58.88 0.77L58.88 0.77L58.88 0.77Q58.56 1.92 56.93 2.69L56.93 2.69L56.93 2.69Q55.30 3.46 54.18 3.46L54.18 3.46L54.18 3.46Q53.06 3.46 52.42 3.33L52.42 3.33L52.42 3.33Q50.88 2.75 50.88-0.38L50.88-0.38L50.88-0.38Q50.88-6.85 55.81-16.83L55.81-16.83L48.13-16.64L48.13-16.64Q39.55-8.26 30.91-1.92L30.91-1.92L30.91-1.92Q17.98 7.49 10.69 7.49L10.69 7.49L10.69 7.49Q10.24 7.49 9.79 7.42L9.79 7.42L9.79 7.42Q-0.06 6.59-0.06-2.69L-0.06-2.69L-0.06-2.69Q-0.06-8.19 3.39-14.34L3.39-14.34L3.39-14.34Q8-22.53 16-28.32L16-28.32L16-28.32Q24-34.11 30.34-34.11L30.34-34.11L30.34-34.11Q36.67-34.11 36.67-29.44L36.67-29.44L36.67-29.44Q36.67-26.30 34.75-22.46L34.75-22.46L34.75-22.46Q32.83-18.62 30.85-17.60L30.85-17.60L30.85-17.60Q30.66-17.54 30.43-17.54L30.43-17.54L30.43-17.54Q30.21-17.54 30.21-17.66L30.21-17.66L32.32-21.12L32.32-21.12Q34.50-24.51 34.50-27.07L34.50-27.07L34.50-27.07Q34.50-29.63 33.38-31.20L33.38-31.20L33.38-31.20Q32.26-32.77 29.82-32.77L29.82-32.77L29.82-32.77Q24.83-32.77 17.89-27.20L17.89-27.20L17.89-27.20Q10.94-21.63 7.33-13.50L7.33-13.50L7.33-13.50Q3.71-5.38 3.71-0.83L3.71-0.83L3.71-0.83Q3.71 6.02 10.69 6.02L10.69 6.02L10.69 6.02Q17.34 6.02 28.74-2.56L28.74-2.56L28.74-2.56Q33.79-6.34 45.18-16.83L45.18-16.83L45.18-16.83Q42.94-16.70 41.02-16.38L41.02-16.38L41.02-16.38Q36.93-15.62 37.18-16.64L37.18-16.64L37.18-16.64Q37.44-19.01 39.62-19.01L39.62-19.01L39.62-19.01Q43.84-18.50 46.72-18.50L46.72-18.50L46.72-18.50Q52.22-23.55 63.17-35.07L63.17-35.07L63.17-35.07Q70.53-42.82 72.13-42.82L72.13-42.82L72.13-42.82Q72.83-42.82 72.83-41.73L72.83-41.73L72.83-41.73Q72.83-40.64 72.26-38.34L72.26-38.34L72.26-38.34Q71.68-36.03 70.98-35.52L70.98-35.52L70.98-35.52Q69.50-34.50 68.22-32.74L68.22-32.74L68.22-32.74Q66.94-30.98 64.58-26.14L64.58-26.14L64.58-26.14Q62.21-21.31 60.54-18.30ZM65.66-33.92L65.66-33.92L49.28-18.56L53.06-18.56L53.06-18.56Q54.40-18.50 56.38-18.50L56.38-18.50L56.38-18.50Q58.24-22.14 65.66-33.92ZM86.27-19.39L86.27-19.39L86.27-19.39Q93.44-31.04 96.26-31.04L96.26-31.04L96.26-31.04Q96.70-31.04 97.50-30.75L97.50-30.75L97.50-30.75Q98.30-30.46 98.30-29.89L98.30-29.89L98.30-29.89Q98.30-29.57 97.98-29.06L97.98-29.06L97.98-29.06Q92.86-22.78 90.37-19.65L90.37-19.65L90.37-19.65Q82.82-10.11 82.05-5.95L82.05-5.95L82.05-5.95Q81.86-5.06 81.86-4.16L81.86-4.16L81.86-4.16Q81.86-1.28 84.22-1.28L84.22-1.28L84.22-1.28Q88.96-1.28 96.58-10.05L96.58-10.05L96.58-10.05Q97.22-10.69 97.66-10.78L97.66-10.78L97.66-10.78Q98.11-10.88 98.11-10.56L98.11-10.56L98.11-10.56Q98.11-10.24 97.73-9.79L97.73-9.79L97.73-9.79Q90.30-0.90 84.54 0.13L84.54 0.13L84.54 0.13Q84.22 0.19 83.65 0.19L83.65 0.19L83.65 0.19Q81.66 0.19 80.67-1.18L80.67-1.18L80.67-1.18Q79.68-2.56 79.68-4.16L79.68-4.16L79.68-4.16Q79.68-5.95 80.38-8.13L80.38-8.13L75.20-2.94L75.20-2.94Q71.68 0.32 69.66 0.32L69.66 0.32L69.66 0.32Q67.65 0.32 66.30-0.77L66.30-0.77L66.30-0.77Q64.70-1.98 64.70-4.16L64.70-4.16L64.70-4.16Q64.70-8.83 71.23-15.33L71.23-15.33L71.23-15.33Q77.76-21.82 83.20-21.82L83.20-21.82L83.20-21.82Q84.99-21.82 85.70-20.86L85.70-20.86L85.70-20.86Q85.95-20.54 86.27-19.39ZM67.39-3.39L67.39-3.39L67.39-3.39Q67.39-1.09 68.99-1.09L68.99-1.09L68.99-1.09Q71.74-1.09 78.14-8.64L78.14-8.64L78.14-8.64Q79.30-9.98 85.82-18.69L85.82-18.69L85.82-18.69Q85.38-19.46 84.29-19.46L84.29-19.46L84.29-19.46Q80.32-19.46 73.86-13.41L73.86-13.41L73.86-13.41Q67.39-7.36 67.39-3.39ZM125.76-0.77L125.76-0.77L125.76-0.77Q121.41-0.77 121.41-4.80L121.41-4.80L121.41-4.80Q121.41-7.10 123.46-11.10L123.46-11.10L123.46-11.10Q125.50-15.10 127.74-17.86L127.74-17.86L127.74-17.86Q123.78-15.94 118.59-10.91L118.59-10.91L118.59-10.91Q113.41-5.89 111.36-0.38L111.36-0.38L111.36-0.38Q111.04 0.13 110.27 0.13L110.27 0.13L110.27 0.13Q108.74 0.13 108.74-1.60L108.74-1.60L108.74-1.60Q109.38-5.12 111.62-9.66L111.62-9.66L111.62-9.66Q112.32-11.14 115.78-18.24L115.78-18.24L115.78-18.24Q110.78-14.98 107.30-11.23L107.30-11.23L107.30-11.23Q103.81-7.49 100.83-3.71L100.83-3.71L100.83-3.71Q97.86 0.06 97.47 0.06L97.47 0.06L97.47 0.06Q96.64 0.06 96.03-0.70L96.03-0.70L96.03-0.70Q95.42-1.47 95.42-2.24L95.42-2.24L95.42-2.24Q95.42-3.39 98.75-10.69L98.75-10.69L94.91-6.66L94.91-6.66Q93.50-5.25 93.15-5.25L93.15-5.25L93.15-5.25Q92.80-5.25 92.80-5.66L92.80-5.66L92.80-5.66Q92.80-6.08 93.31-6.59L93.31-6.59L93.31-6.59Q95.68-8.96 97.54-11.33L97.54-11.33L97.54-11.33Q99.39-13.70 103.68-19.78L103.68-19.78L103.68-19.78Q104.38-20.74 105.66-20.74L105.66-20.74L105.66-20.74Q106.94-20.74 106.94-19.52L106.94-19.52L106.94-19.52Q106.94-19.07 103.55-13.28L103.55-13.28L103.55-13.28Q100.16-7.49 99.78-6.02L99.78-6.02L99.78-6.02Q102.40-8.90 107.65-13.76L107.65-13.76L107.65-13.76Q115.52-21.06 118.02-21.06L118.02-21.06L118.02-21.06Q118.78-21.06 119.42-20.61L119.42-20.61L119.42-20.61Q120.06-20.16 120.06-19.62L120.06-19.62L120.06-19.62Q120.06-19.07 117.57-14.78L117.57-14.78L117.57-14.78Q115.14-10.37 114.88-9.54L114.88-9.54L114.88-9.54Q121.98-15.49 121.98-15.55L121.98-15.55L121.98-15.55Q128-20.22 130.62-20.22L130.62-20.22L130.62-20.22Q131.39-20.22 132.06-19.74L132.06-19.74L132.06-19.74Q132.74-19.26 132.74-18.62L132.74-18.62L132.74-18.62Q132.74-18.50 128.58-13.22L128.58-13.22L128.58-13.22Q124.42-7.94 123.90-4.54L123.90-4.54L123.90-4.54Q123.78-3.39 124.35-2.82L124.35-2.82L124.35-2.82Q124.93-2.24 126.43-2.24L126.43-2.24L126.43-2.24Q127.94-2.24 130.85-4.32L130.85-4.32L130.85-4.32Q133.76-6.40 136.77-9.92L136.77-9.92L136.77-9.92Q137.92-11.20 138.34-11.20L138.34-11.20L138.34-11.20Q138.75-11.20 138.75-10.88L138.75-10.88L138.75-10.88Q138.75-10.43 138.18-9.86L138.18-9.86L138.18-9.86Q135.04-6.08 131.42-3.42L131.42-3.42L131.42-3.42Q127.81-0.77 125.76-0.77ZM149.44-26.11L149.44-26.11Q150.40-26.11 151.26-25.50L151.26-25.50L151.26-25.50Q152.13-24.90 152.13-24.06L152.13-24.06L152.13-24.06Q152.13-23.23 151.33-22.62L151.33-22.62L151.33-22.62Q150.53-22.02 149.57-22.02L149.57-22.02L149.57-22.02Q148.61-22.02 147.81-22.72L147.81-22.72L147.81-22.72Q147.01-23.42 147.01-24.32L147.01-24.32L147.01-24.32Q147.01-26.11 149.44-26.11L149.44-26.11ZM137.86 0.70L137.86 0.70L137.86 0.70Q134.59 0.70 134.59-3.52L134.59-3.52L134.59-3.52Q134.59-6.98 138.37-13.09L138.37-13.09L138.37-13.09Q142.14-19.20 144.45-19.26L144.45-19.26L144.45-19.26Q145.09-19.26 145.89-18.75L145.89-18.75L145.89-18.75Q146.69-18.24 146.69-17.73L146.69-17.73L146.69-17.73Q146.37-17.28 145.92-16.74L145.92-16.74L145.92-16.74Q145.47-16.19 144.96-15.55L144.96-15.55L144.96-15.55Q144.45-14.91 143.55-13.73L143.55-13.73L143.55-13.73Q142.66-12.54 141.82-11.46L141.82-11.46L141.82-11.46Q137.02-5.25 137.02-2.91L137.02-2.91L137.02-2.91Q137.02-0.58 138.62-0.58L138.62-0.58L138.62-0.58Q139.97-0.58 142.27-2.05L142.27-2.05L142.27-2.05Q147.65-5.38 150.78-9.34L150.78-9.34L150.78-9.34Q151.94-10.82 152.35-10.82L152.35-10.82L152.35-10.82Q152.77-10.82 152.77-10.30L152.77-10.30L152.77-10.30Q152.77-9.79 151.30-8.26L151.30-8.26L151.30-8.26Q149.82-6.72 148.96-5.82L148.96-5.82L148.96-5.82Q148.10-4.93 147.78-4.64L147.78-4.64L147.78-4.64Q147.46-4.35 146.59-3.55L146.59-3.55L146.59-3.55Q145.73-2.75 145.28-2.43L145.28-2.43L145.28-2.43Q144.83-2.11 144.00-1.47L144.00-1.47L144.00-1.47Q143.17-0.83 142.53-0.54L142.53-0.54L142.53-0.54Q141.89-0.26 141.06 0.13L141.06 0.13L141.06 0.13Q139.71 0.70 137.86 0.70ZM160.32-20.22L160.32-20.22L160.32-20.22Q162.05-20.22 162.05-18.88L162.05-18.88L162.05-18.88Q162.05-18.50 161.86-18.11L161.86-18.11L161.86-18.11Q156.10-10.11 154.94-6.02L154.94-6.02L154.94-6.02Q169.86-20.93 173.06-20.93L173.06-20.93L173.06-20.93Q173.38-20.99 173.63-20.99L173.63-20.99L173.63-20.99Q175.42-20.99 175.42-19.39L175.42-19.39L175.42-19.39Q175.42-19.07 175.30-18.75L175.30-18.75L175.30-18.75Q175.17-18.43 172.74-15.30L172.74-15.30L172.74-15.30Q169.92-11.97 167.97-8.90L167.97-8.90L167.97-8.90Q166.02-5.82 166.02-3.78L166.02-3.78L166.02-3.78Q166.02-1.73 166.91-1.73L166.91-1.73L166.91-1.73Q169.73-1.73 176.70-9.47L176.70-9.47L176.70-9.47Q176.83-9.60 177.15-10.05L177.15-10.05L177.15-10.05Q178.11-11.20 178.30-11.20L178.30-11.20L178.30-11.20Q178.50-11.20 178.50-10.56L178.50-10.56L178.50-10.56Q178.50-9.92 177.60-8.90L177.60-8.90L177.60-8.90Q169.66 0.13 166.34 0.13L166.34 0.13L166.34 0.13Q163.20 0.13 163.20-3.33L163.20-3.33L163.20-3.33Q163.20-6.78 165.76-11.26L165.76-11.26L169.86-17.92L169.86-17.92Q165.50-14.72 162.11-10.91L162.11-10.91L162.11-10.91Q158.72-7.10 155.94-3.52L155.94-3.52L155.94-3.52Q153.15 0.06 152.70 0.06L152.70 0.06L152.70 0.06Q151.74 0.06 151.20-0.74L151.20-0.74L151.20-0.74Q150.66-1.54 150.66-2.72L150.66-2.72L150.66-2.72Q150.66-3.90 151.49-5.89L151.49-5.89L151.49-5.89Q152.32-7.87 153.60-10.69L153.60-10.69L149.76-6.66L149.76-6.66Q148.35-5.25 148.00-5.25L148.00-5.25L148.00-5.25Q147.65-5.25 147.65-5.66L147.65-5.66L147.65-5.66Q147.65-6.08 148.16-6.59L148.16-6.59L148.16-6.59Q150.53-8.96 152.26-11.14L152.26-11.14L152.26-11.14Q153.92-13.31 159.10-19.46L159.10-19.46L159.10-19.46Q159.68-20.22 160.32-20.22Z" fill="#ffffff"></path></g></g><style>text {
  font-size: 64px;
  font-family: Arial Black;
  dominant-baseline: central;
  text-anchor: middle;
}</style></svg>