<svg width="435" height="110" viewBox="0 0 435 110" fill="none" xmlns="http://www.w3.org/2000/svg">
<g clip-path="url(#clip0_391_5330)">
<path d="M149.458 22.7852C149.458 25.0027 149.096 26.9832 148.371 28.7239C147.646 30.4647 146.668 32.0147 145.434 33.3686C144.203 34.7253 142.762 35.8967 141.114 36.8801C139.466 37.8663 137.717 38.6999 135.867 39.3755C134.017 40.0538 132.116 40.585 130.16 40.9691C128.201 41.356 126.3 41.6229 124.45 41.7782V40.9473C126.485 40.239 128.588 39.2992 130.759 38.1278C132.93 36.9564 134.903 35.578 136.676 33.9898C138.447 32.4043 139.912 30.6009 141.067 28.5823C142.222 26.5636 142.8 24.338 142.8 21.9025C142.8 19.2519 142.075 17.1407 140.629 15.5688C139.18 13.997 137.101 13.2124 134.388 13.2124C132.26 13.2124 130.152 13.5447 128.054 14.2067C125.959 14.8687 123.957 15.7949 122.044 16.9799C120.132 18.1677 118.353 19.5625 116.705 21.1643C115.057 22.7661 113.632 24.515 112.428 26.4111C111.227 28.3071 110.279 30.293 109.587 32.3743C108.895 34.4556 108.546 36.5587 108.546 38.6835C108.546 40.9936 109.023 43.1212 109.979 45.0609C110.932 47.0032 112.183 48.7276 113.722 50.2368C115.264 51.746 117.018 53.0182 118.991 54.0507C120.963 55.0831 122.965 55.8623 125 56.3853V57.2162C124.014 57.6166 122.965 58.156 121.856 58.8343C120.748 59.5127 119.631 60.2972 118.506 61.1908C117.381 62.0843 116.302 63.0868 115.269 64.1955C114.237 65.3043 113.322 66.4757 112.518 67.7097C111.717 68.9438 111.077 70.2296 110.6 71.5699C110.121 72.9102 109.884 74.275 109.884 75.6616C109.884 79.2358 110.769 81.9491 112.542 83.7961C114.313 85.6458 116.986 86.5693 120.562 86.5693C122.565 86.5693 124.483 86.2996 126.316 85.7602C128.149 85.2208 129.86 84.4499 131.446 83.4501C133.031 82.4476 134.489 81.238 135.812 79.8215C137.136 78.4049 138.291 76.833 139.28 75.1059L139.882 75.3838C139.052 77.604 137.847 79.7125 136.278 81.7175C134.706 83.7198 132.889 85.4769 130.825 86.9861C128.76 88.4953 126.504 89.6912 124.052 90.5684C121.603 91.4456 119.083 91.8869 116.495 91.8869C114.49 91.8869 112.643 91.5927 110.949 91.0097C109.254 90.424 107.789 89.5604 106.557 88.4217C105.326 87.2803 104.354 85.8719 103.645 84.1938C102.937 82.513 102.583 80.5652 102.583 78.3477C102.583 73.9427 103.893 70.0662 106.511 66.7236C109.129 63.381 113.027 60.5996 118.206 58.3794C115.618 58.3794 113.259 57.9626 111.134 57.1317C109.006 56.3008 107.181 55.1213 105.656 53.5957C104.13 52.0702 102.951 50.245 102.12 48.1174C101.286 45.9925 100.872 43.6334 100.872 41.0454C100.872 38.5201 101.335 36.022 102.259 33.5566C103.182 31.0912 104.454 28.7348 106.073 26.4846C107.691 24.2345 109.587 22.1559 111.758 20.2435C113.929 18.3339 116.272 16.6776 118.784 15.2746C121.295 13.8716 123.913 12.7711 126.643 11.9702C129.37 11.1693 132.075 10.7688 134.755 10.7688C136.728 10.7688 138.607 10.9758 140.395 11.3926C142.182 11.8094 143.745 12.4878 145.086 13.4276C146.426 14.3674 147.488 15.607 148.276 17.1488C149.06 18.6907 149.455 20.5704 149.455 22.7879L149.458 22.7852Z" fill="black"/>
<path d="M172.088 47.1884C172.088 48.7602 171.894 50.5636 171.51 52.5959C171.123 54.6308 170.578 56.7257 169.87 58.8833C169.162 61.0408 168.323 63.1575 167.35 65.2388C166.38 67.3174 165.299 69.1753 164.114 70.8098C162.926 72.4443 161.657 73.7601 160.3 74.7626C158.943 75.7651 157.54 76.2636 156.094 76.2636C155.2 76.2636 154.367 75.8468 153.599 75.0159C152.828 74.1823 152.144 73.1989 151.542 72.0575C150.94 70.9187 150.425 69.7637 149.992 68.5896C149.559 67.4182 149.221 66.511 148.976 65.8627C148.327 64.0129 147.758 62.1659 147.265 60.3162C146.772 58.4665 146.309 56.5868 145.878 54.6772C145.848 54.5546 145.802 54.3148 145.739 53.9607C145.677 53.6065 145.592 53.2442 145.486 52.8737C145.377 52.5032 145.254 52.1736 145.115 51.8794C144.976 51.5879 144.846 51.4408 144.723 51.4408C144.445 51.4408 144.129 51.4871 143.775 51.5797C143.421 51.6724 143.075 51.7868 142.734 51.9257C142.394 52.0647 142.064 52.2118 141.74 52.3643C141.416 52.5196 141.146 52.6585 140.931 52.7811L140.561 52.318C140.931 51.9475 141.438 51.5171 142.086 51.024C142.734 50.5309 143.41 50.076 144.121 49.6592C144.829 49.2424 145.554 48.8883 146.292 48.5968C147.033 48.3053 147.679 48.1582 148.235 48.1582C148.973 48.1582 149.599 48.4742 150.106 49.1062C150.616 49.7382 151.06 50.5854 151.446 51.6479C151.831 52.7103 152.187 53.9661 152.509 55.4154C152.833 56.8647 153.179 58.3902 153.549 59.992C153.612 60.2399 153.735 60.7303 153.92 61.4713C154.105 62.2122 154.337 63.0649 154.612 64.0375C154.89 65.0073 155.189 66.0343 155.514 67.1103C155.838 68.1891 156.176 69.1671 156.53 70.0443C156.884 70.9215 157.23 71.6543 157.57 72.24C157.908 72.8257 158.232 73.1172 158.54 73.1172C159.404 73.1172 160.213 72.8012 160.967 72.1692C161.722 71.5371 162.43 70.6981 163.092 69.6493C163.754 68.6032 164.348 67.4236 164.871 66.1133C165.394 64.8029 165.841 63.4708 166.211 62.1142C166.582 60.7575 166.865 59.4499 167.067 58.1859C167.266 56.9219 167.367 55.8131 167.367 54.8569C167.367 53.0699 167.181 51.291 166.811 49.5175C166.44 47.7468 165.863 46.175 165.078 44.802C164.294 43.4317 163.291 42.3611 162.073 41.5902C160.856 40.8219 159.415 40.5577 157.75 40.8056L157.611 40.3888C158.565 39.9883 159.537 39.6805 160.523 39.4653C161.51 39.2501 162.496 39.1411 163.482 39.1411C166.132 39.1411 168.227 39.8031 169.769 41.1298C171.308 42.4564 172.079 44.4751 172.079 47.1856L172.088 47.1884Z" fill="black"/>
<path d="M189.263 37.2505C189.263 37.8661 189.124 38.4845 188.846 39.1002C188.569 39.7158 188.206 40.2634 187.76 40.7401C187.313 41.2196 186.795 41.6119 186.212 41.9197C185.626 42.2275 185.024 42.3828 184.409 42.3828C183.608 42.3828 182.968 42.1213 182.491 41.5983C182.011 41.0752 181.774 40.4132 181.774 39.6096C181.774 38.9939 181.913 38.3837 182.191 37.7844C182.469 37.1824 182.829 36.6511 183.278 36.1908C183.725 35.7276 184.232 35.3517 184.804 35.0575C185.373 34.766 185.967 34.6189 186.583 34.6189C187.384 34.6189 188.029 34.8668 188.525 35.3599C189.018 35.853 189.266 36.485 189.266 37.2559L189.263 37.2505ZM202.206 67.9411C201.498 69.1125 200.656 70.1831 199.686 71.153C198.716 72.1228 197.651 72.97 196.496 73.6946C195.341 74.4193 194.107 74.9804 192.799 75.3809C191.489 75.7813 190.143 75.9829 188.754 75.9829C187.027 75.9829 185.496 75.6887 184.155 75.1058C182.815 74.5201 181.69 73.711 180.78 72.6785C179.87 71.646 179.178 70.4283 178.699 69.0281C178.219 67.6251 177.982 66.0941 177.982 64.4297C177.982 62.6426 178.244 60.9482 178.77 59.3463C179.293 57.7445 180.017 56.2408 180.941 54.8405C181.864 53.4376 182.951 52.1518 184.199 50.9804C185.447 49.809 186.779 48.7601 188.198 47.8366L188.754 48.2534C187.242 50.0405 186.019 52.0428 185.079 54.263C184.139 56.4805 183.671 58.7933 183.671 61.1961C183.671 62.5827 183.831 63.9148 184.155 65.1952C184.48 66.4728 184.989 67.6061 185.681 68.5922C186.376 69.5784 187.261 70.3657 188.34 70.9486C189.419 71.5343 190.726 71.8258 192.268 71.8258C194.085 71.8258 195.82 71.4417 197.469 70.6708C199.117 69.8998 200.604 68.93 201.931 67.7586L202.209 67.9439L202.206 67.9411Z" fill="black"/>
<path d="M233.618 67.9441C232.94 69.0855 232.145 70.1479 231.238 71.1341C230.328 72.1202 229.325 72.9838 228.233 73.7221C227.138 74.463 225.961 75.0406 224.697 75.4546C223.433 75.8715 222.122 76.0785 220.769 76.0785C218.766 76.0785 217.001 75.738 215.475 75.0624C213.95 74.384 212.634 73.4687 211.523 72.3109C210.414 71.1559 209.488 69.8074 208.749 68.2655C208.008 66.7264 207.423 65.1136 206.992 63.4355C206.559 61.7574 206.254 60.0385 206.069 58.2814C205.884 56.5243 205.791 54.8462 205.791 53.2416C205.791 51.7624 205.851 50.245 205.976 48.6895C206.099 47.134 206.284 45.5404 206.532 43.9058C205.576 43.9358 204.644 43.9522 203.734 43.9522H201.032C200.446 43.9522 199.784 43.9358 199.043 43.9058C198.302 43.8759 197.61 43.7533 196.962 43.5354C196.313 43.3201 195.777 42.996 195.344 42.5655C194.913 42.1351 194.695 41.5031 194.695 40.6695C194.695 40.2064 194.78 39.8386 194.949 39.5608C195.118 39.2829 195.349 39.0759 195.641 38.9369C195.935 38.798 196.273 38.7054 196.657 38.6591C197.044 38.6128 197.436 38.591 197.836 38.591C198.299 38.591 199.392 38.6672 201.119 38.8225C202.843 38.9778 204.925 39.1467 207.36 39.3319C208.128 35.6952 209.123 32.121 210.34 28.6068C211.558 25.0953 212.936 21.889 214.478 18.9932H215.124C214.138 22.3521 213.269 25.741 212.511 29.1626C211.757 32.5841 211.193 36.0493 210.825 39.5635C213.073 39.7188 215.394 39.8495 217.78 39.9558C220.166 40.0647 222.501 40.1165 224.784 40.1165C228.143 40.1165 230.87 40.0865 232.965 40.0239C235.06 39.9639 236.708 39.8849 237.912 39.7923C239.328 39.6697 240.391 39.5472 241.102 39.4218L241.287 40.2064C239.437 40.6395 237.326 41.0454 234.956 41.4323C232.583 41.8191 230.055 42.1569 227.375 42.4484C224.694 42.7426 221.921 42.996 219.055 43.2112C216.189 43.4264 213.337 43.598 210.504 43.7206C210.441 44.3363 210.411 44.9601 210.411 45.5921V47.4636C210.411 48.9429 210.479 50.5774 210.618 52.3644C210.757 54.1515 211.01 55.9468 211.381 57.7502C211.751 59.5536 212.25 61.3079 212.882 63.0187C213.514 64.7295 214.345 66.2387 215.377 67.5491C216.41 68.8594 217.649 69.9136 219.099 70.7146C220.548 71.5155 222.256 71.9159 224.228 71.9159C226.045 71.9159 227.688 71.5155 229.151 70.7146C230.614 69.9136 232.008 68.9275 233.335 67.7561L233.613 67.9413L233.618 67.9441Z" fill="black"/>
<path d="M239.792 62.2586H240.947C242.056 62.2586 243.197 62.0815 244.369 61.7274C245.54 61.3732 246.594 60.8502 247.534 60.1555C248.474 59.4608 249.25 58.6082 249.869 57.5893C250.484 56.5732 250.792 55.4181 250.792 54.1214C250.792 52.8574 250.522 51.8113 249.983 50.9777C249.444 50.1441 248.512 49.73 247.185 49.73C245.829 49.73 244.682 50.1387 243.742 50.9559C242.802 51.7732 242.039 52.7757 241.454 53.9607C240.868 55.1485 240.446 56.3961 240.184 57.7037C239.923 59.0141 239.792 60.1773 239.792 61.1934V62.2559V62.2586ZM263.735 67.944C262.934 69.1154 261.969 70.2077 260.847 71.2266C259.722 72.2427 258.491 73.1226 257.15 73.8609C255.81 74.6019 254.407 75.1848 252.944 75.618C251.479 76.0484 250.008 76.2663 248.528 76.2663C246.433 76.2663 244.477 75.9966 242.658 75.4573C240.838 74.9179 239.253 74.0924 237.896 72.9837C236.539 71.875 235.477 70.4802 234.706 68.7993C233.935 67.1213 233.551 65.1571 233.551 62.9069C233.551 60.6867 233.959 58.6163 234.777 56.6903C235.594 54.7643 236.719 53.0835 238.152 51.6506C239.585 50.2177 241.271 49.0844 243.213 48.2535C245.156 47.4199 247.234 47.0059 249.455 47.0059C250.501 47.0059 251.481 47.153 252.391 47.4445C253.301 47.7387 254.094 48.1691 254.772 48.7384C255.451 49.3078 255.982 50.0106 256.366 50.8415C256.75 51.6724 256.943 52.6286 256.943 53.7074C256.943 55.0013 256.682 56.1428 256.159 57.1289C255.633 58.1151 254.941 58.9787 254.078 59.7169C253.214 60.4579 252.236 61.0736 251.144 61.5666C250.048 62.0597 248.91 62.4602 247.722 62.768C246.534 63.0758 245.366 63.2992 244.208 63.4381C243.053 63.5771 241.996 63.6452 241.042 63.6452H239.934C240.334 66.4511 241.443 68.5923 243.262 70.0715C245.08 71.5508 247.591 72.289 250.798 72.289C253.078 72.289 255.303 71.8886 257.477 71.0877C259.648 70.2868 261.613 69.178 263.37 67.7587L263.74 67.944H263.735Z" fill="black"/>
<path d="M318.491 62.6291C318.058 62.6291 317.636 62.6128 317.222 62.5828C316.805 62.5529 316.383 62.5365 315.949 62.5365C314.778 62.5365 313.408 62.5992 311.836 62.7218C310.264 62.8471 308.57 63.016 306.75 63.2312C307.458 65.7265 307.812 68.2083 307.812 70.6737C307.812 73.4169 307.349 75.9885 306.426 78.394C305.502 80.7967 304.205 82.8998 302.544 84.7032C300.879 86.5066 298.885 87.9314 296.559 88.9802C294.232 90.0263 291.666 90.552 288.863 90.552C286.06 90.552 283.523 90.1189 281.26 89.258C278.996 88.3945 276.983 87.2067 275.228 85.6975C273.471 84.1883 271.962 82.4149 270.698 80.3827C269.434 78.3477 268.401 76.1765 267.601 73.8664C266.8 71.5563 266.206 69.1508 265.822 66.6555C265.435 64.1601 265.244 61.6947 265.244 59.2593C265.244 55.9004 265.606 52.3726 266.331 48.6731C267.056 44.9764 268.11 41.3314 269.497 37.741C270.883 34.1505 272.594 30.7316 274.626 27.479C276.661 24.229 278.996 21.3632 281.63 18.8814C284.264 16.3997 287.193 14.4301 290.413 12.9645C293.633 11.5016 297.123 10.7688 300.882 10.7688C302.977 10.7688 304.933 11.0167 306.753 11.5098C308.57 12.0029 310.158 12.7656 311.514 13.7981C312.871 14.8306 313.934 16.1491 314.704 17.7509C315.475 19.3527 315.86 21.2787 315.86 23.5289C315.86 25.2233 315.573 26.8497 315.004 28.4052C314.435 29.9607 313.648 31.41 312.648 32.7503C311.645 34.0906 310.477 35.3001 309.136 36.3789C307.796 37.4576 306.363 38.3757 304.837 39.1303C303.312 39.8849 301.74 40.4624 300.122 40.8629C298.504 41.2633 296.91 41.4486 295.338 41.4186H294.644V40.4951C296.646 40.0947 298.55 39.3619 300.353 38.2994C302.157 37.237 303.729 35.943 305.069 34.4175C306.409 32.8919 307.472 31.1757 308.259 29.2633C309.044 27.3536 309.439 25.3514 309.439 23.2537C309.439 20.1427 308.646 17.661 307.058 15.8113C305.469 13.9615 303.075 13.038 299.869 13.038C296.54 13.038 293.551 13.7463 290.901 15.1629C288.25 16.5822 285.902 18.4619 283.853 20.802C281.804 23.1448 280.039 25.839 278.56 28.8901C277.081 31.9412 275.871 35.0985 274.931 38.3648C273.992 41.6311 273.297 44.8892 272.85 48.1419C272.403 51.3946 272.18 54.3912 272.18 57.1317C272.18 59.2266 272.319 61.3924 272.597 63.6262C272.875 65.86 273.313 68.0394 273.915 70.167C274.517 72.2945 275.31 74.305 276.296 76.1983C277.282 78.0943 278.492 79.7588 279.925 81.1917C281.358 82.6247 283.022 83.7579 284.918 84.5888C286.814 85.4197 288.991 85.8365 291.459 85.8365C293.339 85.8365 295.126 85.5041 296.82 84.8421C298.515 84.1802 300.002 83.2539 301.282 82.0689C302.56 80.8812 303.579 79.4728 304.334 77.841C305.088 76.2065 305.467 74.4194 305.467 72.4798C305.467 70.9079 305.205 69.3824 304.682 67.9032C304.156 66.4239 303.435 65.0673 302.511 63.8359C300.876 64.0838 299.258 64.359 297.657 64.6668C296.055 64.9747 294.521 65.307 293.058 65.6612C291.595 66.0153 290.239 66.3858 288.991 66.7699C287.743 67.1567 286.673 67.549 285.779 67.9495C285.501 68.1347 285.21 68.2273 284.902 68.2273C284.469 68.2273 284.194 68.0421 284.071 67.6716C283.948 67.3011 283.886 66.947 283.886 66.6092C283.886 66.0534 283.987 65.4296 284.185 64.7377C284.384 64.0457 284.67 63.381 285.041 62.749C285.411 62.117 285.842 61.5558 286.335 61.0627C286.828 60.5696 287.367 60.2482 287.953 60.0929C288.787 59.8477 289.656 59.6625 290.565 59.5372C291.473 59.4146 292.391 59.3301 293.314 59.2838C294.238 59.2375 295.164 59.2157 296.087 59.2157H298.722C300.016 59.2157 301.604 59.2539 303.484 59.3301C305.363 59.4064 307.289 59.5454 309.262 59.7469C311.234 59.9485 313.097 60.2264 314.854 60.5805C316.611 60.9347 317.998 61.406 319.014 61.9889L318.505 62.6373L318.491 62.6291Z" fill="black"/>
<path d="M360.582 67.9439C360.056 69.0227 359.348 70.0552 358.454 71.0413C357.561 72.0275 356.558 72.9129 355.449 73.7001C354.341 74.4847 353.169 75.1113 351.935 75.5717C350.704 76.0348 349.486 76.2663 348.285 76.2663C346.62 76.2663 345.242 75.7651 344.15 74.7653C343.054 73.7628 342.245 72.556 341.722 71.1367C340.521 72.3381 339.197 73.3324 337.748 74.1169C336.298 74.9015 334.697 75.2965 332.939 75.2965C331.368 75.2965 329.973 75.0105 328.758 74.4411C327.54 73.8718 326.532 73.0927 325.731 72.1065C324.93 71.1203 324.323 69.9789 323.906 68.6849C323.489 67.3909 323.282 66.0043 323.282 64.5251C323.282 62.8606 323.514 61.237 323.974 59.6488C324.437 58.0633 325.083 56.5514 325.917 55.1185C326.747 53.6856 327.734 52.3534 328.875 51.1194C330.014 49.888 331.248 48.7929 332.572 47.8367L333.127 48.2535C331.833 50.1032 330.801 52.1437 330.03 54.3775C329.259 56.6113 328.875 58.8833 328.875 61.1961C328.875 62.1823 328.984 63.2311 329.199 64.3398C329.414 65.4486 329.769 66.4811 330.262 67.4372C330.755 68.3934 331.408 69.1862 332.226 69.8182C333.043 70.4502 334.067 70.7662 335.299 70.7662C336.345 70.7662 337.347 70.5891 338.303 70.235C339.257 69.8808 340.183 69.3959 341.077 68.7803C341.014 68.4098 340.968 68.0475 340.938 67.6933C340.908 67.3392 340.891 66.9769 340.891 66.6064C340.891 65.1271 341.107 63.5253 341.54 61.7982C341.97 60.0738 342.54 58.3548 343.251 56.644C343.959 54.9332 344.768 53.3014 345.678 51.7459C346.588 50.1904 347.519 48.8556 348.473 47.7468L349.029 48.1636C348.32 50.5364 347.735 52.9854 347.271 55.5135C346.808 58.0415 346.579 60.5369 346.579 63.0023C346.579 64.111 346.65 65.1843 346.787 66.2141C346.925 67.2465 347.217 68.1701 347.664 68.9873C348.11 69.8046 348.734 70.4502 349.535 70.9296C350.336 71.4064 351.399 71.6461 352.725 71.6461C354.204 71.6461 355.591 71.2702 356.885 70.5128C358.179 69.7582 359.318 68.8402 360.307 67.7614L360.585 67.9467L360.582 67.9439Z" fill="black"/>
<path d="M396.523 67.9439C395.967 69.178 395.267 70.2867 394.42 71.2729C393.573 72.259 392.655 73.0981 391.671 73.7927C390.685 74.4847 389.669 75.0241 388.62 75.4109C387.571 75.795 386.571 75.9884 385.615 75.9884C383.828 75.9884 382.316 75.6806 381.085 75.0649C379.851 74.4493 378.851 73.6157 378.08 72.5696C377.309 71.5235 376.753 70.2894 376.416 68.8729C376.075 67.4563 375.906 65.9444 375.906 64.3425C375.906 63.1112 375.999 61.8308 376.184 60.5069C376.369 59.1829 376.631 57.9026 376.969 56.6712C377.029 56.486 377.091 56.2626 377.154 56.0011C377.214 55.7396 377.247 55.5162 377.247 55.3309C377.247 55.1784 377.154 55.0531 376.969 54.9604C376.443 54.7752 375.89 54.5981 375.304 54.4292C374.718 54.2603 374.141 54.0669 373.569 53.8517C373 53.6365 372.46 53.3886 371.951 53.1107C371.441 52.8329 371.003 52.4787 370.632 52.0483C370.6 53.898 370.292 55.7695 369.709 57.6656C369.123 59.5616 368.344 61.3786 367.374 63.1194C366.404 64.8601 365.271 66.4865 363.977 67.9957C362.683 69.5049 361.31 70.8152 359.863 71.924L359.4 71.4608C360.294 70.4747 361.111 69.3033 361.849 67.9466C362.588 66.59 363.22 65.1734 363.745 63.6942C364.268 62.215 364.677 60.7221 364.971 59.2102C365.266 57.701 365.41 56.2817 365.41 54.9577C365.41 54.2794 365.347 53.6392 365.225 53.0399C365.102 52.4379 364.971 51.8603 364.832 51.3073C364.693 50.7516 364.563 50.2204 364.44 49.7137C364.318 49.2042 364.255 48.6894 364.255 48.1663C364.255 47.3028 364.533 46.6272 365.088 46.1314C365.644 45.6383 366.352 45.3904 367.213 45.3904C367.676 45.3904 368.031 45.5211 368.276 45.7827C368.521 46.0442 368.739 46.3602 368.924 46.7307C369.109 47.1012 369.325 47.4853 369.572 47.8857C369.818 48.2862 370.175 48.6267 370.635 48.9019C371.221 49.2424 371.959 49.4876 372.855 49.6428C373.749 49.7981 374.689 49.937 375.675 50.0596C376.661 50.1822 377.647 50.3075 378.633 50.4301C379.619 50.5527 380.505 50.7625 381.289 51.054C382.074 51.3482 382.714 51.7486 383.207 52.2553C383.7 52.7648 383.948 53.4512 383.948 54.3121C383.948 54.7452 383.91 55.1675 383.834 55.5843C383.757 56.0011 383.64 56.3934 383.488 56.7639C383.117 58.0578 382.801 59.3764 382.54 60.7167C382.278 62.057 382.147 63.3891 382.147 64.7158C382.147 65.8572 382.232 66.8978 382.401 67.835C382.57 68.7748 382.886 69.5839 383.349 70.2622C383.812 70.9405 384.427 71.4636 385.198 71.8341C385.969 72.2045 386.956 72.3898 388.157 72.3898C389.881 72.3898 391.393 71.9675 392.687 71.1176C393.981 70.2704 395.12 69.1535 396.109 67.7668L396.526 67.9521L396.523 67.9439Z" fill="black"/>
<path d="M434.408 67.9439C433.882 69.0227 433.173 70.0552 432.28 71.0413C431.386 72.0275 430.384 72.9129 429.275 73.7001C428.166 74.4847 426.995 75.1113 425.761 75.5717C424.527 76.0348 423.312 76.2663 422.111 76.2663C420.446 76.2663 419.068 75.7651 417.973 74.7653C416.877 73.7628 416.068 72.556 415.545 71.1367C414.344 72.3381 413.017 73.3324 411.571 74.1169C410.121 74.9015 408.52 75.2965 406.763 75.2965C405.191 75.2965 403.796 75.0105 402.578 74.4411C401.36 73.8718 400.353 73.0927 399.552 72.1065C398.751 71.1203 398.14 69.9789 397.726 68.6849C397.31 67.3909 397.103 66.0043 397.103 64.5251C397.103 62.8606 397.334 61.237 397.794 59.6488C398.258 58.0633 398.903 56.5514 399.737 55.1185C400.568 53.6856 401.554 52.3534 402.695 51.1194C403.834 49.888 405.068 48.7929 406.392 47.8367L406.948 48.2535C405.654 50.1032 404.621 52.1437 403.85 54.3775C403.079 56.6113 402.695 58.8833 402.695 61.1961C402.695 62.1823 402.802 63.2311 403.019 64.3398C403.235 65.4486 403.589 66.4811 404.082 67.4372C404.575 68.3934 405.229 69.1862 406.046 69.8182C406.863 70.4502 407.888 70.7662 409.122 70.7662C410.168 70.7662 411.17 70.5891 412.126 70.235C413.08 69.8808 414.006 69.3959 414.9 68.7803C414.837 68.4098 414.791 68.0475 414.761 67.6933C414.728 67.3392 414.714 66.9769 414.714 66.6064C414.714 65.1271 414.93 63.5253 415.363 61.7982C415.793 60.0738 416.365 58.3548 417.074 56.644C417.782 54.9332 418.591 53.3014 419.501 51.7459C420.411 50.1904 421.342 48.8556 422.299 47.7468L422.854 48.1636C422.146 50.5364 421.56 52.9854 421.097 55.5135C420.634 58.0415 420.405 60.5369 420.405 63.0023C420.405 64.111 420.473 65.1843 420.612 66.2141C420.751 67.2465 421.043 68.1701 421.489 68.9873C421.936 69.8046 422.56 70.4502 423.361 70.9296C424.162 71.4064 425.224 71.6461 426.551 71.6461C428.03 71.6461 429.417 71.2702 430.711 70.5128C432.005 69.7582 433.144 68.8402 434.132 67.7614L434.41 67.9467L434.408 67.9439Z" fill="black"/>
<path d="M45.0806 30.5955C47.7558 32.3144 50.6679 32.7176 53.7381 32.0066C54.6779 31.7478 55.6668 31.2901 56.7919 30.5955C57.0344 33.227 53.798 35.3601 50.9131 35.1694C48.1154 35.2239 44.8137 33.2297 45.0806 30.5955Z" fill="black"/>
<path d="M22.8433 30.5955C25.5185 32.3144 28.4306 32.7176 31.5008 32.0066C32.4406 31.7478 33.4295 31.2901 34.5546 30.5955C34.7971 33.227 31.5607 35.3601 28.6758 35.1694C25.8781 35.2239 22.5764 33.2297 22.8433 30.5955Z" fill="black"/>
<path d="M51.235 63.1548C49.4152 64.0129 47.669 64.98 45.9555 65.988C44.7841 66.6772 43.6372 67.4046 42.4985 68.1428C41.1364 69.129 39.9432 69.8182 38.3959 69.1181C35.1105 67.0395 31.6971 64.8656 28.0903 63.1793C27.8424 63.321 27.6163 63.4953 27.4229 63.6997C29.8447 66.1923 32.4653 68.3989 35.2031 70.5265C35.7916 70.9569 36.3473 71.4527 37.0637 71.8259C39.0388 72.8747 41.6949 72.5505 43.373 71.1231C44.7187 70.1069 46.0645 69.0391 47.3503 67.9467C48.933 66.5982 50.4804 65.2061 51.9432 63.6915C51.7389 63.4736 51.4992 63.2965 51.235 63.1521V63.1548Z" fill="black"/>
<path d="M55.8062 65.683C55.8062 62.3949 53.131 59.7197 49.8429 59.7197H29.5287C26.2406 59.7197 23.5654 62.3949 23.5654 65.683V67.7343C24.4998 69.2326 25.5132 70.5729 26.6274 71.7661V65.683C26.6274 64.9147 26.9325 64.2201 27.4229 63.6998C27.6163 63.4927 27.8424 63.3211 28.0903 63.1794C28.5153 62.9343 29.0029 62.7817 29.5287 62.7817H49.8429C50.3496 62.7817 50.8209 62.9234 51.2323 63.1522C51.4938 63.2966 51.7362 63.4737 51.9406 63.6916C52.4364 64.2146 52.7442 64.9175 52.7442 65.6966L52.815 72.4526C53.9292 71.3574 54.9235 70.1425 55.8389 68.824L55.8062 65.6802V65.683Z" fill="black"/>
<path d="M22.5707 66.0479C21.462 64.0837 20.4595 62.0134 19.4515 59.8149C19.0211 64.4161 20.6393 69.2733 23.565 72.8692C23.565 72.8692 23.5678 72.872 23.5678 72.8747C26.9158 76.9855 31.9719 79.4481 37.63 77.9934C32.9935 76.8683 29.4738 74.8089 26.627 71.7659C25.5128 70.5755 24.4994 69.2325 23.565 67.7341C23.2245 67.1893 22.8922 66.6309 22.5707 66.0452V66.0479Z" fill="black"/>
<path d="M60.6795 59.8149C59.1784 63.1412 57.6692 66.1895 55.8386 68.8265C54.9233 70.1451 53.9289 71.36 52.8147 72.4552C50.2023 75.0268 46.9332 76.9446 42.501 77.9934C53.0817 80.7421 61.5975 69.6819 60.6795 59.8149Z" fill="black"/>
<path d="M70.2657 79.2193C69.6909 80.0557 69.0262 80.8647 68.2662 81.6384C73.3468 83.8423 76.7983 88.1084 76.7983 93.001C76.7983 100.098 69.5383 105.87 60.5812 105.946C60.524 105.946 60.4668 105.944 60.4096 105.944C55.4325 105.9 50.9975 105.486 47.0638 105.115C43.9828 104.824 41.3212 104.573 39.0738 104.573C38.1475 104.573 36.9271 104.617 35.5514 104.688C40.4713 102.794 45.2904 100.686 50.2021 98.7654C50.3655 98.7054 50.529 98.6428 50.6924 98.5801C53.8443 97.3924 57.0343 96.1256 60.4069 95.8124C60.1236 95.8151 59.843 95.8369 59.5624 95.8559C58.0613 95.9513 56.5603 96.2373 55.1138 96.5887C44.8926 99.1903 35.1101 103.557 24.7309 105.472C24.434 105.527 24.1371 105.587 23.8374 105.638C23.4124 105.688 22.38 105.807 21.9332 105.856C21.1786 105.957 20.2197 105.911 19.4487 105.952C19.3915 105.949 19.3398 105.96 19.2853 105.963C19.2907 105.963 19.2962 105.96 19.3016 105.96C19.3207 105.957 19.3534 105.954 19.397 105.952C10.3826 105.93 3.05731 100.13 3.05731 93.0037C3.05731 87.6507 7.18717 83.0468 13.0605 81.0772C12.3277 80.2627 11.693 79.4155 11.1536 78.541C4.57195 81.1099 -0.00195312 86.6182 -0.00195312 93.0037C-0.00195312 101.83 8.71817 109.011 19.4406 109.016L20.1897 108.954C20.4403 108.932 20.691 108.913 20.9416 108.886C24.6465 108.548 34.9929 107.638 39.0765 107.638C41.1796 107.638 43.773 107.883 46.7778 108.167C50.7551 108.542 55.2391 108.959 60.317 109.008C60.4042 109.008 60.4886 109.011 60.5758 109.011C60.8073 109.014 61.0307 109.019 61.265 109.019C61.393 109.019 61.5183 108.997 61.6382 108.967C71.7912 108.442 79.863 101.495 79.863 93.0064C79.863 87.1385 76.0001 82.0144 70.2684 79.2248L70.2657 79.2193Z" fill="black"/>
<path d="M10.8481 62.2995C10.8481 54.5028 18.8627 47.8395 21.9247 45.5784C26.8445 50.4901 33.5597 53.3532 40.7488 53.3532C47.9679 53.3532 54.7021 50.471 59.6274 45.5266C62.6403 47.7087 71.0145 54.4756 71.0145 62.3022C71.0145 67.1403 71.009 73.2289 67.345 78.0589C66.6749 78.9415 65.8821 79.7833 64.9477 80.5651C63.7055 81.603 62.2126 82.5402 60.412 83.3438C56.3284 85.1608 50.6784 86.2777 42.8464 86.2777H39.0189C29.8085 86.2777 23.6246 84.7304 19.4511 82.3195C18.3587 81.6875 17.3998 81.001 16.5662 80.2627C15.6263 79.4291 14.8418 78.5356 14.1852 77.6012C10.8563 72.8475 10.8481 66.9878 10.8481 62.3022V62.2995ZM19.808 37.5884L19.0997 36.2317L17.743 36.94C17.3889 37.1252 17.0157 37.2206 16.6397 37.2206C15.0325 37.2206 13.7221 35.5806 13.7221 33.562C13.7221 31.8349 14.7056 30.3311 16.0595 29.9797L17.2963 29.661L17.2036 28.3861C17.1573 27.7377 17.1355 27.1929 17.1355 26.6753C17.1355 13.6537 27.7299 3.06202 40.7488 3.06202C53.7704 3.06202 64.3648 13.6564 64.3648 26.6753C64.3648 27.1792 64.3457 27.7132 64.2967 28.3534L64.204 29.6746L65.5007 29.9552C66.8819 30.2549 67.9225 31.8022 67.9225 33.5566C67.9225 35.5725 66.6149 37.2151 65.0049 37.2151C64.6045 37.2151 64.2068 37.1062 63.8308 36.8937L62.4497 36.1173L61.7196 37.523C60.7743 39.3455 59.6083 41.0018 58.2789 42.481L58.2762 42.4837C53.8603 47.39 47.5484 50.2858 40.7488 50.2858C31.9251 50.2858 23.8997 45.4177 19.808 37.5829V37.5884ZM19.4511 85.7683C23.9841 87.9613 30.277 89.3397 39.0189 89.3397H42.8464C50.3761 89.3397 56.0751 88.31 60.412 86.6264C63.8008 85.3107 66.3534 83.5917 68.2685 81.6385C69.0286 80.8648 69.6933 80.0557 70.2681 79.2194C74.071 73.6675 74.0765 66.9851 74.0765 62.2995C74.0765 53.2225 65.3128 45.8781 61.6733 43.2192C62.4388 42.2494 63.1443 41.2224 63.7791 40.1382C64.1795 40.2335 64.5909 40.2799 65.0077 40.2799C68.3039 40.2799 70.9845 37.2642 70.9845 33.5593C70.9845 30.8542 69.5434 28.4596 67.4131 27.4081C67.4213 27.1547 67.4267 26.9123 67.4267 26.6725C67.4267 11.9647 55.4594 -0.00268555 40.7515 -0.00268555C26.0436 -0.00268555 14.0763 11.9647 14.0763 26.6725C14.0763 26.9313 14.0817 27.1983 14.0899 27.4762C12.0222 28.5604 10.6629 30.895 10.6629 33.5566C10.6629 37.2615 13.3435 40.2771 16.6397 40.2771C17.0102 40.2771 17.378 40.239 17.7376 40.1627C18.3832 41.2633 19.1024 42.3012 19.8815 43.2819C16.3319 45.9571 7.78613 53.3233 7.78613 62.2967C7.78613 66.7916 7.79431 73.1254 11.156 78.5356C11.6981 79.4101 12.3328 80.2573 13.0629 81.0718C14.662 82.848 16.7351 84.4525 19.4484 85.7656L19.4511 85.7683Z" fill="black"/>
</g>
<defs>
<clipPath id="clip0_391_5330">
<rect width="434.409" height="109.014" fill="white"/>
</clipPath>
</defs>
</svg>
