<svg width="37" height="37" viewBox="0 0 37 37" fill="none" xmlns="http://www.w3.org/2000/svg">
<circle cx="18.5" cy="18.5" r="18" stroke="#3B285B"/>
<path d="M21.668 15.3335C22.7288 15.3335 23.7463 15.7549 24.4964 16.5051C25.2465 17.2552 25.668 18.2726 25.668 19.3335V24.0002H23.0013V19.3335C23.0013 18.9799 22.8608 18.6407 22.6108 18.3907C22.3607 18.1406 22.0216 18.0002 21.668 18.0002C21.3143 18.0002 20.9752 18.1406 20.7252 18.3907C20.4751 18.6407 20.3346 18.9799 20.3346 19.3335V24.0002H17.668V19.3335C17.668 18.2726 18.0894 17.2552 18.8395 16.5051C19.5897 15.7549 20.6071 15.3335 21.668 15.3335Z" stroke="#3B285B" stroke-linecap="round" stroke-linejoin="round"/>
<path d="M14.9987 16H12.332V24H14.9987V16Z" stroke="#3B285B" stroke-linecap="round" stroke-linejoin="round"/>
<path d="M13.6654 14.0002C14.4017 14.0002 14.9987 13.4032 14.9987 12.6668C14.9987 11.9304 14.4017 11.3335 13.6654 11.3335C12.929 11.3335 12.332 11.9304 12.332 12.6668C12.332 13.4032 12.929 14.0002 13.6654 14.0002Z" stroke="#3B285B" stroke-linecap="round" stroke-linejoin="round"/>
</svg>
