<svg width="37" height="37" viewBox="0 0 37 37" fill="none" xmlns="http://www.w3.org/2000/svg">
<circle cx="18.5" cy="18.5" r="18" stroke="#3B285B"/>
<path d="M28 11.0082C27.2165 11.5609 26.349 11.9836 25.4309 12.26C24.9382 11.6935 24.2833 11.2919 23.5548 11.1096C22.8264 10.9274 22.0596 10.9732 21.3581 11.241C20.6565 11.5087 20.0542 11.9855 19.6324 12.6067C19.2107 13.228 18.9899 13.9638 19 14.7146V15.5328C17.5622 15.5701 16.1374 15.2512 14.8526 14.6045C13.5679 13.9578 12.463 13.0035 11.6364 11.8264C11.6364 11.8264 8.36364 19.19 15.7273 22.4628C14.0422 23.6066 12.0349 24.1801 10 24.0991C17.3636 28.19 26.3636 24.0991 26.3636 14.69C26.3629 14.4621 26.341 14.2348 26.2982 14.011C27.1332 13.1874 27.7225 12.1477 28 11.0082Z" stroke="#3B285B" stroke-linecap="round" stroke-linejoin="round"/>
</svg>
