<svg width="54" height="52" viewBox="0 0 54 52" fill="none" xmlns="http://www.w3.org/2000/svg">
<path d="M53.9546 19.5854C53.83 19.2017 53.4819 18.9339 53.0793 18.9122L34.5788 17.9078L27.9095 0.624579C27.7639 0.248414 27.402 0 26.9985 0C26.5951 0 26.2331 0.248404 26.0876 0.624579L19.4182 17.9089L0.917765 18.9132V18.9128C0.516679 18.9369 0.171358 19.2047 0.047546 19.5868C-0.0762661 19.9693 0.0467548 20.3886 0.358053 20.6429L14.7351 32.3275L9.9719 50.2315H9.9715C9.86787 50.6215 10.0146 51.0348 10.3409 51.2721C10.6673 51.5091 11.1059 51.5209 11.4449 51.3018L26.9976 41.2386L42.5534 51.3018C42.892 51.521 43.3306 51.5091 43.6569 51.2721C43.9836 51.0348 44.1304 50.6215 44.0263 50.2315L39.2631 32.3275L53.6402 20.6429C53.9523 20.389 54.0765 19.9689 53.9527 19.5857L53.9546 19.5854ZM37.5432 31.2102C37.2454 31.4526 37.1168 31.8478 37.2157 32.2192L41.4912 48.2894L27.5304 39.2558C27.2068 39.0461 26.7907 39.0461 26.4671 39.2558L12.5072 48.2894L16.7828 32.2223H16.7824C16.8813 31.8508 16.7527 31.4561 16.4549 31.2136L3.54914 20.7229L20.155 19.8219C20.5383 19.8005 20.8741 19.5569 21.0125 19.1985L26.9992 3.68628L32.9859 19.2005C33.1251 19.5577 33.4605 19.801 33.8434 19.8219L50.4493 20.723L37.5432 31.2102Z" fill="black"/>
</svg>
