<svg width="38" height="39" viewBox="0 0 38 39" fill="none" xmlns="http://www.w3.org/2000/svg">
<path d="M37.4987 4.39675C37.1183 4.31211 36.7379 4.56572 36.6533 4.94642L35.554 9.80799C32.2564 3.80482 25.9573 0 18.9818 0C8.49744 0 0 8.53971 0 19.0241C0 29.5085 8.49744 38.0482 18.9818 38.0482C25.7036 38.0482 32.0028 34.4125 35.3849 28.5784C35.5963 28.2402 35.4695 27.8176 35.1312 27.6062C34.793 27.3947 34.3704 27.5215 34.159 27.8598C31.0305 33.2711 25.1965 36.6109 18.9397 36.6109C9.25852 36.6109 1.35295 28.7053 1.35295 18.9819C1.35295 9.25843 9.25852 1.35286 18.9397 1.35286C25.4925 1.35286 31.4533 4.98858 34.4972 10.7381L28.9166 9.17365C28.5362 9.04685 28.1558 9.30046 28.0287 9.6387C27.9019 10.0191 28.1555 10.3995 28.4937 10.5266L35.5959 12.5558H35.6381H35.8071C35.8917 12.5558 35.9339 12.5558 36.0185 12.5136C36.0607 12.5136 36.0607 12.5136 36.1031 12.4715C36.1453 12.4715 36.1878 12.4293 36.2299 12.3868C36.2721 12.3868 36.2721 12.3447 36.2721 12.3447L36.3143 12.3025L36.3564 12.2603C36.3564 12.2182 36.3986 12.2182 36.3986 12.1757C36.4408 12.1335 36.4408 12.0911 36.4408 12.0489V12.0067L37.9627 5.20031C38.0904 4.86178 37.879 4.48107 37.4986 4.3967L37.4987 4.39675Z" fill="black"/>
<path d="M17.3752 5.83398C16.9948 5.83398 16.6565 6.13006 16.6565 6.55263L16.6562 20.7996L26.5065 25.2807C26.5911 25.3229 26.718 25.3229 26.8026 25.3229C27.0562 25.3229 27.3098 25.1539 27.4366 24.9C27.6056 24.5618 27.4366 24.1392 27.0984 23.97L18.0513 19.8692V6.51081C18.0513 6.1301 17.7556 5.83433 17.3752 5.83433L17.3752 5.83398Z" fill="black"/>
</svg>
