<svg width="55" height="53" viewBox="0 0 55 53" fill="none" xmlns="http://www.w3.org/2000/svg">
<path d="M27.2909 20.841C31.1966 20.841 34.3747 17.6629 34.3747 13.7571C34.3747 9.85055 31.1967 6.67285 27.2909 6.67285C23.385 6.67285 20.207 9.85087 20.207 13.7571C20.207 17.6634 23.385 20.841 27.2909 20.841ZM27.2909 8.49171C30.194 8.49171 32.5554 10.854 32.5554 13.7567C32.5554 16.6598 30.194 19.0213 27.2909 19.0213C24.3877 19.0213 22.0263 16.6598 22.0263 13.7567C22.0263 10.8535 24.3877 8.49171 27.2909 8.49171Z" fill="black"/>
<path d="M54.1088 13.2549C53.8192 13.0945 53.4651 13.1042 53.1849 13.2805L39.1256 22.1084L38.2265 21.7693C39.8703 18.867 41.0455 16.0073 41.0455 13.7568C41.0455 6.1715 34.8742 0 27.2887 0C19.7038 0.000406062 13.5329 6.17129 13.5329 13.7568C13.5329 13.8689 13.5447 13.9867 13.5504 14.1016L0.425585 22.3489C0.160813 22.5154 0 22.8061 0 23.1188V52.09C0 52.4209 0.179901 52.7259 0.469436 52.8859C0.759386 53.0467 1.11349 53.037 1.39328 52.8603L15.4516 44.0332L38.9036 52.9408C39.008 52.9802 39.1172 52.9997 39.2265 52.9997C39.3954 52.9997 39.5635 52.9526 39.7101 52.8604L54.152 43.7924C54.4176 43.6263 54.5784 43.3355 54.5784 43.022V14.0508C54.5784 13.7199 54.3985 13.4149 54.109 13.2549L54.1088 13.2549ZM27.2895 1.81944C33.8714 1.81944 39.2271 7.17456 39.2271 13.757C39.2271 19.5145 29.9037 30.6025 27.2895 33.5965C24.7803 30.7222 16.0942 20.3937 15.4008 14.4774C15.398 14.4506 15.3956 14.4251 15.3903 14.3983C15.3671 14.1786 15.3521 13.9637 15.3521 13.757C15.3517 7.17479 20.7072 1.81947 27.2886 1.81947L27.2895 1.81944ZM52.7594 42.5192L39.1273 51.0792L15.6753 42.1716C15.4101 42.0713 15.1104 42.1001 14.8688 42.252L1.81991 50.4449V23.6215L13.8646 16.0532C15.8462 23.6743 26.1348 35.0506 26.6172 35.5808C26.7893 35.7708 27.0338 35.8788 27.29 35.8788C27.5463 35.8788 27.7908 35.7708 27.9629 35.5812C28.3036 35.2064 33.5409 29.4135 37.2847 23.3588L38.9067 23.9707C39.1726 24.0702 39.4711 24.041 39.7115 23.8899L52.7604 15.6967L52.7594 42.5192Z" fill="black"/>
</svg>
