<?xml version="1.0" encoding="UTF-8"?>
<svg width="700pt" height="700pt" version="1.1" viewBox="0 0 700 700" xmlns="http://www.w3.org/2000/svg">
 <path d="m151.39 26.215c-2.3242 0.003906-4.5508 0.93359-6.1875 2.582-1.6406 1.6484-2.5547 3.8789-2.5469 6.2031v121.88c0.011719 4.8203 3.9141 8.7266 8.7344 8.7344h122.98c2.3242 0.007812 4.5586-0.90625 6.2031-2.543 1.6484-1.6406 2.5781-3.8672 2.582-6.1914v-32.863c-0.003906-2.3203-0.93359-4.5469-2.582-6.1875-1.6445-1.6367-3.8789-2.5547-6.2031-2.543-4.8125 0.019532-8.7031 3.918-8.7148 8.7305v24.148h-105.48l0.003906-104.43h53.473c2.3242 0.007813 4.5547-0.90625 6.2031-2.5469 1.6484-1.6367 2.5781-3.8633 2.582-6.1875 0.007812-2.332-0.91406-4.5703-2.5625-6.2227-1.6484-1.6484-3.8906-2.5703-6.2227-2.5625zm137.98 1.2148c-0.46094-0.03125-0.92578-0.023438-1.3867 0.015624-2.3086 0.21094-4.4414 1.3281-5.9297 3.1133l-56.004 66.836-19.379-23.379c-3.0977-3.668-8.5742-4.1562-12.27-1.0938-3.6914 3.0781-4.2109 8.5547-1.1641 12.273l26.098 31.461c1.6523 2 4.1055 3.1602 6.6992 3.1758 2.5938 0.011719 5.0586-1.125 6.7344-3.1055l62.719-74.941c1.4922-1.7812 2.2109-4.082 2.0039-6.3984-0.20703-2.3164-1.3281-4.4531-3.1133-5.9375-1.418-1.1836-3.168-1.8906-5.0078-2.0195zm61.727 59.762c-4.8047 0.019532-8.6953 3.9102-8.7148 8.7148-0.007813 2.3242 0.90234 4.5508 2.5391 6.1992 1.6328 1.6484 3.8555 2.5781 6.1758 2.5859h197.46c2.332 0.011719 4.5703-0.91406 6.2227-2.5625 1.6484-1.6484 2.5703-3.8867 2.5625-6.2227-0.011719-2.3203-0.94141-4.5391-2.5898-6.1758-1.6445-1.6328-3.875-2.5469-6.1953-2.5391zm-199.71 123.11v0.003906c-4.8125 0.007812-8.7148 3.9023-8.7344 8.7148v121.95c0.019531 4.8125 3.9219 8.707 8.7344 8.7148h122.98c4.8359 0.019532 8.7656-3.8828 8.7852-8.7148v-32.883c0.011718-2.332-0.91406-4.5703-2.5625-6.2188-1.6484-1.6484-3.8867-2.5742-6.2227-2.5625-2.3203 0.007812-4.5391 0.9375-6.1758 2.5859-1.6328 1.6484-2.5469 3.875-2.5391 6.1953v24.098h-105.48l0.003906-104.38h53.473c2.332 0.007812 4.5742-0.91406 6.2227-2.5625 1.6484-1.6523 2.5703-3.8906 2.5625-6.2227-0.011719-2.3203-0.94141-4.543-2.5859-6.1758-1.6484-1.6367-3.8789-2.5508-6.1992-2.5391zm137.98 1.2148c-0.46094-0.027343-0.92578-0.023437-1.3867 0.019531-2.3086 0.20313-4.4414 1.3164-5.9297 3.0938l-56.004 66.855-19.379-23.379c-3.0781-3.6914-8.5547-4.2109-12.27-1.1641-1.793 1.4805-2.9258 3.6133-3.1445 5.9297-0.21484 2.3164 0.49609 4.6211 1.9805 6.4102l26.098 31.445c1.6641 1.9922 4.1211 3.1406 6.7148 3.1406s5.0547-1.1484 6.7188-3.1406l62.719-74.855c1.4922-1.7812 2.2109-4.082 2.0039-6.3984-0.20703-2.3125-1.3281-4.4492-3.1133-5.9375-1.418-1.1836-3.168-1.8906-5.0078-2.0195zm61.73 59.762-0.003907 0.003906c-4.8047 0.019532-8.6953 3.9102-8.7148 8.7148-0.007813 2.3203 0.90234 4.5508 2.5391 6.1953 1.6328 1.6484 3.8555 2.5781 6.1758 2.5898h197.46c2.332 0.007813 4.5703-0.91406 6.2227-2.5625 1.6484-1.6523 2.5703-3.8906 2.5625-6.2227-0.011719-2.3203-0.94141-4.543-2.5898-6.1758-1.6445-1.6367-3.875-2.5508-6.1953-2.5391zm-199.71 123.12c-4.8125 0.011718-8.7148 3.9062-8.7344 8.7188v121.95c0.019531 4.8086 3.9219 8.7031 8.7344 8.7148h122.98c4.8359 0.015625 8.7656-3.8828 8.7852-8.7148v-32.883c0.011718-2.332-0.91406-4.5703-2.5625-6.2227-1.6484-1.6484-3.8867-2.5703-6.2227-2.5625-2.3203 0.011718-4.5391 0.94141-6.1758 2.5898-1.6328 1.6445-2.5469 3.875-2.5391 6.1953v24.098h-105.48l0.003906-104.39h53.473c2.332 0.011718 4.5742-0.91406 6.2227-2.5625 1.6484-1.6484 2.5703-3.8867 2.5625-6.2188-0.011719-2.3242-0.94141-4.543-2.5859-6.1797-1.6484-1.6328-3.8789-2.5469-6.1992-2.5391zm136.6 1.2148c-2.3086 0.20703-4.4414 1.3281-5.9297 3.1094l-56.004 66.855-19.379-23.379c-3.0703-3.6953-8.5508-4.2227-12.27-1.1797-1.793 1.4805-2.9258 3.6133-3.1445 5.9297-0.21484 2.3125 0.49609 4.6211 1.9805 6.4102l26.098 31.461c1.6641 1.9922 4.1211 3.1406 6.7148 3.1406s5.0547-1.1484 6.7188-3.1406l62.719-74.852c1.4922-1.7812 2.2109-4.0859 2.0039-6.3984-0.20703-2.3164-1.3281-4.4531-3.1133-5.9414-1.7812-1.4922-4.0781-2.2188-6.3945-2.0156zm63.113 59.695c-2.3203 0.007812-4.543 0.9375-6.1758 2.5859-1.6367 1.6484-2.5469 3.875-2.5391 6.1992 0.019531 4.8047 3.9102 8.6953 8.7148 8.7148h197.46c2.3203 0.007812 4.5508-0.90625 6.1953-2.5391 1.6484-1.6367 2.5781-3.8555 2.5898-6.1758 0.007812-2.3359-0.91406-4.5742-2.5625-6.2227-1.6523-1.6484-3.8906-2.5742-6.2227-2.5625z"/>
</svg>
