<svg width="38" height="38" viewBox="0 0 38 38" fill="none" xmlns="http://www.w3.org/2000/svg">
<path d="M37.7654 27.9265L27.6377 17.807L36.1831 9.26977C37.5144 7.93825 38.0344 5.99771 37.5469 4.17904C37.0597 2.36009 35.6392 0.939529 33.8202 0.452375C32.0016 -0.0350834 30.061 0.484961 28.7295 1.81617L20.1923 10.3615L10.0728 0.233926C9.9242 0.0842464 9.72179 0 9.51091 0C9.30003 0 9.09763 0.0842464 8.94901 0.233926L0.245623 8.93731C0.0959434 9.08593 0.0116972 9.28834 0.0116972 9.49922C0.0116972 9.7101 0.0959434 9.9125 0.245623 10.0611L10.3732 20.1806C1.28192 29.2801 1.66171 28.9633 1.70919 28.884C1.59845 29.058 1.75687 28.4013 0.0160514 37.034C-0.0321648 37.2695 0.0295623 37.5143 0.183486 37.6989C0.337404 37.8836 0.566827 37.9882 0.807379 37.9834C0.886593 37.9834 8.9092 36.4011 9.17844 36.2426C9.32865 36.1398 11.4335 34.0115 17.8188 27.626C28.8647 38.6719 28.0339 37.9836 28.5005 37.9836C28.9671 37.9836 28.2946 38.5216 37.7661 29.051C37.9158 28.9023 38 28.6999 38 28.489C38 28.2782 37.9158 28.0758 37.7661 27.9271L37.7654 27.9265ZM9.28081 33.9161V33.9164C9.03682 32.9128 8.5748 31.9755 7.92786 31.1707L27.709 11.3896L29.7582 13.4546L9.28081 33.9161ZM24.5438 8.24066L26.593 10.2901L6.81181 30.0713V30.071C6.00726 29.4241 5.06964 28.962 4.06645 28.7181L24.5438 8.24066ZM2.23089 34.1223C2.88816 34.5501 3.44874 35.1107 3.87662 35.768L1.81949 36.1794L2.23089 34.1223ZM5.55408 35.4437C4.87614 34.167 3.83179 33.1227 2.55514 32.4447L3.02988 30.071C4.28137 30.2093 5.44862 30.7696 6.33877 31.66C7.22918 32.5502 7.78951 33.7174 7.9278 34.9689L5.55408 35.4437ZM29.8528 2.93942C30.5442 2.25009 31.4807 1.86304 32.4572 1.86331C33.4335 1.86357 34.3697 2.25116 35.0606 2.94077C35.7518 3.63064 36.141 4.56609 36.1431 5.54256C36.1431 7.37819 35.0275 8.17752 33.6428 9.56994L28.4285 4.35571L29.8528 2.93942ZM27.313 5.47128L32.5272 10.6855L30.8735 12.3392L25.6593 7.12495L27.313 5.47128ZM1.92237 9.49866L9.51011 1.91092L10.7682 3.16905L9.73955 4.18982V4.18955C9.42933 4.50004 9.42933 5.00286 9.73955 5.31334C10.0498 5.62356 10.5529 5.62356 10.8631 5.31334L11.8838 4.28464L13.933 6.33383L11.3219 8.93698C11.0117 9.24747 11.0117 9.75028 11.3219 10.0608C11.6324 10.371 12.1352 10.371 12.4457 10.0608L15.0489 7.44968L16.7025 9.10334L15.6738 10.1241V10.1238C15.3636 10.4343 15.3636 10.9371 15.6738 11.2476C15.9841 11.5578 16.4871 11.5578 16.7973 11.2476L17.8181 10.2189L19.0762 11.4771L11.4885 19.0648L1.92237 9.49866ZM28.4998 36.0761L18.9337 26.51L26.5215 18.9223L27.7796 20.1804L25.1685 22.7836C24.9404 23.0101 24.8718 23.3518 24.995 23.6488C25.1182 23.9458 25.4088 24.1384 25.7305 24.1366C26.1814 24.1366 26.0706 24.1366 28.8955 21.296L30.5489 22.9497L29.5202 23.9705H29.5205C29.2921 24.197 29.2235 24.5387 29.3469 24.8357C29.4701 25.1327 29.7607 25.3253 30.0821 25.3234C30.5174 25.3234 30.6281 25.1099 31.6645 24.0653L33.714 26.1148L31.1029 28.7179C30.8748 28.9444 30.8062 29.2862 30.9293 29.5832C31.0525 29.8801 31.3432 30.0727 31.6648 30.0709C32.1157 30.0709 32.005 30.0709 34.8298 27.2304L36.0877 28.4885L28.4998 36.0761Z" fill="black"/>
</svg>
