<svg width="177" height="128" viewBox="0 0 177 128" fill="none" xmlns="http://www.w3.org/2000/svg">
<path d="M114.276 60C108.657 57.8448 100.325 55.4201 90.0491 55.0353C77.7912 54.5927 67.9195 57.2675 61.781 59.4804C60.2608 54.1309 58.7406 48.8005 57.2204 43.4509C64.8791 41.0648 76.1941 38.5055 89.9914 38.8711C102.191 39.1982 112.275 41.6806 119.414 44.0667C117.701 49.3778 115.989 54.6889 114.276 60Z" fill="#6FBE44"/>
<path d="M56.8162 39.4484C65.3602 37.3894 76.7329 35.5613 90.1068 35.8499C102.191 36.1001 112.506 37.9859 120.472 40.0642C121.973 36.7544 123.474 33.002 124.841 28.8262C126.072 25.1123 126.996 21.5908 127.727 18.3387C126.823 19.5703 118.394 31.0007 114.18 28.9802C112.833 28.3451 112.256 26.4978 111.447 23.8615C109.485 17.569 110.581 12.7775 109.562 12.5273C108.965 12.3734 108.33 13.9705 107.06 15.9141C106.483 16.8185 101.518 24.4003 97.7078 23.8615C94.8599 23.4574 93.3204 18.5889 91.6078 13.1816C89.2794 5.75374 89.1639 -0.0191951 88.5481 4.79669e-05C88.0093 4.79669e-05 88.2595 4.3105 86.9894 9.81403C86.72 10.9879 83.6796 23.6498 78.8496 23.8807C76.8098 23.977 75.0202 21.8217 72.6341 18.9353C69.5937 15.2791 68.5545 12.0462 67.8041 12.2771C67.1883 12.4696 67.6694 14.6633 67.4 17.7037C67.323 18.4734 66.4763 27.0751 62.7046 28.2489C60.0298 29.0764 56.874 25.882 53.6219 22.6299C51.6014 20.5902 50.1774 18.6466 49.2729 17.2226C50.1196 21.0905 51.2935 25.3817 52.9291 29.9616C54.1607 33.4446 55.4885 36.6004 56.8162 39.4484Z" fill="#6FBE44"/>
<path d="M3.57 97C3.17 97 2.8 96.91 2.46 96.73C2.14 96.55 1.98 96.29 1.98 95.95V76.09C1.98 75.81 2.09 75.57 2.31 75.37C2.55 75.17 2.85 75.07 3.21 75.07H9.06C10.28 75.07 11.39 75.29 12.39 75.73C13.39 76.15 14.18 76.85 14.76 77.83C15.34 78.79 15.63 80.07 15.63 81.67V81.91C15.63 83.51 15.33 84.8 14.73 85.78C14.15 86.76 13.34 87.47 12.3 87.91C11.28 88.33 10.14 88.54 8.88 88.54H5.16V95.95C5.16 96.29 4.99 96.55 4.65 96.73C4.33 96.91 3.97 97 3.57 97ZM5.16 86.02H8.88C10 86.02 10.87 85.7 11.49 85.06C12.13 84.42 12.45 83.44 12.45 82.12V81.76C12.45 80.44 12.13 79.47 11.49 78.85C10.87 78.21 10 77.89 8.88 77.89H5.16V86.02ZM23.2045 97.24C22.1245 97.24 21.1145 96.96 20.1745 96.4C19.2345 95.84 18.4745 95.11 17.8945 94.21C17.3345 93.29 17.0545 92.31 17.0545 91.27V88.51C17.0545 87.45 17.3245 86.47 17.8645 85.57C18.4245 84.67 19.1745 83.95 20.1145 83.41C21.0745 82.87 22.1145 82.6 23.2345 82.6C24.3545 82.6 25.3845 82.87 26.3245 83.41C27.2645 83.93 28.0145 84.64 28.5745 85.54C29.1545 86.42 29.4445 87.41 29.4445 88.51V91.27C29.4445 92.29 29.1545 93.26 28.5745 94.18C28.0145 95.1 27.2545 95.84 26.2945 96.4C25.3545 96.96 24.3245 97.24 23.2045 97.24ZM23.2345 94.45C23.7945 94.45 24.3045 94.3 24.7645 94C25.2245 93.7 25.5945 93.31 25.8745 92.83C26.1545 92.33 26.2945 91.81 26.2945 91.27V88.51C26.2945 87.99 26.1545 87.49 25.8745 87.01C25.5945 86.53 25.2245 86.14 24.7645 85.84C24.3045 85.54 23.7945 85.39 23.2345 85.39C22.6545 85.39 22.1345 85.54 21.6745 85.84C21.2345 86.14 20.8745 86.53 20.5945 87.01C20.3345 87.49 20.2045 87.99 20.2045 88.51V91.27C20.2045 91.81 20.3345 92.33 20.5945 92.83C20.8745 93.31 21.2445 93.7 21.7045 94C22.1645 94.3 22.6745 94.45 23.2345 94.45ZM38.2444 97.24C36.8044 97.24 35.6144 96.98 34.6744 96.46C33.7544 95.94 33.0744 95.23 32.6344 94.33C32.1944 93.43 31.9744 92.41 31.9744 91.27V88.57C31.9744 87.45 32.1944 86.44 32.6344 85.54C33.0744 84.62 33.7544 83.9 34.6744 83.38C35.5944 82.86 36.7644 82.6 38.1844 82.6C39.1044 82.6 39.9044 82.71 40.5844 82.93C41.2844 83.15 41.8244 83.43 42.2044 83.77C42.6044 84.09 42.8044 84.43 42.8044 84.79C42.8044 84.97 42.7444 85.19 42.6244 85.45C42.5244 85.69 42.3744 85.9 42.1744 86.08C41.9944 86.24 41.7744 86.32 41.5144 86.32C41.3144 86.32 41.0944 86.24 40.8544 86.08C40.6344 85.92 40.3344 85.77 39.9544 85.63C39.5744 85.47 39.0644 85.39 38.4244 85.39C37.3044 85.39 36.4744 85.67 35.9344 86.23C35.3944 86.79 35.1244 87.57 35.1244 88.57V91.27C35.1244 92.27 35.3944 93.05 35.9344 93.61C36.4744 94.17 37.3144 94.45 38.4544 94.45C39.1144 94.45 39.6344 94.37 40.0144 94.21C40.3944 94.03 40.6944 93.86 40.9144 93.7C41.1544 93.54 41.3844 93.46 41.6044 93.46C41.8844 93.46 42.1244 93.54 42.3244 93.7C42.5444 93.86 42.7044 94.06 42.8044 94.3C42.9244 94.54 42.9844 94.76 42.9844 94.96C42.9844 95.3 42.7744 95.65 42.3544 96.01C41.9544 96.37 41.3944 96.67 40.6744 96.91C39.9744 97.13 39.1644 97.24 38.2444 97.24ZM47.0885 97C46.6485 97 46.2785 96.89 45.9785 96.67C45.6985 96.45 45.5585 96.21 45.5585 95.95V75.34C45.5585 75.04 45.6985 74.8 45.9785 74.62C46.2785 74.42 46.6485 74.32 47.0885 74.32C47.5485 74.32 47.9285 74.42 48.2285 74.62C48.5485 74.8 48.7085 75.04 48.7085 75.34V88.69L54.9785 82.93C55.1585 82.75 55.3785 82.66 55.6385 82.66C55.8785 82.66 56.1085 82.74 56.3285 82.9C56.5685 83.04 56.7685 83.23 56.9285 83.47C57.0885 83.69 57.1685 83.92 57.1685 84.16C57.1685 84.28 57.1485 84.4 57.1085 84.52C57.0685 84.62 56.9985 84.72 56.8985 84.82L53.0285 88.27L57.7385 95.05C57.8585 95.25 57.9185 95.43 57.9185 95.59C57.9185 95.85 57.8185 96.1 57.6185 96.34C57.4385 96.58 57.2085 96.78 56.9285 96.94C56.6685 97.1 56.4085 97.18 56.1485 97.18C55.7885 97.18 55.5085 97.03 55.3085 96.73L50.8985 90.22L48.7085 92.2V95.95C48.7085 96.21 48.5485 96.45 48.2285 96.67C47.9285 96.89 47.5485 97 47.0885 97ZM66.311 97.24C64.951 97.24 63.751 96.99 62.711 96.49C61.671 95.99 60.851 95.3 60.251 94.42C59.651 93.52 59.351 92.47 59.351 91.27V88.42C59.351 87.36 59.631 86.39 60.191 85.51C60.771 84.63 61.531 83.93 62.471 83.41C63.411 82.87 64.451 82.6 65.591 82.6C66.671 82.6 67.661 82.84 68.561 83.32C69.461 83.78 70.181 84.43 70.721 85.27C71.281 86.11 71.561 87.07 71.561 88.15C71.561 88.99 71.431 89.59 71.171 89.95C70.911 90.31 70.571 90.53 70.151 90.61C69.731 90.69 69.291 90.73 68.831 90.73H62.501V91.42C62.501 92.42 62.861 93.22 63.581 93.82C64.321 94.4 65.261 94.69 66.401 94.69C67.101 94.69 67.671 94.59 68.111 94.39C68.551 94.19 68.921 94 69.221 93.82C69.521 93.64 69.801 93.55 70.061 93.55C70.321 93.55 70.541 93.63 70.721 93.79C70.901 93.95 71.041 94.14 71.141 94.36C71.241 94.58 71.291 94.78 71.291 94.96C71.291 95.26 71.081 95.59 70.661 95.95C70.261 96.31 69.691 96.62 68.951 96.88C68.211 97.12 67.331 97.24 66.311 97.24ZM62.501 88.78H67.481C67.921 88.78 68.211 88.72 68.351 88.6C68.511 88.48 68.591 88.24 68.591 87.88C68.591 87.36 68.461 86.88 68.201 86.44C67.941 85.98 67.581 85.63 67.121 85.39C66.661 85.13 66.141 85 65.561 85C65.001 85 64.491 85.12 64.031 85.36C63.571 85.6 63.201 85.93 62.921 86.35C62.641 86.77 62.501 87.26 62.501 87.82V88.78ZM79.6193 97C77.9193 97 76.6193 96.63 75.7193 95.89C74.8193 95.13 74.3693 93.94 74.3693 92.32V77.29C74.3693 76.99 74.5293 76.75 74.8493 76.57C75.1893 76.37 75.5493 76.27 75.9293 76.27C76.3093 76.27 76.6693 76.37 77.0093 76.57C77.3493 76.75 77.5193 76.99 77.5193 77.29V82.78H81.1793C81.4593 82.78 81.6693 82.9 81.8093 83.14C81.9693 83.38 82.0493 83.65 82.0493 83.95C82.0493 84.25 81.9693 84.52 81.8093 84.76C81.6693 85 81.4593 85.12 81.1793 85.12H77.5193V92.32C77.5193 93.04 77.6693 93.55 77.9693 93.85C78.2893 94.15 78.8393 94.3 79.6193 94.3H80.6393C81.0993 94.3 81.4393 94.44 81.6593 94.72C81.8993 94.98 82.0193 95.29 82.0193 95.65C82.0193 95.99 81.8993 96.3 81.6593 96.58C81.4393 96.86 81.0993 97 80.6393 97H79.6193ZM92.5603 97C92.2203 97 91.9003 96.91 91.6003 96.73C91.3003 96.55 91.1503 96.29 91.1503 95.95V76.09C91.1503 75.73 91.3103 75.47 91.6303 75.31C91.9703 75.15 92.3403 75.07 92.7403 75.07C93.1403 75.07 93.5003 75.15 93.8203 75.31C94.1603 75.47 94.3303 75.73 94.3303 76.09V94.18H102.13C102.45 94.18 102.69 94.33 102.85 94.63C103.01 94.91 103.09 95.23 103.09 95.59C103.09 95.93 103.01 96.25 102.85 96.55C102.69 96.85 102.45 97 102.13 97H92.5603ZM111.339 97.24C109.979 97.24 108.779 96.99 107.739 96.49C106.699 95.99 105.879 95.3 105.279 94.42C104.679 93.52 104.379 92.47 104.379 91.27V88.42C104.379 87.36 104.659 86.39 105.219 85.51C105.799 84.63 106.559 83.93 107.499 83.41C108.439 82.87 109.479 82.6 110.619 82.6C111.699 82.6 112.689 82.84 113.589 83.32C114.489 83.78 115.209 84.43 115.749 85.27C116.309 86.11 116.589 87.07 116.589 88.15C116.589 88.99 116.459 89.59 116.199 89.95C115.939 90.31 115.599 90.53 115.179 90.61C114.759 90.69 114.319 90.73 113.859 90.73H107.529V91.42C107.529 92.42 107.889 93.22 108.609 93.82C109.349 94.4 110.289 94.69 111.429 94.69C112.129 94.69 112.699 94.59 113.139 94.39C113.579 94.19 113.949 94 114.249 93.82C114.549 93.64 114.829 93.55 115.089 93.55C115.349 93.55 115.569 93.63 115.749 93.79C115.929 93.95 116.069 94.14 116.169 94.36C116.269 94.58 116.319 94.78 116.319 94.96C116.319 95.26 116.109 95.59 115.689 95.95C115.289 96.31 114.719 96.62 113.979 96.88C113.239 97.12 112.359 97.24 111.339 97.24ZM107.529 88.78H112.509C112.949 88.78 113.239 88.72 113.379 88.6C113.539 88.48 113.619 88.24 113.619 87.88C113.619 87.36 113.489 86.88 113.229 86.44C112.969 85.98 112.609 85.63 112.149 85.39C111.689 85.13 111.169 85 110.589 85C110.029 85 109.519 85.12 109.059 85.36C108.599 85.6 108.229 85.93 107.949 86.35C107.669 86.77 107.529 87.26 107.529 87.82V88.78ZM122.547 97.24C121.447 97.24 120.507 96.92 119.727 96.28C118.947 95.62 118.557 94.62 118.557 93.28C118.557 92.14 118.857 91.26 119.457 90.64C120.057 90.02 120.877 89.59 121.917 89.35C122.977 89.11 124.197 88.99 125.577 88.99H126.897V88.45C126.897 87.93 126.797 87.43 126.597 86.95C126.417 86.45 126.107 86.04 125.667 85.72C125.247 85.38 124.667 85.21 123.927 85.21C123.187 85.21 122.617 85.28 122.217 85.42C121.817 85.56 121.497 85.71 121.257 85.87C121.017 86.03 120.797 86.11 120.597 86.11C120.237 86.11 119.957 85.94 119.757 85.6C119.557 85.24 119.457 84.88 119.457 84.52C119.457 84.16 119.687 83.84 120.147 83.56C120.627 83.26 121.217 83.03 121.917 82.87C122.617 82.69 123.307 82.6 123.987 82.6C125.467 82.6 126.647 82.88 127.527 83.44C128.407 83.98 129.047 84.69 129.447 85.57C129.847 86.45 130.047 87.4 130.047 88.42V95.95C130.047 96.23 129.897 96.48 129.597 96.7C129.317 96.9 128.957 97 128.517 97C128.117 97 127.777 96.9 127.497 96.7C127.217 96.48 127.077 96.23 127.077 95.95V94.9C126.557 95.5 125.927 96.04 125.187 96.52C124.447 97 123.567 97.24 122.547 97.24ZM123.687 94.84C124.187 94.84 124.677 94.69 125.157 94.39C125.657 94.09 126.067 93.71 126.387 93.25C126.727 92.79 126.897 92.32 126.897 91.84V90.73H126.147C125.387 90.73 124.667 90.78 123.987 90.88C123.307 90.96 122.757 91.16 122.337 91.48C121.937 91.78 121.737 92.25 121.737 92.89C121.737 93.57 121.917 94.07 122.277 94.39C122.657 94.69 123.127 94.84 123.687 94.84ZM138.897 103.75C137.737 103.75 136.667 103.58 135.687 103.24C134.707 102.92 133.927 102.45 133.347 101.83C132.767 101.21 132.477 100.47 132.477 99.61C132.477 98.81 132.707 98.14 133.167 97.6C133.627 97.08 134.167 96.68 134.787 96.4C134.387 96.22 134.057 95.98 133.797 95.68C133.537 95.38 133.407 94.96 133.407 94.42C133.407 93.86 133.547 93.41 133.827 93.07C134.107 92.73 134.467 92.42 134.907 92.14C134.347 91.7 133.907 91.16 133.587 90.52C133.287 89.86 133.137 89.14 133.137 88.36V87.52C133.137 86.56 133.367 85.71 133.827 84.97C134.287 84.23 134.937 83.65 135.777 83.23C136.637 82.81 137.617 82.6 138.717 82.6C139.397 82.6 140.027 82.69 140.607 82.87C141.207 83.05 141.737 83.3 142.197 83.62C142.517 82.88 142.837 82.36 143.157 82.06C143.497 81.76 143.817 81.61 144.117 81.61C144.537 81.61 144.857 81.73 145.077 81.97C145.297 82.21 145.407 82.45 145.407 82.69C145.407 82.85 145.357 83 145.257 83.14C145.177 83.26 145.057 83.36 144.897 83.44C144.697 83.54 144.457 83.68 144.177 83.86C143.917 84.02 143.657 84.28 143.397 84.64C143.737 85.02 143.987 85.46 144.147 85.96C144.307 86.46 144.387 86.98 144.387 87.52V88.36C144.387 89.3 144.147 90.15 143.667 90.91C143.187 91.67 142.517 92.27 141.657 92.71C140.797 93.13 139.817 93.34 138.717 93.34C137.937 93.34 137.247 93.22 136.647 92.98C136.487 93.08 136.347 93.2 136.227 93.34C136.127 93.46 136.077 93.62 136.077 93.82C136.077 94.18 136.297 94.44 136.737 94.6C137.177 94.76 137.737 94.88 138.417 94.96C139.117 95.04 139.857 95.14 140.637 95.26C141.417 95.38 142.147 95.58 142.827 95.86C143.527 96.12 144.097 96.51 144.537 97.03C144.977 97.57 145.197 98.3 145.197 99.22C145.197 100.26 144.907 101.11 144.327 101.77C143.747 102.45 142.977 102.95 142.017 103.27C141.077 103.59 140.037 103.75 138.897 103.75ZM138.837 101.65C139.817 101.65 140.607 101.43 141.207 100.99C141.827 100.57 142.137 100.01 142.137 99.31C142.137 98.81 141.987 98.42 141.687 98.14C141.387 97.86 140.997 97.65 140.517 97.51C140.037 97.37 139.527 97.27 138.987 97.21C138.467 97.15 137.967 97.09 137.487 97.03C136.927 97.23 136.447 97.51 136.047 97.87C135.667 98.25 135.477 98.72 135.477 99.28C135.477 100.02 135.787 100.6 136.407 101.02C137.047 101.44 137.857 101.65 138.837 101.65ZM138.777 91.33C139.577 91.33 140.197 91.05 140.637 90.49C141.097 89.93 141.327 89.22 141.327 88.36V87.52C141.327 86.7 141.097 86.01 140.637 85.45C140.197 84.89 139.567 84.61 138.747 84.61C137.927 84.61 137.297 84.89 136.857 85.45C136.417 86.01 136.197 86.7 136.197 87.52V88.33C136.197 89.17 136.417 89.88 136.857 90.46C137.297 91.04 137.937 91.33 138.777 91.33ZM153.832 97.24C152.712 97.24 151.672 96.97 150.712 96.43C149.772 95.87 149.022 95.14 148.462 94.24C147.902 93.32 147.622 92.35 147.622 91.33V83.83C147.622 83.57 147.772 83.33 148.072 83.11C148.392 82.89 148.772 82.78 149.212 82.78C149.632 82.78 149.992 82.89 150.292 83.11C150.612 83.33 150.772 83.57 150.772 83.83V91.33C150.772 91.85 150.902 92.35 151.162 92.83C151.442 93.31 151.812 93.7 152.272 94C152.752 94.3 153.272 94.45 153.832 94.45C154.392 94.45 154.902 94.3 155.362 94C155.822 93.7 156.182 93.31 156.442 92.83C156.722 92.35 156.862 91.85 156.862 91.33V83.8C156.862 83.52 157.022 83.28 157.342 83.08C157.682 82.88 158.052 82.78 158.452 82.78C158.912 82.78 159.282 82.88 159.562 83.08C159.862 83.28 160.012 83.52 160.012 83.8V91.33C160.012 92.39 159.732 93.37 159.172 94.27C158.612 95.17 157.862 95.89 156.922 96.43C155.982 96.97 154.952 97.24 153.832 97.24ZM169.873 97.24C168.513 97.24 167.313 96.99 166.273 96.49C165.233 95.99 164.413 95.3 163.813 94.42C163.213 93.52 162.913 92.47 162.913 91.27V88.42C162.913 87.36 163.193 86.39 163.753 85.51C164.333 84.63 165.093 83.93 166.033 83.41C166.973 82.87 168.013 82.6 169.153 82.6C170.233 82.6 171.223 82.84 172.123 83.32C173.023 83.78 173.743 84.43 174.283 85.27C174.843 86.11 175.123 87.07 175.123 88.15C175.123 88.99 174.993 89.59 174.733 89.95C174.473 90.31 174.133 90.53 173.713 90.61C173.293 90.69 172.853 90.73 172.393 90.73H166.063V91.42C166.063 92.42 166.423 93.22 167.143 93.82C167.883 94.4 168.823 94.69 169.963 94.69C170.663 94.69 171.233 94.59 171.673 94.39C172.113 94.19 172.483 94 172.783 93.82C173.083 93.64 173.363 93.55 173.623 93.55C173.883 93.55 174.103 93.63 174.283 93.79C174.463 93.95 174.603 94.14 174.703 94.36C174.803 94.58 174.853 94.78 174.853 94.96C174.853 95.26 174.643 95.59 174.223 95.95C173.823 96.31 173.253 96.62 172.513 96.88C171.773 97.12 170.893 97.24 169.873 97.24ZM166.063 88.78H171.043C171.483 88.78 171.773 88.72 171.913 88.6C172.073 88.48 172.153 88.24 172.153 87.88C172.153 87.36 172.023 86.88 171.763 86.44C171.503 85.98 171.143 85.63 170.683 85.39C170.223 85.13 169.703 85 169.123 85C168.563 85 168.053 85.12 167.593 85.36C167.133 85.6 166.763 85.93 166.483 86.35C166.203 86.77 166.063 87.26 166.063 87.82V88.78Z" fill="white"/>
<path d="M11.996 124.096C11.3667 124.096 10.8013 123.984 10.3 123.76C9.79867 123.536 9.39867 123.173 9.1 122.672C8.80133 122.171 8.652 121.504 8.652 120.672V112.704C8.652 112.565 8.70533 112.464 8.812 112.4C8.91867 112.336 9.04133 112.304 9.18 112.304C9.31867 112.304 9.44133 112.336 9.548 112.4C9.65467 112.464 9.708 112.565 9.708 112.704V120.672C9.708 121.515 9.91067 122.133 10.316 122.528C10.7213 122.923 11.2813 123.12 11.996 123.12C12.7213 123.12 13.2867 122.923 13.692 122.528C14.0973 122.133 14.3 121.515 14.3 120.672V112.704C14.3 112.565 14.3533 112.464 14.46 112.4C14.5667 112.336 14.6893 112.304 14.828 112.304C14.9667 112.304 15.0893 112.336 15.196 112.4C15.3027 112.464 15.356 112.565 15.356 112.704V120.672C15.356 121.504 15.2067 122.171 14.908 122.672C14.62 123.173 14.22 123.536 13.708 123.76C13.196 123.984 12.6253 124.096 11.996 124.096ZM19.2702 124C19.1316 124 19.0089 123.957 18.9022 123.872C18.8062 123.787 18.7582 123.691 18.7582 123.584V116.832C18.7582 116.704 18.8062 116.608 18.9022 116.544C19.0089 116.469 19.1316 116.432 19.2702 116.432C19.4089 116.432 19.5262 116.469 19.6222 116.544C19.7182 116.608 19.7662 116.704 19.7662 116.832V117.552C19.9369 117.243 20.2036 116.965 20.5662 116.72C20.9289 116.464 21.3769 116.336 21.9102 116.336C22.4222 116.336 22.8916 116.475 23.3182 116.752C23.7556 117.019 24.1022 117.381 24.3583 117.84C24.6143 118.288 24.7422 118.789 24.7422 119.344V123.584C24.7422 123.723 24.6889 123.829 24.5823 123.904C24.4756 123.968 24.3529 124 24.2143 124C24.0969 124 23.9796 123.968 23.8622 123.904C23.7556 123.829 23.7023 123.723 23.7023 123.584V119.344C23.7023 118.992 23.6116 118.661 23.4302 118.352C23.2489 118.043 23.0089 117.792 22.7102 117.6C22.4116 117.397 22.0809 117.296 21.7182 117.296C21.3982 117.296 21.0889 117.381 20.7902 117.552C20.5022 117.712 20.2622 117.941 20.0702 118.24C19.8889 118.539 19.7982 118.907 19.7982 119.344V123.584C19.7982 123.691 19.7449 123.787 19.6382 123.872C19.5422 123.957 19.4196 124 19.2702 124ZM28.5525 114.192C28.3605 114.192 28.1898 114.128 28.0405 114C27.9018 113.861 27.8325 113.701 27.8325 113.52C27.8325 113.339 27.9018 113.184 28.0405 113.056C28.1898 112.928 28.3605 112.864 28.5525 112.864C28.7445 112.864 28.9098 112.928 29.0485 113.056C29.1872 113.184 29.2565 113.339 29.2565 113.52C29.2565 113.701 29.1872 113.861 29.0485 114C28.9098 114.128 28.7445 114.192 28.5525 114.192ZM28.5365 124C28.3978 124 28.2752 123.957 28.1685 123.872C28.0725 123.787 28.0245 123.691 28.0245 123.584V116.832C28.0245 116.704 28.0725 116.608 28.1685 116.544C28.2752 116.469 28.3978 116.432 28.5365 116.432C28.6858 116.432 28.8085 116.469 28.9045 116.544C29.0112 116.608 29.0645 116.704 29.0645 116.832V123.584C29.0645 123.691 29.0112 123.787 28.9045 123.872C28.8085 123.957 28.6858 124 28.5365 124ZM34.9278 124C34.1064 124 33.4771 123.813 33.0397 123.44C32.6024 123.067 32.3837 122.469 32.3837 121.648V113.232C32.3837 113.104 32.4371 113.008 32.5437 112.944C32.6611 112.869 32.7784 112.832 32.8958 112.832C33.0344 112.832 33.1571 112.869 33.2637 112.944C33.3704 113.008 33.4237 113.104 33.4237 113.232V116.432H35.5038C35.6104 116.432 35.6958 116.475 35.7598 116.56C35.8238 116.645 35.8558 116.747 35.8558 116.864C35.8558 116.981 35.8238 117.083 35.7598 117.168C35.6958 117.253 35.6104 117.296 35.5038 117.296H33.4237V121.648C33.4237 122.171 33.5357 122.539 33.7598 122.752C33.9838 122.955 34.3731 123.056 34.9278 123.056H35.3758C35.5251 123.056 35.6371 123.104 35.7118 123.2C35.7971 123.285 35.8398 123.392 35.8398 123.52C35.8398 123.648 35.7971 123.76 35.7118 123.856C35.6371 123.952 35.5251 124 35.3758 124H34.9278ZM41.5219 124.112C40.8499 124.112 40.2525 123.984 39.7299 123.728C39.2179 123.472 38.8125 123.12 38.5139 122.672C38.2259 122.213 38.0819 121.68 38.0819 121.072V119.296C38.0819 118.763 38.2205 118.272 38.4979 117.824C38.7752 117.365 39.1432 117.003 39.6019 116.736C40.0712 116.469 40.5832 116.336 41.1379 116.336C41.6712 116.336 42.1619 116.464 42.6099 116.72C43.0685 116.965 43.4365 117.307 43.7139 117.744C43.9912 118.181 44.1299 118.688 44.1299 119.264C44.1299 119.669 44.0605 119.963 43.9219 120.144C43.7832 120.325 43.6072 120.437 43.3939 120.48C43.1912 120.512 42.9725 120.528 42.7379 120.528H39.1219V121.12C39.1219 121.76 39.3512 122.267 39.8099 122.64C40.2685 123.013 40.8499 123.2 41.5539 123.2C41.9805 123.2 42.3112 123.147 42.5459 123.04C42.7805 122.933 42.9619 122.827 43.0899 122.72C43.2285 122.613 43.3565 122.56 43.4739 122.56C43.5592 122.56 43.6339 122.592 43.6979 122.656C43.7725 122.709 43.8259 122.773 43.8579 122.848C43.9005 122.923 43.9219 122.992 43.9219 123.056C43.9219 123.173 43.8259 123.317 43.6339 123.488C43.4419 123.659 43.1645 123.808 42.8019 123.936C42.4392 124.053 42.0125 124.112 41.5219 124.112ZM39.1219 119.76H42.3219C42.6419 119.76 42.8552 119.728 42.9619 119.664C43.0685 119.589 43.1219 119.44 43.1219 119.216C43.1219 118.875 43.0365 118.555 42.8659 118.256C42.6952 117.947 42.4605 117.696 42.1619 117.504C41.8632 117.301 41.5165 117.2 41.1219 117.2C40.7592 117.2 40.4232 117.291 40.1139 117.472C39.8152 117.653 39.5752 117.888 39.3939 118.176C39.2125 118.464 39.1219 118.789 39.1219 119.152V119.76ZM54.4371 124C54.2985 124 54.1758 123.968 54.0691 123.904C53.9625 123.829 53.9091 123.723 53.9091 123.584V113.296H51.2211C51.0931 113.296 50.9918 113.248 50.9171 113.152C50.8425 113.045 50.8051 112.928 50.8051 112.8C50.8051 112.672 50.8425 112.56 50.9171 112.464C50.9918 112.357 51.0931 112.304 51.2211 112.304H57.6371C57.7758 112.304 57.8771 112.357 57.9411 112.464C58.0051 112.56 58.0371 112.667 58.0371 112.784C58.0371 112.912 58.0051 113.029 57.9411 113.136C57.8771 113.243 57.7758 113.296 57.6371 113.296H54.9651V123.584C54.9651 123.723 54.9065 123.829 54.7891 123.904C54.6825 123.968 54.5651 124 54.4371 124ZM61.1181 124C60.9795 124 60.8568 123.957 60.7501 123.872C60.6541 123.787 60.6061 123.691 60.6061 123.584V112.192C60.6061 112.064 60.6541 111.968 60.7501 111.904C60.8568 111.829 60.9795 111.792 61.1181 111.792C61.2675 111.792 61.3901 111.829 61.4861 111.904C61.5928 111.968 61.6461 112.064 61.6461 112.192V117.552C61.8275 117.243 62.0941 116.965 62.4461 116.72C62.7981 116.464 63.2355 116.336 63.7581 116.336C64.2701 116.336 64.7395 116.475 65.1661 116.752C65.6035 117.019 65.9501 117.381 66.2061 117.84C66.4621 118.288 66.5901 118.789 66.5901 119.344V123.584C66.5901 123.723 66.5368 123.829 66.4301 123.904C66.3235 123.968 66.2008 124 66.0621 124C65.9448 124 65.8275 123.968 65.7101 123.904C65.6035 123.829 65.5501 123.723 65.5501 123.584V119.344C65.5501 118.992 65.4595 118.661 65.2781 118.352C65.0968 118.043 64.8568 117.792 64.5581 117.6C64.2595 117.397 63.9288 117.296 63.5661 117.296C63.2461 117.296 62.9368 117.381 62.6381 117.552C62.3501 117.712 62.1101 117.941 61.9181 118.24C61.7368 118.539 61.6461 118.907 61.6461 119.344V123.584C61.6461 123.691 61.5928 123.787 61.4861 123.872C61.3901 123.957 61.2675 124 61.1181 124ZM70.384 124C70.2453 124 70.1227 123.957 70.016 123.872C69.92 123.787 69.872 123.691 69.872 123.584V116.832C69.872 116.704 69.92 116.608 70.016 116.544C70.1227 116.469 70.2453 116.432 70.384 116.432C70.5227 116.432 70.64 116.469 70.736 116.544C70.832 116.608 70.88 116.704 70.88 116.832V117.616C70.9973 117.392 71.1573 117.184 71.36 116.992C71.5627 116.8 71.8027 116.645 72.08 116.528C72.3573 116.4 72.672 116.336 73.024 116.336H73.584C73.7013 116.336 73.7973 116.384 73.872 116.48C73.9573 116.576 74 116.688 74 116.816C74 116.955 73.9573 117.072 73.872 117.168C73.7973 117.253 73.7013 117.296 73.584 117.296H73.024C72.672 117.296 72.3307 117.392 72 117.584C71.68 117.776 71.4187 118.043 71.216 118.384C71.0133 118.725 70.912 119.141 70.912 119.632V123.584C70.912 123.691 70.8587 123.787 70.752 123.872C70.656 123.957 70.5333 124 70.384 124ZM78.9215 124.112C78.3775 124.112 77.8762 123.973 77.4175 123.696C76.9588 123.408 76.5855 123.035 76.2975 122.576C76.0202 122.107 75.8815 121.605 75.8815 121.072V119.344C75.8815 118.8 76.0148 118.304 76.2815 117.856C76.5588 117.397 76.9268 117.029 77.3855 116.752C77.8548 116.475 78.3668 116.336 78.9215 116.336C79.4655 116.336 79.9668 116.475 80.4255 116.752C80.8948 117.019 81.2682 117.376 81.5455 117.824C81.8228 118.272 81.9615 118.779 81.9615 119.344V121.072C81.9615 121.595 81.8228 122.091 81.5455 122.56C81.2682 123.029 80.8948 123.408 80.4255 123.696C79.9668 123.973 79.4655 124.112 78.9215 124.112ZM78.9215 123.152C79.2948 123.152 79.6308 123.056 79.9295 122.864C80.2282 122.661 80.4682 122.4 80.6495 122.08C80.8308 121.76 80.9215 121.424 80.9215 121.072V119.344C80.9215 118.992 80.8308 118.661 80.6495 118.352C80.4788 118.043 80.2388 117.792 79.9295 117.6C79.6308 117.397 79.2948 117.296 78.9215 117.296C78.5482 117.296 78.2122 117.397 77.9135 117.6C77.6148 117.792 77.3748 118.043 77.1935 118.352C77.0122 118.661 76.9215 118.992 76.9215 119.344V121.072C76.9215 121.424 77.0122 121.76 77.1935 122.08C77.3748 122.4 77.6148 122.661 77.9135 122.864C78.2228 123.056 78.5588 123.152 78.9215 123.152ZM88.0215 124.112C87.4562 124.112 86.9388 123.973 86.4695 123.696C86.0108 123.419 85.6428 123.051 85.3655 122.592C85.0988 122.123 84.9655 121.627 84.9655 121.104V116.848C84.9655 116.741 85.0188 116.645 85.1255 116.56C85.2322 116.475 85.3548 116.432 85.4935 116.432C85.6322 116.432 85.7495 116.475 85.8455 116.56C85.9522 116.645 86.0055 116.741 86.0055 116.848V121.104C86.0055 121.456 86.0962 121.787 86.2775 122.096C86.4588 122.405 86.6988 122.661 86.9975 122.864C87.2962 123.056 87.6322 123.152 88.0055 123.152C88.3895 123.152 88.7308 123.056 89.0295 122.864C89.3282 122.672 89.5628 122.421 89.7335 122.112C89.9148 121.792 90.0055 121.456 90.0055 121.104V116.832C90.0055 116.715 90.0588 116.619 90.1655 116.544C90.2722 116.469 90.3948 116.432 90.5335 116.432C90.6935 116.432 90.8162 116.469 90.9015 116.544C90.9975 116.619 91.0455 116.715 91.0455 116.832V121.104C91.0455 121.648 90.9068 122.149 90.6295 122.608C90.3628 123.056 89.9948 123.419 89.5255 123.696C89.0668 123.973 88.5655 124.112 88.0215 124.112ZM97.015 127.712C96.3857 127.712 95.8257 127.621 95.335 127.44C94.855 127.269 94.471 127.024 94.183 126.704C93.9057 126.395 93.767 126.021 93.767 125.584C93.767 125.115 93.9057 124.741 94.183 124.464C94.4603 124.187 94.775 123.979 95.127 123.84C94.871 123.744 94.6577 123.616 94.487 123.456C94.327 123.285 94.247 123.045 94.247 122.736C94.247 122.437 94.3217 122.203 94.471 122.032C94.6203 121.851 94.8123 121.701 95.047 121.584C94.759 121.349 94.535 121.061 94.375 120.72C94.2257 120.368 94.151 119.984 94.151 119.568V118.96C94.151 118.448 94.263 117.995 94.487 117.6C94.7217 117.205 95.047 116.896 95.463 116.672C95.879 116.448 96.3643 116.336 96.919 116.336C97.2923 116.336 97.639 116.395 97.959 116.512C98.279 116.629 98.5563 116.795 98.791 117.008C98.951 116.677 99.1323 116.427 99.335 116.256C99.5377 116.085 99.7297 116 99.911 116C100.082 116 100.204 116.048 100.279 116.144C100.364 116.229 100.407 116.32 100.407 116.416C100.407 116.512 100.38 116.592 100.327 116.656C100.274 116.709 100.21 116.747 100.135 116.768C100.007 116.789 99.8577 116.848 99.687 116.944C99.527 117.04 99.3777 117.211 99.239 117.456C99.3883 117.659 99.5003 117.888 99.575 118.144C99.6497 118.4 99.687 118.672 99.687 118.96V119.568C99.687 120.069 99.5697 120.523 99.335 120.928C99.1003 121.333 98.7697 121.653 98.343 121.888C97.927 122.112 97.447 122.224 96.903 122.224C96.4443 122.224 96.0337 122.133 95.671 121.952C95.5537 122.016 95.4417 122.096 95.335 122.192C95.2283 122.277 95.175 122.405 95.175 122.576C95.175 122.811 95.2977 122.981 95.543 123.088C95.7883 123.195 96.0977 123.269 96.471 123.312C96.8443 123.355 97.239 123.403 97.655 123.456C98.0817 123.499 98.4817 123.584 98.855 123.712C99.239 123.84 99.5483 124.037 99.783 124.304C100.028 124.571 100.151 124.949 100.151 125.44C100.151 125.941 100.012 126.357 99.735 126.688C99.4683 127.029 99.1003 127.285 98.631 127.456C98.1617 127.627 97.623 127.712 97.015 127.712ZM96.999 126.928C97.671 126.928 98.1937 126.795 98.567 126.528C98.9403 126.261 99.127 125.909 99.127 125.472C99.127 125.131 99.0257 124.869 98.823 124.688C98.6203 124.517 98.359 124.395 98.039 124.32C97.7297 124.245 97.4043 124.192 97.063 124.16C96.7323 124.128 96.4443 124.096 96.199 124.064C95.8257 124.181 95.495 124.352 95.207 124.576C94.919 124.8 94.775 125.104 94.775 125.488C94.775 125.915 94.9723 126.261 95.367 126.528C95.7617 126.795 96.3057 126.928 96.999 126.928ZM96.935 121.44C97.4683 121.44 97.8897 121.264 98.199 120.912C98.5083 120.549 98.663 120.101 98.663 119.568V118.96C98.663 118.437 98.5083 118 98.199 117.648C97.9003 117.296 97.4737 117.12 96.919 117.12C96.3643 117.12 95.9323 117.296 95.623 117.648C95.3243 118 95.175 118.437 95.175 118.96V119.552C95.175 120.085 95.3297 120.533 95.639 120.896C95.9483 121.259 96.3803 121.44 96.935 121.44ZM103.481 124C103.342 124 103.219 123.957 103.113 123.872C103.017 123.787 102.969 123.691 102.969 123.584V112.192C102.969 112.064 103.017 111.968 103.113 111.904C103.219 111.829 103.342 111.792 103.481 111.792C103.63 111.792 103.753 111.829 103.849 111.904C103.955 111.968 104.009 112.064 104.009 112.192V117.552C104.19 117.243 104.457 116.965 104.809 116.72C105.161 116.464 105.598 116.336 106.121 116.336C106.633 116.336 107.102 116.475 107.529 116.752C107.966 117.019 108.313 117.381 108.569 117.84C108.825 118.288 108.953 118.789 108.953 119.344V123.584C108.953 123.723 108.899 123.829 108.793 123.904C108.686 123.968 108.563 124 108.425 124C108.307 124 108.19 123.968 108.073 123.904C107.966 123.829 107.913 123.723 107.913 123.584V119.344C107.913 118.992 107.822 118.661 107.641 118.352C107.459 118.043 107.219 117.792 106.921 117.6C106.622 117.397 106.291 117.296 105.929 117.296C105.609 117.296 105.299 117.381 105.001 117.552C104.713 117.712 104.473 117.941 104.281 118.24C104.099 118.539 104.009 118.907 104.009 119.344V123.584C104.009 123.691 103.955 123.787 103.849 123.872C103.753 123.957 103.63 124 103.481 124ZM120.222 124.096C119.603 124.096 119.043 123.984 118.542 123.76C118.04 123.536 117.64 123.173 117.342 122.672C117.043 122.171 116.894 121.504 116.894 120.672V115.728C116.894 114.896 117.043 114.229 117.342 113.728C117.64 113.227 118.035 112.864 118.526 112.64C119.027 112.416 119.587 112.304 120.206 112.304C120.888 112.304 121.48 112.427 121.982 112.672C122.483 112.907 122.872 113.232 123.15 113.648C123.427 114.064 123.566 114.544 123.566 115.088C123.566 115.28 123.518 115.419 123.422 115.504C123.326 115.579 123.198 115.616 123.038 115.616C122.888 115.616 122.76 115.584 122.654 115.52C122.558 115.456 122.504 115.355 122.494 115.216C122.451 114.811 122.339 114.464 122.158 114.176C121.976 113.888 121.726 113.669 121.406 113.52C121.086 113.36 120.691 113.28 120.222 113.28C119.507 113.28 118.952 113.483 118.558 113.888C118.163 114.283 117.966 114.896 117.966 115.728V120.672C117.966 121.504 118.163 122.123 118.558 122.528C118.952 122.923 119.507 123.12 120.222 123.12C120.936 123.12 121.491 122.923 121.886 122.528C122.291 122.123 122.494 121.504 122.494 120.672V118.768H120.366C120.238 118.768 120.136 118.725 120.062 118.64C119.998 118.544 119.966 118.437 119.966 118.32C119.966 118.203 119.998 118.096 120.062 118C120.136 117.904 120.238 117.856 120.366 117.856H123.166C123.294 117.856 123.39 117.899 123.454 117.984C123.528 118.069 123.566 118.171 123.566 118.288V120.672C123.566 121.504 123.416 122.171 123.118 122.672C122.819 123.173 122.419 123.536 121.918 123.76C121.416 123.984 120.851 124.096 120.222 124.096ZM128.51 124.112C127.902 124.112 127.384 123.941 126.958 123.6C126.542 123.248 126.334 122.715 126.334 122C126.334 121.413 126.488 120.965 126.798 120.656C127.118 120.336 127.555 120.117 128.11 120C128.675 119.872 129.326 119.808 130.062 119.808H130.878V119.44C130.878 119.088 130.814 118.747 130.686 118.416C130.568 118.075 130.371 117.797 130.094 117.584C129.827 117.36 129.459 117.248 128.99 117.248C128.638 117.248 128.35 117.285 128.126 117.36C127.902 117.435 127.726 117.515 127.598 117.6C127.47 117.675 127.363 117.712 127.278 117.712C127.15 117.712 127.043 117.648 126.958 117.52C126.883 117.392 126.846 117.275 126.846 117.168C126.846 117.019 126.958 116.885 127.182 116.768C127.406 116.64 127.683 116.539 128.014 116.464C128.355 116.379 128.691 116.336 129.022 116.336C129.736 116.336 130.302 116.485 130.718 116.784C131.144 117.072 131.448 117.451 131.63 117.92C131.822 118.389 131.918 118.891 131.918 119.424V123.584C131.918 123.701 131.87 123.803 131.774 123.888C131.688 123.963 131.566 124 131.406 124C131.278 124 131.16 123.963 131.054 123.888C130.958 123.803 130.91 123.701 130.91 123.584V122.88C130.643 123.2 130.312 123.488 129.918 123.744C129.523 123.989 129.054 124.112 128.51 124.112ZM128.766 123.232C129.118 123.232 129.454 123.141 129.774 122.96C130.094 122.779 130.355 122.56 130.558 122.304C130.771 122.037 130.878 121.787 130.878 121.552V120.528H130.206C129.726 120.528 129.267 120.56 128.83 120.624C128.403 120.677 128.051 120.8 127.774 120.992C127.507 121.184 127.374 121.488 127.374 121.904C127.374 122.363 127.507 122.699 127.774 122.912C128.051 123.125 128.382 123.232 128.766 123.232ZM135.717 124C135.578 124 135.456 123.957 135.349 123.872C135.253 123.787 135.205 123.691 135.205 123.584V116.832C135.205 116.704 135.253 116.608 135.349 116.544C135.456 116.469 135.578 116.432 135.717 116.432C135.856 116.432 135.973 116.469 136.069 116.544C136.165 116.608 136.213 116.704 136.213 116.832V117.552C136.394 117.243 136.661 116.965 137.013 116.72C137.376 116.464 137.818 116.336 138.341 116.336C138.874 116.336 139.338 116.485 139.733 116.784C140.128 117.083 140.421 117.467 140.613 117.936C140.89 117.392 141.248 116.992 141.685 116.736C142.133 116.469 142.586 116.336 143.045 116.336C143.504 116.336 143.936 116.453 144.341 116.688C144.757 116.923 145.093 117.264 145.349 117.712C145.605 118.149 145.733 118.693 145.733 119.344V123.584C145.733 123.691 145.68 123.787 145.573 123.872C145.477 123.957 145.354 124 145.205 124C145.066 124 144.944 123.957 144.837 123.872C144.741 123.787 144.693 123.691 144.693 123.584V119.344C144.693 118.885 144.602 118.507 144.421 118.208C144.24 117.909 144.005 117.685 143.717 117.536C143.44 117.376 143.157 117.296 142.869 117.296C142.56 117.296 142.261 117.376 141.973 117.536C141.696 117.696 141.461 117.925 141.269 118.224C141.088 118.512 140.997 118.859 140.997 119.264V123.6C140.997 123.739 140.938 123.84 140.821 123.904C140.714 123.968 140.597 124 140.469 124C140.352 124 140.234 123.968 140.117 123.904C140.01 123.84 139.957 123.739 139.957 123.6V119.28C139.957 118.896 139.872 118.555 139.701 118.256C139.53 117.957 139.306 117.723 139.029 117.552C138.762 117.381 138.464 117.296 138.133 117.296C137.824 117.296 137.525 117.376 137.237 117.536C136.949 117.696 136.709 117.931 136.517 118.24C136.336 118.539 136.245 118.907 136.245 119.344V123.584C136.245 123.691 136.192 123.787 136.085 123.872C135.989 123.957 135.866 124 135.717 124ZM149.562 114.192C149.37 114.192 149.199 114.128 149.05 114C148.911 113.861 148.842 113.701 148.842 113.52C148.842 113.339 148.911 113.184 149.05 113.056C149.199 112.928 149.37 112.864 149.562 112.864C149.754 112.864 149.919 112.928 150.058 113.056C150.197 113.184 150.266 113.339 150.266 113.52C150.266 113.701 150.197 113.861 150.058 114C149.919 114.128 149.754 114.192 149.562 114.192ZM149.546 124C149.407 124 149.285 123.957 149.178 123.872C149.082 123.787 149.034 123.691 149.034 123.584V116.832C149.034 116.704 149.082 116.608 149.178 116.544C149.285 116.469 149.407 116.432 149.546 116.432C149.695 116.432 149.818 116.469 149.914 116.544C150.021 116.608 150.074 116.704 150.074 116.832V123.584C150.074 123.691 150.021 123.787 149.914 123.872C149.818 123.957 149.695 124 149.546 124ZM153.937 124C153.798 124 153.676 123.957 153.569 123.872C153.473 123.787 153.425 123.691 153.425 123.584V116.832C153.425 116.704 153.473 116.608 153.569 116.544C153.676 116.469 153.798 116.432 153.937 116.432C154.076 116.432 154.193 116.469 154.289 116.544C154.385 116.608 154.433 116.704 154.433 116.832V117.552C154.604 117.243 154.87 116.965 155.233 116.72C155.596 116.464 156.044 116.336 156.577 116.336C157.089 116.336 157.558 116.475 157.985 116.752C158.422 117.019 158.769 117.381 159.025 117.84C159.281 118.288 159.409 118.789 159.409 119.344V123.584C159.409 123.723 159.356 123.829 159.249 123.904C159.142 123.968 159.02 124 158.881 124C158.764 124 158.646 123.968 158.529 123.904C158.422 123.829 158.369 123.723 158.369 123.584V119.344C158.369 118.992 158.278 118.661 158.097 118.352C157.916 118.043 157.676 117.792 157.377 117.6C157.078 117.397 156.748 117.296 156.385 117.296C156.065 117.296 155.756 117.381 155.457 117.552C155.169 117.712 154.929 117.941 154.737 118.24C154.556 118.539 154.465 118.907 154.465 119.344V123.584C154.465 123.691 154.412 123.787 154.305 123.872C154.209 123.957 154.086 124 153.937 124ZM165.379 127.712C164.75 127.712 164.19 127.621 163.699 127.44C163.219 127.269 162.835 127.024 162.547 126.704C162.27 126.395 162.131 126.021 162.131 125.584C162.131 125.115 162.27 124.741 162.547 124.464C162.825 124.187 163.139 123.979 163.491 123.84C163.235 123.744 163.022 123.616 162.851 123.456C162.691 123.285 162.611 123.045 162.611 122.736C162.611 122.437 162.686 122.203 162.835 122.032C162.985 121.851 163.177 121.701 163.411 121.584C163.123 121.349 162.899 121.061 162.739 120.72C162.59 120.368 162.515 119.984 162.515 119.568V118.96C162.515 118.448 162.627 117.995 162.851 117.6C163.086 117.205 163.411 116.896 163.827 116.672C164.243 116.448 164.729 116.336 165.283 116.336C165.657 116.336 166.003 116.395 166.323 116.512C166.643 116.629 166.921 116.795 167.155 117.008C167.315 116.677 167.497 116.427 167.699 116.256C167.902 116.085 168.094 116 168.275 116C168.446 116 168.569 116.048 168.643 116.144C168.729 116.229 168.771 116.32 168.771 116.416C168.771 116.512 168.745 116.592 168.691 116.656C168.638 116.709 168.574 116.747 168.499 116.768C168.371 116.789 168.222 116.848 168.051 116.944C167.891 117.04 167.742 117.211 167.603 117.456C167.753 117.659 167.865 117.888 167.939 118.144C168.014 118.4 168.051 118.672 168.051 118.96V119.568C168.051 120.069 167.934 120.523 167.699 120.928C167.465 121.333 167.134 121.653 166.707 121.888C166.291 122.112 165.811 122.224 165.267 122.224C164.809 122.224 164.398 122.133 164.035 121.952C163.918 122.016 163.806 122.096 163.699 122.192C163.593 122.277 163.539 122.405 163.539 122.576C163.539 122.811 163.662 122.981 163.907 123.088C164.153 123.195 164.462 123.269 164.835 123.312C165.209 123.355 165.603 123.403 166.019 123.456C166.446 123.499 166.846 123.584 167.219 123.712C167.603 123.84 167.913 124.037 168.147 124.304C168.393 124.571 168.515 124.949 168.515 125.44C168.515 125.941 168.377 126.357 168.099 126.688C167.833 127.029 167.465 127.285 166.995 127.456C166.526 127.627 165.987 127.712 165.379 127.712ZM165.363 126.928C166.035 126.928 166.558 126.795 166.931 126.528C167.305 126.261 167.491 125.909 167.491 125.472C167.491 125.131 167.39 124.869 167.187 124.688C166.985 124.517 166.723 124.395 166.403 124.32C166.094 124.245 165.769 124.192 165.427 124.16C165.097 124.128 164.809 124.096 164.563 124.064C164.19 124.181 163.859 124.352 163.571 124.576C163.283 124.8 163.139 125.104 163.139 125.488C163.139 125.915 163.337 126.261 163.731 126.528C164.126 126.795 164.67 126.928 165.363 126.928ZM165.299 121.44C165.833 121.44 166.254 121.264 166.563 120.912C166.873 120.549 167.027 120.101 167.027 119.568V118.96C167.027 118.437 166.873 118 166.563 117.648C166.265 117.296 165.838 117.12 165.283 117.12C164.729 117.12 164.297 117.296 163.987 117.648C163.689 118 163.539 118.437 163.539 118.96V119.552C163.539 120.085 163.694 120.533 164.003 120.896C164.313 121.259 164.745 121.44 165.299 121.44Z" fill="#6FBE44"/>
</svg>
